<svg xmlns="http://www.w3.org/2000/svg">
  <defs>
    <symbol viewBox="0 0 48 48" id="icon-microsoft">
      <path fill="#ff5722" d="M22 22H6V6h16z"/>
      <path fill="#4caf50" d="M42 22H26V6h16z"/>
      <path fill="#ffc107" d="M42 42H26V26h16z"/>
      <path fill="#03a9f4" d="M22 42H6V26h16z"/>
    </symbol>
    <symbol viewBox="0 0 40 40" id="icon-microsoft-2">
      <path fill="#dff0fe" stroke="#4788c7" stroke-linecap="round" stroke-linejoin="round" stroke-miterlimit="10" d="M1.5 2.5h17v17h-17zM20.5 2.5h17v17h-17zM1.5 21.5h17v17h-17zM20.5 21.5h17v17h-17z"/>
    </symbol>
<symbol viewBox="0 0 112.8 112.8" id="icon-set2_reg-in-circle" style="enable-background:new 0 0 112.8 112.8;" xml:space="preserve">
<style type="text/css">
	.st0{fill:#0C78E5;}
</style>
<g>
	<g>
		<path class="st0" d="M45.8,53.1c-1.7,0.1-2.6-0.8-3.2-2.2c-0.8-1.8-1.2-3.6-1.1-5.5c0.1-1.6,0.7-2.2,2.3-2.3c0.1,0,0.2,0,0.4,0
			c-0.1-1.1-0.2-2.2-0.2-3.3c0-2.3,0.1-4.6,1-6.8c1.2-2.9,3.5-4.5,6.6-5c1-0.2,2-0.2,2.9-0.2c0.2-1.6,1-2.4,2.7-2.4
			c5.2-0.1,9.8,1.6,13.5,5.3c2.6,2.7,3.6,6,3.2,9.7c-0.1,0.9-0.2,1.7-0.3,2.6c0.3,0,0.6,0,0.8,0.1c1,0.1,1.7,0.6,1.9,1.6
			c0.3,1.3,0.1,2.6-0.2,3.9c-0.2,1-0.6,1.9-0.9,2.8c-0.4,1.2-1.3,1.7-2.5,1.7c-0.4,0-0.7,0-1,0c-0.5,1.3-0.9,2.6-1.5,3.6
			c-0.9,1.4-2.1,2.7-3.1,4c-0.1,0.1-0.2,0.2-0.3,0.3c-1.8,1.5-1.4,3.5-1.2,5.4c0.1,0.8,0.8,1.3,1.4,1.7c1.8,1,3.8,1.5,5.8,2
			c3.1,0.8,6.1,2.1,8.9,3.7c2.3,1.3,3.2,3.4,3.4,5.9c0.1,1,0.1,2.1,0,3.2c0,2.3-1.2,3.5-3.6,3.6c-2.3,0-4.5,0-6.8,0
			c-8.4,0-16.7,0-25.1,0c-0.3,0-0.5,0-0.8,0c0,0,0-0.1-0.1-0.1c0.2-0.2,0.5-0.4,0.7-0.6c3.3-2.8,5.6-6.2,6.3-10.5
			c0.7-4.1,0.7-8.2-1.3-12.1c-1.7-3.3-4-6.1-7.2-8.1C46.6,54.5,45.8,54.1,45.8,53.1z"/>
		<path class="st0" d="M21.8,71.5c-0.5-8.4,6.4-14.9,13.9-15.6c8.5-0.8,16.2,5.9,16.6,14.7c0.4,8.1-5.9,15-14,15.9
			C29.5,87.3,21.6,79.7,21.8,71.5z M34.8,73.3c0,0.4,0,0.7,0,1c0,1.4,0,2.8,0,4.2c0,0.8,0.4,1.3,1.1,1.3c0.7,0,1.4,0.1,2.1,0
			c0.9-0.1,1.2-0.5,1.2-1.4c0-1.5,0-3.1,0-4.6c0-0.2,0-0.4,0-0.6c1.8,0,3.4,0,5.1,0c0.7,0,1.3-0.4,1.4-1.1c0-0.8,0-1.6-0.1-2.3
			c-0.1-0.7-0.5-0.9-1.2-1c-0.5,0-1,0-1.6,0c-1.2,0-2.5,0-3.8,0c0-0.3,0-0.5,0-0.7c0-1.5,0-3,0-4.5c0-0.7-0.4-1.2-1-1.3
			c-0.8-0.1-1.6,0-2.4,0c-0.6,0.1-1,0.5-1,1.1c0,1,0,1.9,0,2.9c0,0.8,0,1.6,0,2.4c-1.2,0-2.3,0-3.3,0c-0.7,0-1.4,0-2,0.1
			c-0.8,0.1-1.1,0.4-1.1,1.2c0,0.5,0,1,0,1.5c0,1.2,0.4,1.6,1.6,1.6C31.5,73.3,33.1,73.3,34.8,73.3z"/>
	</g>
	<path class="st0" d="M56.4,2c30,0,54.4,24.4,54.4,54.4s-24.4,54.4-54.4,54.4S2,86.4,2,56.4S26.4,2,56.4,2 M56.4,0
		C25.3,0,0,25.3,0,56.4s25.3,56.4,56.4,56.4s56.4-25.3,56.4-56.4S87.5,0,56.4,0L56.4,0z"/>
</g>
</symbol>

<symbol viewBox="0 0 112.8 112.8" id="icon-set2_document-in-circle" style="enable-background:new 0 0 112.8 112.8;" xml:space="preserve">
<style type="text/css">
	.st0{fill:#0C78E5;}
</style>
<g>
	<path class="st0" d="M56.4,2c30,0,54.4,24.4,54.4,54.4s-24.4,54.4-54.4,54.4S2,86.4,2,56.4S26.4,2,56.4,2 M56.4,0
		C25.3,0,0,25.3,0,56.4s25.3,56.4,56.4,56.4s56.4-25.3,56.4-56.4S87.5,0,56.4,0L56.4,0z"/>
	<g>
		<path class="st0" d="M38.6,86.3h35.6c2.9,0,5.3-2.4,5.3-5.3V43.3H67.1c-2.9,0-5.3-2.4-5.3-5.3V25.5H38.6c-2.9,0-5.3,2.4-5.3,5.3
			v50.1C33.3,83.9,35.7,86.3,38.6,86.3z M45.7,50.6h21.4c1,0,1.8,0.8,1.8,1.8s-0.8,1.8-1.8,1.8H45.7c-1,0-1.8-0.8-1.8-1.8
			S44.7,50.6,45.7,50.6z M45.7,57.7h21.4c1,0,1.8,0.8,1.8,1.8c0,1-0.8,1.8-1.8,1.8H45.7c-1,0-1.8-0.8-1.8-1.8
			C43.9,58.5,44.7,57.7,45.7,57.7z M45.7,64.8h21.4c1,0,1.8,0.8,1.8,1.8s-0.8,1.8-1.8,1.8H45.7c-1,0-1.8-0.8-1.8-1.8
			S44.7,64.8,45.7,64.8z M45.7,71.9H60c1,0,1.8,0.8,1.8,1.8c0,1-0.8,1.8-1.8,1.8H45.7c-1,0-1.8-0.8-1.8-1.8
			C43.9,72.7,44.7,71.9,45.7,71.9z"/>
		<path class="st0" d="M67.1,39.8h11.4L65.3,26.6V38C65.3,39,66.1,39.8,67.1,39.8z"/>
	</g>
</g>
</symbol>

<symbol viewBox="0 0 112.8 112.8" id="icon-set2_contacts-in-circle" style="enable-background:new 0 0 112.8 112.8;" xml:space="preserve">
<style type="text/css">
	.st0{fill:#0C78E5;}
</style>
<g>
	<path class="st0" d="M56.4,2c30,0,54.4,24.4,54.4,54.4s-24.4,54.4-54.4,54.4S2,86.4,2,56.4S26.4,2,56.4,2 M56.4,0
		C25.3,0,0,25.3,0,56.4s25.3,56.4,56.4,56.4s56.4-25.3,56.4-56.4S87.5,0,56.4,0L56.4,0z"/>
	<g>
		<g>
			<g>
				<path class="st0" d="M67.4,79.1l-9-6c-0.4-0.3-0.9-0.2-1.2,0.2l-2.6,3.4c-0.8,1.1-2.4,1.4-3.6,0.7l-0.5-0.3
					c-1.7-1-3.9-2.1-8.2-6.5c-4.3-4.3-5.5-6.5-6.5-8.2L35.5,62c-0.7-1.2-0.4-2.7,0.7-3.6l3.4-2.6c0.4-0.3,0.5-0.8,0.2-1.2l-6-9
					c-0.3-0.4-0.8-0.5-1.2-0.3l-3.8,2.3c-0.8,0.5-1.4,1.2-1.7,2.1C26,54.1,27,62,39,74s19.9,13,24.4,11.8c0.9-0.3,1.7-0.9,2.1-1.7
					l2.3-3.8C68,79.9,67.9,79.4,67.4,79.1z"/>
				<path class="st0" d="M80,35.8c-0.1-0.1-0.2-0.2-0.4-0.2H39.7c-0.1,0-0.3,0.1-0.4,0.2c-0.1,0.1-0.2,0.2-0.2,0.4V50l2.3,3.4
					c0.8,1.2,0.5,2.9-0.6,3.8l-3.4,2.6c-0.4,0.3-0.5,0.8-0.2,1.2l0.3,0.5c0.9,1.7,1.9,3.2,3.2,4.6h39c0.3,0,0.5-0.2,0.5-0.5V36.2
					C80.2,36,80.1,35.9,80,35.8z M52.9,53.1L52.9,53.1l-9.8,10.5c-0.4,0.4-1,0.4-1.3,0c-0.4-0.4-0.4-1,0-1.3l9.8-10.5
					c0.4-0.4,1-0.4,1.3,0C53.3,52.1,53.3,52.7,52.9,53.1z M59.7,52.4c-0.7,0-1.4-0.2-1.9-0.6L41.8,39.7c-0.4-0.3-0.5-0.9-0.2-1.3
					c0.3-0.4,0.9-0.5,1.3-0.2l15.9,12.1c0.5,0.3,1.1,0.3,1.5,0l15.9-12.1c0.4-0.3,1-0.2,1.3,0.2c0.3,0.4,0.2,1-0.2,1.3L61.6,51.8
					C61,52.2,60.4,52.4,59.7,52.4z M77.6,63.6c-0.2,0.2-0.4,0.3-0.7,0.3c-0.3,0-0.5-0.1-0.7-0.3l-9.8-10.5c-0.3-0.4-0.3-1,0.1-1.3
					c0.4-0.3,1-0.3,1.3,0l9.8,10.5C78,62.7,78,63.3,77.6,63.6z"/>
			</g>
		</g>
	</g>
</g>
</symbol>
<symbol viewBox="0 0 48 48" id="icon-en-1">
<path fill="#3F51B5" d="M2 10H46V38H2z"/><path fill="#FFF" d="M2 14.216L22.81 26.935 25.939 21.815 6.608 10 2 10z"/><path fill="#FFF" d="M46 10L42.391 10 23.061 21.814 26.189 26.935 46 14.826z"/><path fill="#FFF" d="M26.189 20.271L23.061 25.391 43.691 38 46 38 46 32.379z"/><path fill="#FFF" d="M2 32.991L2 38 5.31 38 25.939 25.392 22.811 20.271z"/><path fill="#FFF" d="M2 20H46V28H2z"/><path fill="#FFF" d="M20 10H28V38H20z"/><g><path fill="#E53935" d="M17.218 20L2 10.699 2 13.043 13.382 20zM44.309 10L27.947 20 31.782 20 46 11.311 46 10zM33.082 28L46 35.895 46 33.551 36.917 28zM15.918 28L2 36.506 2 38 3.392 38 19.753 28zM2 22H46V26H2z"/><path fill="#E53935" d="M22 10H26V38H22z"/></g>
</symbol>
<symbol viewBox="0 0 48 48" id="icon-cn-1">
<path fill="#FF3D00" d="M2 9L2 24 2 39 46 39 46 24 46 9z"/><path fill="#FFEB3B" d="M10 13.49L11.181 17.24 15 17.24 11.91 19.367 13.09 23 10 20.755 6.91 23 8.09 19.367 5 17.24 8.819 17.24zM17.474 10.976L17.828 12.101 18.974 12.101 18.047 12.737 18.401 13.828 17.474 13.154 16.547 13.828 16.901 12.737 15.974 12.101 17.12 12.101zM17.5 24L17.854 25.125 19 25.125 18.073 25.762 18.427 26.853 17.5 26.179 16.573 26.853 16.927 25.762 16 25.125 17.146 25.125zM21.5 15L21.854 16.125 23 16.125 22.073 16.762 22.427 17.853 21.5 17.179 20.573 17.853 20.927 16.762 20 16.125 21.146 16.125zM21.5 20L21.854 21.125 23 21.125 22.073 21.762 22.427 22.853 21.5 22.179 20.573 22.853 20.927 21.762 20 21.125 21.146 21.125z"/>
</symbol>

<symbol viewBox="0 0 512 512" id="icon-ru-1">
<polygon style="fill:#F0F0F0;" points="0,85.33 0,199.107 0,312.885 0,426.662 512,426.662 512,312.885 512,199.107 512,85.33 "/>
<rect y="85.333" style="fill:#0052B4;" width="512" height="341.337"/>
<rect y="85.333" style="fill:#F0F0F0;" width="512" height="113.775"/>
<rect y="312.884" style="fill:#D80027;" width="512" height="113.775"/>
</symbol>

  </defs>
</svg>