<svg width="131" height="131" viewBox="0 0 131 131" version="1.1" xmlns="http://www.w3.org/2000/svg" xmlns:xlink="http://www.w3.org/1999/xlink">
<title>Compas</title>
<desc>Created using Figma</desc>
<g id="Canvas" transform="translate(-1781 482)">
<g id="Compas">
<g id="Group">
<g id="Group">
<g id="Group">
<g id="Oval">
<use xlink:href="#path0_fill" transform="translate(1785.67 -477.334)" fill="url(#paint0_radial)"/>
</g>
<g id="Group">
<g id="Shape">
<use xlink:href="#path1_fill" transform="translate(1781 -482)" fill="url(#paint1_linear)"/>
<use xlink:href="#path1_fill" transform="translate(1781 -482)" fill="#E8EDF7"/>
</g>
<g id="Shape">
<use xlink:href="#path2_fill" transform="translate(1781 -482)" fill="url(#paint3_radial)"/>
</g>
<g id="Group">
<g id="Group">
<g id="Group">
<g id="Oval">
<use xlink:href="#path3_fill" transform="translate(1845.4 -478.522)" fill="#868686"/>
</g>
<g id="Oval">
<use xlink:href="#path4_fill" transform="translate(1845.51 -478.406)" fill="url(#paint5_linear)"/>
<use xlink:href="#path4_fill" transform="translate(1845.51 -478.406)" fill="#636363"/>
</g>
<g id="Shape">
<use xlink:href="#path5_fill" transform="translate(1845.95 -477.971)" fill="#868686"/>
</g>
</g>
<g id="Group">
<g id="Oval">
<use xlink:href="#path3_fill" transform="translate(1845.05 -357.028)" fill="#868686"/>
</g>
<g id="Oval">
<use xlink:href="#path4_fill" transform="translate(1845.17 -356.912)" fill="url(#paint9_linear)"/>
<use xlink:href="#path4_fill" transform="translate(1845.17 -356.912)" fill="#636363"/>
</g>
<g id="Shape">
<use xlink:href="#path6_fill" transform="translate(1845.6 -356.478)" fill="#868686"/>
</g>
</g>
<g id="Group">
<g id="Oval">
<use xlink:href="#path3_fill" transform="translate(1784.48 -417.949)" fill="#868686"/>
</g>
<g id="Oval">
<use xlink:href="#path4_fill" transform="translate(1784.59 -417.833)" fill="url(#paint13_linear)"/>
<use xlink:href="#path4_fill" transform="translate(1784.59 -417.833)" fill="#636363"/>
</g>
<g id="Shape">
<use xlink:href="#path7_fill" transform="translate(1785.03 -417.398)" fill="#868686"/>
</g>
</g>
<g id="Group">
<g id="Oval">
<use xlink:href="#path4_fill" transform="translate(1906.06 -417.485)" fill="url(#paint16_linear)"/>
<use xlink:href="#path4_fill" transform="translate(1906.06 -417.485)" fill="#636363"/>
</g>
<g id="Shape">
<use xlink:href="#path8_fill" transform="translate(1906.52 -417.051)" fill="#868686"/>
</g>
</g>
</g>
<g id="Group">
<g id="Group">
<g id="Oval">
<use xlink:href="#path3_fill" transform="translate(1802.39 -460.843)" fill="#868686"/>
</g>
<g id="Oval">
<use xlink:href="#path4_fill" transform="translate(1802.5 -460.727)" fill="url(#paint20_linear)"/>
<use xlink:href="#path4_fill" transform="translate(1802.5 -460.727)" fill="#636363"/>
</g>
<g id="Shape">
<use xlink:href="#path9_fill" transform="translate(1802.74 -460.495)" fill="#868686"/>
</g>
</g>
<g id="Group">
<g id="Oval">
<use xlink:href="#path3_fill" transform="translate(1888.03 -374.708)" fill="#868686"/>
</g>
<g id="Oval">
<use xlink:href="#path4_fill" transform="translate(1888.15 -374.592)" fill="url(#paint24_linear)"/>
<use xlink:href="#path4_fill" transform="translate(1888.15 -374.592)" fill="#636363"/>
</g>
<g id="Shape">
<use xlink:href="#path10_fill" transform="translate(1888.41 -374.36)" fill="#868686"/>
</g>
</g>
<g id="Group">
<g id="Oval">
<use xlink:href="#path3_fill" transform="translate(1802.16 -374.939)" fill="#868686"/>
</g>
<g id="Oval">
<use xlink:href="#path4_fill" transform="translate(1802.27 -374.823)" fill="url(#paint28_linear)"/>
<use xlink:href="#path4_fill" transform="translate(1802.27 -374.823)" fill="#636363"/>
</g>
<g id="Shape">
<use xlink:href="#path11_fill" transform="translate(1802.48 -374.592)" fill="#868686"/>
</g>
</g>
<g id="Group">
<g id="Oval">
<use xlink:href="#path3_fill" transform="translate(1888.29 -460.611)" fill="#868686"/>
</g>
<g id="Oval">
<use xlink:href="#path4_fill" transform="translate(1888.41 -460.495)" fill="url(#paint32_linear)"/>
<use xlink:href="#path4_fill" transform="translate(1888.41 -460.495)" fill="#636363"/>
</g>
<g id="Shape">
<use xlink:href="#path12_fill" transform="translate(1888.64 -460.263)" fill="#868686"/>
</g>
</g>
</g>
</g>
</g>
<g id="Shape">
<use xlink:href="#path13_fill" transform="translate(1787.96 -475.044)" fill="#421F02"/>
</g>
<g id="Shape">
<use xlink:href="#path14_fill" transform="translate(1794.56 -468.465)" fill="#421F02"/>
</g>
<g id="Group">
<g id="Shape">
<use xlink:href="#path15_fill" transform="translate(1845.43 -472.378)" fill="#1D1D1B"/>
</g>
<g id="Group">
<g id="Shape">
<use xlink:href="#path16_fill" transform="translate(1824.27 -468.201)" fill="#1D1D1B"/>
</g>
<g id="Shape">
<use xlink:href="#path17_fill" transform="translate(1826.94 -469.19)" fill="#1D1D1B"/>
</g>
<g id="Shape">
<use xlink:href="#path18_fill" transform="translate(1829.06 -469.924)" fill="#1D1D1B"/>
</g>
</g>
<g id="Group">
<g id="Shape">
<use xlink:href="#path19_fill" transform="translate(1808.21 -457.954)" fill="#1D1D1B"/>
</g>
<g id="Shape">
<use xlink:href="#path20_fill" transform="translate(1810.2 -459.564)" fill="#1D1D1B"/>
</g>
<g id="Shape">
<use xlink:href="#path21_fill" transform="translate(1812.12 -461.141)" fill="#1D1D1B"/>
</g>
</g>
<g id="Group">
<g id="Shape">
<use xlink:href="#path22_fill" transform="translate(1796.68 -442.762)" fill="#1D1D1B"/>
</g>
<g id="Shape">
<use xlink:href="#path23_fill" transform="translate(1797.96 -444.929)" fill="#1D1D1B"/>
</g>
<g id="Shape">
<use xlink:href="#path24_fill" transform="translate(1799.21 -447.073)" fill="#1D1D1B"/>
</g>
</g>
<g id="Group">
<g id="Shape">
<use xlink:href="#path25_fill" transform="translate(1791.1 -424.578)" fill="#1D1D1B"/>
</g>
<g id="Shape">
<use xlink:href="#path26_fill" transform="translate(1791.43 -427.063)" fill="#1D1D1B"/>
</g>
<g id="Shape">
<use xlink:href="#path27_fill" transform="translate(1791.88 -429.473)" fill="#1D1D1B"/>
</g>
</g>
<g id="Group">
<g id="Shape">
<use xlink:href="#path28_fill" transform="translate(1791.88 -405.777)" fill="#1D1D1B"/>
</g>
<g id="Shape">
<use xlink:href="#path29_fill" transform="translate(1791.41 -408.203)" fill="#1D1D1B"/>
</g>
<g id="Shape">
<use xlink:href="#path30_fill" transform="translate(1791.04 -410.605)" fill="#1D1D1B"/>
</g>
</g>
<g id="Group">
<g id="Shape">
<use xlink:href="#path31_fill" transform="translate(1799.18 -388.706)" fill="#1D1D1B"/>
</g>
<g id="Shape">
<use xlink:href="#path32_fill" transform="translate(1797.78 -390.648)" fill="#1D1D1B"/>
</g>
<g id="Shape">
<use xlink:href="#path33_fill" transform="translate(1796.74 -392.714)" fill="#1D1D1B"/>
</g>
</g>
<g id="Group">
<g id="Shape">
<use xlink:href="#path34_fill" transform="translate(1812.05 -375.026)" fill="#1D1D1B"/>
</g>
<g id="Shape">
<use xlink:href="#path34_fill" transform="translate(1810.14 -376.62)" fill="#1D1D1B"/>
</g>
<g id="Shape">
<use xlink:href="#path35_fill" transform="translate(1808.33 -377.817)" fill="#1D1D1B"/>
</g>
</g>
<g id="Group">
<g id="Shape">
<use xlink:href="#path36_fill" transform="translate(1829.06 -366.303)" fill="#1D1D1B"/>
</g>
<g id="Shape">
<use xlink:href="#path37_fill" transform="translate(1826.74 -366.892)" fill="#1D1D1B"/>
</g>
<g id="Shape">
<use xlink:href="#path38_fill" transform="translate(1824.4 -367.733)" fill="#1D1D1B"/>
</g>
</g>
<g id="Group">
<g id="Shape">
<use xlink:href="#path39_fill" transform="translate(1848.18 -363.607)" fill="#1D1D1B"/>
</g>
<g id="Shape">
<use xlink:href="#path40_fill" transform="translate(1845.43 -363.636)" fill="#1D1D1B"/>
</g>
<g id="Shape">
<use xlink:href="#path41_fill" transform="translate(1842.94 -363.636)" fill="#1D1D1B"/>
</g>
</g>
<g id="Group">
<g id="Shape">
<use xlink:href="#path42_fill" transform="translate(1866.18 -367.868)" fill="#1D1D1B"/>
</g>
<g id="Shape">
<use xlink:href="#path43_fill" transform="translate(1863.82 -366.919)" fill="#1D1D1B"/>
</g>
<g id="Shape">
<use xlink:href="#path44_fill" transform="translate(1861.61 -366.023)" fill="#1D1D1B"/>
</g>
</g>
<g id="Group">
<g id="Shape">
<use xlink:href="#path45_fill" transform="translate(1881.83 -377.983)" fill="#1D1D1B"/>
</g>
<g id="Shape">
<use xlink:href="#path46_fill" transform="translate(1880 -376.186)" fill="#1D1D1B"/>
</g>
<g id="Shape">
<use xlink:href="#path47_fill" transform="translate(1878.18 -374.629)" fill="#1D1D1B"/>
</g>
</g>
<g id="Group">
<g id="Shape">
<use xlink:href="#path48_fill" transform="translate(1893.1 -392.763)" fill="#1D1D1B"/>
</g>
<g id="Shape">
<use xlink:href="#path49_fill" transform="translate(1891.8 -390.938)" fill="#1D1D1B"/>
</g>
<g id="Shape">
<use xlink:href="#path50_fill" transform="translate(1890.88 -388.413)" fill="#1D1D1B"/>
</g>
</g>
<g id="Group">
<g id="Shape">
<use xlink:href="#path51_fill" transform="translate(1898.9 -410.385)" fill="#1D1D1B"/>
</g>
<g id="Shape">
<use xlink:href="#path52_fill" transform="translate(1898.51 -408.142)" fill="#1D1D1B"/>
</g>
<g id="Shape">
<use xlink:href="#path53_fill" transform="translate(1898.07 -405.707)" fill="#1D1D1B"/>
</g>
</g>
<g id="Group">
<g id="Shape">
<use xlink:href="#path54_fill" transform="translate(1898.29 -428.251)" fill="#1D1D1B"/>
</g>
<g id="Shape">
<use xlink:href="#path55_fill" transform="translate(1898.73 -425.821)" fill="#1D1D1B"/>
</g>
</g>
<g id="Group">
<g id="Shape">
<use xlink:href="#path56_fill" transform="translate(1891.5 -445.847)" fill="#1D1D1B"/>
</g>
<g id="Shape">
<use xlink:href="#path57_fill" transform="translate(1892.76 -443.856)" fill="#1D1D1B"/>
</g>
</g>
<g id="Group">
<g id="Shape">
<use xlink:href="#path58_fill" transform="translate(1879.11 -459.973)" fill="#1D1D1B"/>
</g>
<g id="Shape">
<use xlink:href="#path59_fill" transform="translate(1881.07 -458.736)" fill="#1D1D1B"/>
</g>
</g>
<g id="Group">
<g id="Shape">
<use xlink:href="#path60_fill" transform="translate(1862.47 -469.489)" fill="#1D1D1B"/>
</g>
<g id="Shape">
<use xlink:href="#path61_fill" transform="translate(1865.09 -468.649)" fill="#1D1D1B"/>
</g>
</g>
</g>
<g id="Group">
<g id="Group">
<g id="Shape">
<use xlink:href="#path62_fill" transform="translate(1843.05 -448.815)" fill="url(#paint85_linear)"/>
</g>
<g id="Shape">
<use xlink:href="#path63_fill" transform="translate(1843.05 -448.815)" fill="url(#paint86_linear)"/>
</g>
</g>
<g id="Group">
<g id="Shape">
<use xlink:href="#path64_fill" transform="translate(1813.92 -419.688)" fill="url(#paint87_linear)"/>
</g>
<g id="Shape">
<use xlink:href="#path65_fill" transform="translate(1813.92 -416.239)" fill="url(#paint88_linear)"/>
</g>
</g>
<g id="Group">
<g id="Shape">
<use xlink:href="#path66_fill" transform="translate(1843.05 -416.239)" fill="url(#paint89_linear)"/>
</g>
<g id="Shape">
<use xlink:href="#path67_fill" transform="translate(1846.5 -416.239)" fill="url(#paint90_linear)"/>
</g>
</g>
<g id="Group">
<g id="Shape">
<use xlink:href="#path68_fill" transform="translate(1846.5 -419.688)" fill="url(#paint91_linear)"/>
</g>
<g id="Shape">
<use xlink:href="#path69_fill" transform="translate(1846.5 -419.688)" fill="url(#paint92_linear)"/>
</g>
</g>
</g>
<g id="Group">
<g id="Group">
<g id="Shape">
<use xlink:href="#path70_fill" transform="translate(1845.28 -447.308)" fill="url(#paint93_linear)"/>
</g>
<g id="Shape">
<use xlink:href="#path71_fill" transform="translate(1845.28 -447.308)" fill="url(#paint94_linear)"/>
</g>
</g>
<g id="Group">
<g id="Shape">
<use xlink:href="#path72_fill" transform="translate(1815.95 -417.978)" fill="url(#paint95_linear)"/>
</g>
<g id="Shape">
<use xlink:href="#path73_fill" transform="translate(1815.95 -416.761)" fill="url(#paint96_linear)"/>
</g>
</g>
<g id="Group">
<g id="Shape">
<use xlink:href="#path74_fill" transform="translate(1815.95 -447.308)" fill="url(#paint97_linear)"/>
</g>
<g id="Shape">
<use xlink:href="#path75_fill" transform="translate(1815.95 -447.308)" fill="url(#paint98_linear)"/>
</g>
</g>
<g id="Group">
<g id="Shape">
<use xlink:href="#path76_fill" transform="translate(1845.28 -417.978)" fill="url(#paint99_linear)"/>
</g>
<g id="Shape">
<use xlink:href="#path77_fill" transform="translate(1846.5 -417.978)" fill="url(#paint100_linear)"/>
</g>
</g>
</g>
<g id="Oval">
<use xlink:href="#path78_fill" transform="translate(1844.12 -419.137)" fill="url(#paint101_linear)"/>
</g>
<g id="Group">
<g id="Group 2">
<mask id="mask0_outline" mask-type="alpha">
<g id="Shape">
<use xlink:href="#path79_fill" transform="translate(1835.52 -462.292)" fill="#FFFFFF"/>
</g>
</mask>
<g id="Shape" mask="url(#mask0_outline)">
<use xlink:href="#path79_fill" transform="translate(1835.52 -462.292)" fill="#436EBE"/>
</g>
<g id="Shape" opacity="0.716486" mask="url(#mask0_outline)">
<use xlink:href="#path80_fill" transform="translate(1846.03 -466.198)" fill="#D11E2A"/>
</g>
</g>
<g id="Shape">
<use xlink:href="#path81_fill" transform="translate(1841.47 -421.614)" fill="url(#paint105_linear)"/>
</g>
</g>
</g>
<g id="Shape">
<use xlink:href="#path82_fill" transform="translate(1793.16 -471.543)" fill="url(#paint106_radial)"/>
</g>
</g>
</g>
<g id="E">
<use xlink:href="#path83_fill" transform="translate(1882.13 -420.945)" fill="#2F2F2F"/>
</g>
<g id="W">
<use xlink:href="#path84_fill" transform="translate(1803.85 -420.945)" fill="#2F2F2F"/>
</g>
<g id="N">
<use xlink:href="#path85_fill" transform="translate(1843.39 -460.54)" fill="#2F2F2F"/>
</g>
<g id="S">
<use xlink:href="#path86_fill" transform="translate(1843.99 -380.945)" fill="#2F2F2F"/>
</g>
</g>
</g>
<defs>
<radialGradient id="paint0_radial" cx="0.5" cy="0.5" r="0.5" gradientUnits="userSpaceOnUse" gradientTransform="matrix(121.658 0 0 121.658 3.47692 2.90368)">
<stop offset="0" stop-color="#E0D6BB"/>
<stop offset="0.3201" stop-color="#E2D7B7"/>
<stop offset="0.4786" stop-color="#E2D3AB"/>
<stop offset="0.6015" stop-color="#DCCCA5"/>
<stop offset="0.7062" stop-color="#D1BE95"/>
<stop offset="0.7983" stop-color="#CEB78D"/>
<stop offset="0.8532" stop-color="#C4AD85"/>
<stop offset="0.8987" stop-color="#C3AA87"/>
<stop offset="0.9982" stop-color="#24180C"/>
<stop offset="1" stop-color="#421F02"/>
</radialGradient>
<linearGradient id="paint1_linear" x1="0" y1="0" x2="1" y2="0" gradientUnits="userSpaceOnUse" gradientTransform="matrix(0 -131 131 0 65.4945 133.898)">
<stop offset="0.0119048" stop-color="#3C3C3B"/>
<stop offset="0.0595238" stop-color="#9C9C9B"/>
<stop offset="0.1071" stop-color="#FFFFFF"/>
<stop offset="0.109" stop-color="#FBFBFB"/>
<stop offset="0.1513" stop-color="#A7A7A7"/>
<stop offset="0.1706" stop-color="#868686"/>
<stop offset="0.2341" stop-color="#F5F5F5"/>
<stop offset="0.2857" stop-color="#9C9C9B"/>
<stop offset="0.369" stop-color="#F5F5F5"/>
<stop offset="0.4405" stop-color="#9C9C9B"/>
<stop offset="0.5159" stop-color="#F5F5F5"/>
<stop offset="0.6111" stop-color="#9C9C9B"/>
<stop offset="0.7024" stop-color="#F5F5F5"/>
<stop offset="0.7619" stop-color="#ADADAC"/>
<stop offset="0.8135" stop-color="#9C9C9B"/>
<stop offset="0.877" stop-color="#F5F5F5"/>
<stop offset="0.9444" stop-color="#9C9C9B"/>
<stop offset="1" stop-color="#3C3C3B"/>
</linearGradient>
<radialGradient id="paint3_radial" cx="0.5" cy="0.5" r="0.5" gradientUnits="userSpaceOnUse" gradientTransform="matrix(8.08271 0 0 8.08271 119.119 61.4586)">
<stop offset="0" stop-color="#C5C5C5"/>
<stop offset="0.9484" stop-color="#C8C8C8"/>
<stop offset="0.9551" stop-color="#D1D1D1"/>
<stop offset="0.9607" stop-color="#DFDFDF"/>
<stop offset="0.9658" stop-color="#F5F5F5"/>
<stop offset="0.9659" stop-color="#F5F5F5"/>
<stop offset="0.9925" stop-color="#868686"/>
<stop offset="1" stop-color="#3C3C3B"/>
</radialGradient>
<linearGradient id="paint5_linear" x1="0" y1="0" x2="1" y2="0" gradientUnits="userSpaceOnUse" gradientTransform="matrix(1.38843 0 0 1.38843 0.745905 1.15039)">
<stop offset="0" stop-color="#9C9C9B"/>
<stop offset="0.5159" stop-color="#F5F5F5"/>
<stop offset="0.7103" stop-color="#9C9C9B"/>
<stop offset="1" stop-color="#F5F5F5"/>
</linearGradient>
<linearGradient id="paint9_linear" x1="0" y1="0" x2="1" y2="0" gradientUnits="userSpaceOnUse" gradientTransform="matrix(1.38843 0 0 1.38843 0.745905 1.15039)">
<stop offset="0" stop-color="#9C9C9B"/>
<stop offset="0.5159" stop-color="#F5F5F5"/>
<stop offset="0.7103" stop-color="#9C9C9B"/>
<stop offset="1" stop-color="#F5F5F5"/>
</linearGradient>
<linearGradient id="paint13_linear" x1="0" y1="0" x2="1" y2="0" gradientUnits="userSpaceOnUse" gradientTransform="matrix(1.38843 0 0 1.38843 0.745905 1.15039)">
<stop offset="0" stop-color="#9C9C9B"/>
<stop offset="0.5159" stop-color="#F5F5F5"/>
<stop offset="0.7103" stop-color="#9C9C9B"/>
<stop offset="1" stop-color="#F5F5F5"/>
</linearGradient>
<linearGradient id="paint16_linear" x1="0" y1="0" x2="1" y2="0" gradientUnits="userSpaceOnUse" gradientTransform="matrix(1.38843 0 0 1.38843 0.745905 1.15039)">
<stop offset="0" stop-color="#9C9C9B"/>
<stop offset="0.5159" stop-color="#F5F5F5"/>
<stop offset="0.7103" stop-color="#9C9C9B"/>
<stop offset="1" stop-color="#F5F5F5"/>
</linearGradient>
<linearGradient id="paint20_linear" x1="0" y1="0" x2="1" y2="0" gradientUnits="userSpaceOnUse" gradientTransform="matrix(1.38843 0 0 1.38843 0.745905 1.15039)">
<stop offset="0" stop-color="#9C9C9B"/>
<stop offset="0.5159" stop-color="#F5F5F5"/>
<stop offset="0.7103" stop-color="#9C9C9B"/>
<stop offset="1" stop-color="#F5F5F5"/>
</linearGradient>
<linearGradient id="paint24_linear" x1="0" y1="0" x2="1" y2="0" gradientUnits="userSpaceOnUse" gradientTransform="matrix(1.38843 0 0 1.38843 0.745905 1.15039)">
<stop offset="0" stop-color="#9C9C9B"/>
<stop offset="0.5159" stop-color="#F5F5F5"/>
<stop offset="0.7103" stop-color="#9C9C9B"/>
<stop offset="1" stop-color="#F5F5F5"/>
</linearGradient>
<linearGradient id="paint28_linear" x1="0" y1="0" x2="1" y2="0" gradientUnits="userSpaceOnUse" gradientTransform="matrix(1.38843 0 0 1.38843 0.745905 1.15039)">
<stop offset="0" stop-color="#9C9C9B"/>
<stop offset="0.5159" stop-color="#F5F5F5"/>
<stop offset="0.7103" stop-color="#9C9C9B"/>
<stop offset="1" stop-color="#F5F5F5"/>
</linearGradient>
<linearGradient id="paint32_linear" x1="0" y1="0" x2="1" y2="0" gradientUnits="userSpaceOnUse" gradientTransform="matrix(1.38843 0 0 1.38843 0.745905 1.15039)">
<stop offset="0" stop-color="#9C9C9B"/>
<stop offset="0.5159" stop-color="#F5F5F5"/>
<stop offset="0.7103" stop-color="#9C9C9B"/>
<stop offset="1" stop-color="#F5F5F5"/>
</linearGradient>
<linearGradient id="paint85_linear" x1="0" y1="0" x2="1" y2="0" gradientUnits="userSpaceOnUse" gradientTransform="matrix(0 -33.0295 6.99379 0 3.44324 32.7745)">
<stop offset="0" stop-color="#2B1D0F"/>
<stop offset="1" stop-color="#958B76"/>
</linearGradient>
<linearGradient id="paint86_linear" x1="0" y1="0" x2="1" y2="0" gradientUnits="userSpaceOnUse" gradientTransform="matrix(3.4442 0 0 32.5318 -0.00104336 16.2798)">
<stop offset="0" stop-color="#706F6F"/>
<stop offset="0.0989471" stop-color="#7F7E7E"/>
<stop offset="0.34" stop-color="#9F9F9F"/>
<stop offset="0.5419" stop-color="#B3B3B3"/>
<stop offset="0.6786" stop-color="#BABABA"/>
<stop offset="0.6856" stop-color="#BDBDBD"/>
<stop offset="0.7543" stop-color="#D7D7D7"/>
<stop offset="0.8162" stop-color="#E7E7E7"/>
<stop offset="0.8651" stop-color="#ECECEC"/>
</linearGradient>
<linearGradient id="paint87_linear" x1="0" y1="0" x2="1" y2="0" gradientUnits="userSpaceOnUse" gradientTransform="matrix(-33.0298 -0 -0 -6.99385 32.774 3.44362)">
<stop offset="0" stop-color="#2B1D0F"/>
<stop offset="1" stop-color="#958B76"/>
</linearGradient>
<linearGradient id="paint88_linear" x1="0" y1="0" x2="1" y2="0" gradientUnits="userSpaceOnUse" gradientTransform="matrix(0 -3.44362 32.5263 0 16.2791 3.43863)">
<stop offset="0" stop-color="#706F6F"/>
<stop offset="0.0989471" stop-color="#7F7E7E"/>
<stop offset="0.34" stop-color="#9F9F9F"/>
<stop offset="0.5419" stop-color="#B3B3B3"/>
<stop offset="0.6786" stop-color="#BABABA"/>
<stop offset="0.6856" stop-color="#BDBDBD"/>
<stop offset="0.7543" stop-color="#D7D7D7"/>
<stop offset="0.8162" stop-color="#E7E7E7"/>
<stop offset="0.8651" stop-color="#ECECEC"/>
</linearGradient>
<linearGradient id="paint89_linear" x1="0" y1="0" x2="1" y2="0" gradientUnits="userSpaceOnUse" gradientTransform="matrix(0 33.0298 -6.99386 0 3.44324 -0.208644)">
<stop offset="0" stop-color="#2B1D0F"/>
<stop offset="1" stop-color="#958B76"/>
</linearGradient>
<linearGradient id="paint90_linear" x1="0" y1="0" x2="1" y2="0" gradientUnits="userSpaceOnUse" gradientTransform="matrix(-3.44405 -0 -0 -32.5304 3.43861 16.2863)">
<stop offset="0" stop-color="#706F6F"/>
<stop offset="0.0989471" stop-color="#7F7E7E"/>
<stop offset="0.34" stop-color="#9F9F9F"/>
<stop offset="0.5419" stop-color="#B3B3B3"/>
<stop offset="0.6786" stop-color="#BABABA"/>
<stop offset="0.6856" stop-color="#BDBDBD"/>
<stop offset="0.7543" stop-color="#D7D7D7"/>
<stop offset="0.8162" stop-color="#E7E7E7"/>
<stop offset="0.8651" stop-color="#ECECEC"/>
</linearGradient>
<linearGradient id="paint91_linear" x1="0" y1="0" x2="1" y2="0" gradientUnits="userSpaceOnUse" gradientTransform="matrix(33.0299 0 0 6.99388 -0.209078 3.44359)">
<stop offset="0" stop-color="#2B1D0F"/>
<stop offset="1" stop-color="#958B76"/>
</linearGradient>
<linearGradient id="paint92_linear" x1="0" y1="0" x2="1" y2="0" gradientUnits="userSpaceOnUse" gradientTransform="matrix(0 3.44365 -32.5266 0 16.2858 -0.000318805)">
<stop offset="0" stop-color="#706F6F"/>
<stop offset="0.0989471" stop-color="#7F7E7E"/>
<stop offset="0.34" stop-color="#9F9F9F"/>
<stop offset="0.5419" stop-color="#B3B3B3"/>
<stop offset="0.6786" stop-color="#BABABA"/>
<stop offset="0.6856" stop-color="#BDBDBD"/>
<stop offset="0.7543" stop-color="#D7D7D7"/>
<stop offset="0.8162" stop-color="#E7E7E7"/>
<stop offset="0.8651" stop-color="#ECECEC"/>
</linearGradient>
<linearGradient id="paint93_linear" x1="0" y1="0" x2="1" y2="0" gradientUnits="userSpaceOnUse" gradientTransform="matrix(30.9701 -30.9701 30.9701 30.9701 1.02078 30.7432)">
<stop offset="0" stop-color="#2B1D0F"/>
<stop offset="1" stop-color="#958B76"/>
</linearGradient>
<linearGradient id="paint94_linear" x1="0" y1="0" x2="1" y2="0" gradientUnits="userSpaceOnUse" gradientTransform="matrix(1.21081 1.21081 -1.25906 1.16441 15.2762 14.066)">
<stop offset="0" stop-color="#706F6F"/>
<stop offset="0.0989471" stop-color="#7F7E7E"/>
<stop offset="0.34" stop-color="#9F9F9F"/>
<stop offset="0.5419" stop-color="#B3B3B3"/>
<stop offset="0.6786" stop-color="#BABABA"/>
<stop offset="0.6856" stop-color="#BDBDBD"/>
<stop offset="0.7543" stop-color="#D7D7D7"/>
<stop offset="0.8162" stop-color="#E7E7E7"/>
<stop offset="0.8651" stop-color="#ECECEC"/>
</linearGradient>
<linearGradient id="paint95_linear" x1="0" y1="0" x2="1" y2="0" gradientUnits="userSpaceOnUse" gradientTransform="matrix(-30.9703 30.9703 -30.9703 -30.9703 30.7327 1.03116)">
<stop offset="0" stop-color="#2B1D0F"/>
<stop offset="1" stop-color="#958B76"/>
</linearGradient>
<linearGradient id="paint96_linear" x1="0" y1="0" x2="1" y2="0" gradientUnits="userSpaceOnUse" gradientTransform="matrix(-1.21081 -1.21081 1.25906 -1.16441 16.4772 16.4912)">
<stop offset="0" stop-color="#706F6F"/>
<stop offset="0.0989471" stop-color="#7F7E7E"/>
<stop offset="0.34" stop-color="#9F9F9F"/>
<stop offset="0.5419" stop-color="#B3B3B3"/>
<stop offset="0.6786" stop-color="#BABABA"/>
<stop offset="0.6856" stop-color="#BDBDBD"/>
<stop offset="0.7543" stop-color="#D7D7D7"/>
<stop offset="0.8162" stop-color="#E7E7E7"/>
<stop offset="0.8651" stop-color="#ECECEC"/>
</linearGradient>
<linearGradient id="paint97_linear" x1="0" y1="0" x2="1" y2="0" gradientUnits="userSpaceOnUse" gradientTransform="matrix(-30.9702 -30.9702 30.9702 -30.9702 30.7327 30.7431)">
<stop offset="0" stop-color="#2B1D0F"/>
<stop offset="1" stop-color="#958B76"/>
</linearGradient>
<linearGradient id="paint98_linear" x1="0" y1="0" x2="1" y2="0" gradientUnits="userSpaceOnUse" gradientTransform="matrix(1.2111 -1.2111 1.16469 1.25936 14.0554 16.4878)">
<stop offset="0" stop-color="#706F6F"/>
<stop offset="0.0989471" stop-color="#7F7E7E"/>
<stop offset="0.34" stop-color="#9F9F9F"/>
<stop offset="0.5419" stop-color="#B3B3B3"/>
<stop offset="0.6786" stop-color="#BABABA"/>
<stop offset="0.6856" stop-color="#BDBDBD"/>
<stop offset="0.7543" stop-color="#D7D7D7"/>
<stop offset="0.8162" stop-color="#E7E7E7"/>
<stop offset="0.8651" stop-color="#ECECEC"/>
</linearGradient>
<linearGradient id="paint99_linear" x1="0" y1="0" x2="1" y2="0" gradientUnits="userSpaceOnUse" gradientTransform="matrix(30.9698 30.9698 -30.9698 30.9698 1.02084 1.03128)">
<stop offset="0" stop-color="#2B1D0F"/>
<stop offset="1" stop-color="#958B76"/>
</linearGradient>
<linearGradient id="paint100_linear" x1="0" y1="0" x2="1" y2="0" gradientUnits="userSpaceOnUse" gradientTransform="matrix(-1.21079 1.21079 -1.16439 -1.25904 16.4805 15.2866)">
<stop offset="0" stop-color="#706F6F"/>
<stop offset="0.0989471" stop-color="#7F7E7E"/>
<stop offset="0.34" stop-color="#9F9F9F"/>
<stop offset="0.5419" stop-color="#B3B3B3"/>
<stop offset="0.6786" stop-color="#BABABA"/>
<stop offset="0.6856" stop-color="#BDBDBD"/>
<stop offset="0.7543" stop-color="#D7D7D7"/>
<stop offset="0.8162" stop-color="#E7E7E7"/>
<stop offset="0.8651" stop-color="#ECECEC"/>
</linearGradient>
<linearGradient id="paint101_linear" x1="0" y1="0" x2="1" y2="0" gradientUnits="userSpaceOnUse" gradientTransform="matrix(-4.80196 -0 -0 -4.80196 4.79095 2.38153)">
<stop offset="0" stop-color="#171921"/>
<stop offset="1" stop-color="#7C8594"/>
</linearGradient>
<linearGradient id="paint105_linear" x1="0" y1="0" x2="1" y2="0" gradientUnits="userSpaceOnUse" gradientTransform="matrix(9.34047 2.20962 -2.20962 9.34047 0.121362 3.68548)">
<stop offset="0" stop-color="#171921"/>
<stop offset="1" stop-color="#7C8594"/>
</linearGradient>
<radialGradient id="paint106_radial" cx="0.5" cy="0.5" r="0.5" gradientUnits="userSpaceOnUse" gradientTransform="matrix(110.44 0 0 111.144 -0.393754 -0.411776)">
<stop offset="0.5269" stop-color="#FFFFFF"/>
<stop offset="0.6544" stop-color="#FDFDFD"/>
<stop offset="0.7175" stop-color="#F5F5F5"/>
<stop offset="0.7182" stop-color="#F5F5F5"/>
<stop offset="0.8125" stop-color="#F2F2F2" stop-opacity="0.6653"/>
<stop offset="0.8845" stop-color="#E8E8E8" stop-opacity="0.41"/>
<stop offset="0.9488" stop-color="#D8D8D8" stop-opacity="0.1817"/>
<stop offset="1" stop-color="#C5C5C5" stop-opacity="0.01"/>
</radialGradient>
<path id="path0_fill" fill-rule="evenodd" d="M 60.8338 121.668C 94.4315 121.668 121.668 94.4315 121.668 60.8339C 121.668 27.2362 94.4315 0 60.8338 0C 27.2362 0 0 27.2362 0 60.8339C 0 94.4315 27.2362 121.668 60.8338 121.668Z"/>
<path id="path1_fill" fill-rule="evenodd" d="M 65.5 0C 29.3301 0 0 29.3301 0 65.5C 0 101.67 29.3301 131 65.5 131C 101.67 131 131 101.67 131 65.5C 131 29.3301 101.67 0 65.5 0ZM 65.4999 124.044C 33.1557 124.044 6.95569 97.8442 6.95569 65.5C 6.95569 33.1558 33.1557 6.95575 65.4999 6.95575C 97.8442 6.95575 124.044 33.1558 124.044 65.5C 124.044 97.8442 97.8152 124.044 65.4999 124.044Z"/>
<path id="path2_fill" fill-rule="evenodd" d="M 65.5 0C 29.3301 0 0 29.3301 0 65.5C 0 101.67 29.3301 131 65.5 131C 101.67 131 131 101.67 131 65.5C 131 29.3301 101.67 0 65.5 0ZM 65.5 127.899C 31.04 127.899 3.10107 99.96 3.10107 65.5C 3.10107 31.04 31.04 3.1011 65.5 3.1011C 99.9599 3.1011 127.899 31.04 127.899 65.5C 127.899 99.96 99.9599 127.899 65.5 127.899Z"/>
<path id="path3_fill" fill-rule="evenodd" d="M 1.27522 2.55044C 1.97951 2.55044 2.55044 1.97951 2.55044 1.27522C 2.55044 0.570936 1.97951 0 1.27522 0C 0.570936 0 0 0.570936 0 1.27522C 0 1.97951 0.570936 2.55044 1.27522 2.55044Z"/>
<path id="path4_fill" fill-rule="evenodd" d="M 1.15929 2.31858C 1.79955 2.31858 2.31858 1.79955 2.31858 1.15929C 2.31858 0.519033 1.79955 0 1.15929 0C 0.519033 0 0 0.519033 0 1.15929C 0 1.79955 0.519033 2.31858 1.15929 2.31858Z"/>
<path id="path5_fill" fill-rule="evenodd" d="M 1.44912 1.3042L 0.840487 0.724558L 1.44912 0.144911L 1.3042 0L 0.724558 0.579646L 0.115929 0L 0 0.144911L 0.579646 0.724558L 0 1.3042L 0.115929 1.44912L 0.724558 0.869469L 1.3042 1.44912L 1.44912 1.3042Z"/>
<path id="path6_fill" fill-rule="evenodd" d="M 0 0.144911L 0.579646 0.724558L 0 1.3042L 0.144912 1.44912L 0.724558 0.869469L 1.3042 1.44912L 1.44912 1.3042L 0.869469 0.724558L 1.44912 0.144911L 1.3042 0L 0.724558 0.579646L 0.144912 0L 0 0.144911Z"/>
<path id="path7_fill" fill-rule="evenodd" d="M 1.3042 0L 0.724558 0.579646L 0.115929 0L 0 0.144911L 0.579646 0.724558L 0 1.3042L 0.115929 1.44912L 0.724558 0.869469L 1.3042 1.44912L 1.44912 1.3042L 0.840487 0.724558L 1.44912 0.144911L 1.3042 0Z"/>
<path id="path8_fill" fill-rule="evenodd" d="M 0.144912 1.44912L 0.724558 0.869469L 1.3042 1.44912L 1.44912 1.3042L 0.869469 0.724558L 1.44912 0.144911L 1.3042 0L 0.724558 0.579646L 0.144912 0L 0 0.144911L 0.579646 0.724558L 0 1.3042L 0.144912 1.44912Z"/>
<path id="path9_fill" fill-rule="evenodd" d="M 1.85487 0.811504L 1.01438 0.811504L 1.01438 0L 0.840487 0L 0.840487 0.811504L 0 0.811504L 0 1.01438L 0.840487 1.01438L 0.840487 1.85487L 1.01438 1.85487L 1.01438 1.01438L 1.85487 1.01438L 1.85487 0.811504Z"/>
<path id="path10_fill" fill-rule="evenodd" d="M 0 1.04336L 0.811504 1.04336L 0.811504 1.85487L 1.01438 1.85487L 1.01438 1.04336L 1.85487 1.04336L 1.85487 0.840487L 1.01438 0.840487L 1.01438 0L 0.811504 0L 0.811504 0.840487L 0 0.840487L 0 1.04336Z"/>
<path id="path11_fill" fill-rule="evenodd" d="M 0.840487 0L 0.840487 0.840487L 0 0.840487L 0 1.01438L 0.840487 1.01438L 0.840487 1.85487L 1.04336 1.85487L 1.04336 1.01438L 1.88385 1.01438L 1.88385 0.840487L 1.04336 0.840487L 1.04336 0L 0.840487 0Z"/>
<path id="path12_fill" fill-rule="evenodd" d="M 1.01438 1.85487L 1.01438 1.01438L 1.85487 1.01438L 1.85487 0.840487L 1.01438 0.840487L 1.01438 0L 0.840487 0L 0.840487 0.840487L 0 0.840487L 0 1.01438L 0.840487 1.01438L 0.840487 1.85487L 1.01438 1.85487Z"/>
<path id="path13_fill" fill-rule="evenodd" d="M 58.5443 0.579651C 66.3695 0.579651 73.9629 2.11571 81.0925 5.12987C 87.9903 8.05708 94.1925 12.2305 99.5253 17.5633C 104.858 22.896 109.031 29.0982 111.959 35.996C 114.973 43.1546 116.509 50.719 116.509 58.5443C 116.509 66.3695 114.973 73.9628 111.959 81.0925C 109.031 87.9903 104.858 94.1925 99.5253 99.5252C 94.1925 104.858 87.9903 109.031 81.0925 111.959C 73.9339 114.973 66.3695 116.509 58.5443 116.509C 50.7191 116.509 43.1257 114.973 35.9961 111.959C 29.0983 109.031 22.8961 104.858 17.5633 99.5252C 12.2306 94.1925 8.05715 87.9903 5.12993 81.0925C 2.11577 73.9628 0.579712 66.3695 0.579712 58.5443C 0.579712 50.719 2.11577 43.1257 5.12993 35.996C 8.05715 29.0982 12.2306 22.896 17.5633 17.5633C 22.8961 12.2305 29.0983 8.05708 35.9961 5.12987C 43.1257 2.11571 50.7191 0.579651 58.5443 0.579651L 58.5443 0.579651ZM 58.5442 0C 26.2 0 0 26.2 0 58.5442C 0 90.8885 26.2 117.088 58.5442 117.088C 90.8885 117.088 117.088 90.8885 117.088 58.5442C 117.088 26.2 90.8595 0 58.5442 0L 58.5442 0Z"/>
<path id="path14_fill" fill-rule="evenodd" d="M 103.873 52.2261L 103.873 52.0812C 103.873 52.0522 103.873 51.9942 103.873 51.9653C 103.873 51.9363 103.873 51.8783 103.873 51.8493L 103.873 51.7044L 103.873 51.7044C 103.815 39.1841 99.3223 27.7071 91.9029 18.7805L 91.9029 18.7805L 91.5841 18.3748L 91.5841 18.3748C 90.7146 17.3604 89.8162 16.375 88.8597 15.4186L 88.8597 15.4186L 88.7148 15.2737C 88.6858 15.2447 88.6569 15.2157 88.6279 15.1867L 88.483 15.0418L 88.483 15.0418C 87.5265 14.1144 86.5412 13.1869 85.5268 12.3175L 85.5268 12.3175L 85.121 11.9987L 85.121 11.9987L 85.121 11.9987L 85.121 11.9987C 77.2668 5.47765 67.4708 1.21726 56.7184 0.231858L 56.7184 0.231858L 56.1967 0.173894L 56.1967 0.173894C 54.8635 0.0579646 53.5303 0 52.1971 0L 52.1971 0L 51.6754 0L 51.6754 0C 50.3133 0 48.9801 0.0579646 47.6759 0.173894L 47.6759 0.173894L 47.1542 0.231858L 47.1542 0.231858C 36.4018 1.21726 26.6058 5.47765 18.7515 11.9987L 18.7515 11.9987L 18.7515 11.9987L 18.7515 11.9987L 18.3458 12.3175L 18.3458 12.3175C 17.3314 13.1869 16.346 14.0854 15.3896 15.0418L 15.3896 15.0418L 15.2447 15.1867C 15.2157 15.2157 15.1867 15.2447 15.1577 15.2737L 15.0128 15.4186L 15.0128 15.4186C 14.0854 16.375 13.158 17.3604 12.2885 18.3748L 12.2885 18.3748L 11.9697 18.7805L 11.9697 18.7805C 4.55022 27.7071 0.0579646 39.1841 0 51.7044L 0 51.7044L 0 51.8204C 0 51.8783 0 51.9073 0 51.9653C 0 52.0232 0 52.0522 0 52.1102L 0 52.2261L 0 52.2261C 0.0579646 64.8624 4.63717 76.3973 12.1726 85.3819L 12.3175 85.5558L 12.3175 85.5558C 13.1869 86.5701 14.0854 87.5555 15.0418 88.5119L 15.0418 88.5119L 15.0708 88.5409C 15.1577 88.6279 15.2737 88.7438 15.3606 88.8307L 15.3896 88.8597L 15.3896 88.8597C 16.346 89.7872 17.3314 90.7146 18.3458 91.5841L 18.3458 91.5841L 18.3458 91.5841L 18.3458 91.5841L 18.7515 91.9029L 18.7515 91.9029C 27.6781 99.3223 39.1551 103.815 51.6754 103.873L 51.6754 103.873L 51.8783 103.873C 51.9073 103.873 51.9073 103.873 51.9363 103.873C 51.9653 103.873 51.9653 103.873 51.9942 103.873L 52.1971 103.873L 52.1971 103.873L 52.1971 103.873L 52.1971 103.873C 64.7175 103.815 76.1945 99.3223 85.121 91.9029L 85.121 91.9029L 85.5268 91.5841L 85.5268 91.5841L 85.5268 91.5841L 85.5268 91.5841C 86.5412 90.7146 87.5265 89.8161 88.483 88.8597L 88.483 88.8597L 88.5119 88.8018C 88.5989 88.7148 88.6858 88.6279 88.8018 88.5119L 88.8597 88.454L 88.8597 88.454C 89.7872 87.4976 90.7146 86.5122 91.5841 85.4978L 91.5841 85.4978L 91.7869 85.2659C 99.2644 76.3394 103.786 64.8044 103.873 52.2261L 103.873 52.2261ZM 103.176 56.1967L 100.278 55.9358L 100.22 56.4575L 103.118 56.7184C 103.002 58.0515 102.828 59.3558 102.596 60.66L 99.7271 60.1383L 99.7271 60.1383L 96.9159 59.6456L 96.8289 60.1383L 102.509 61.1527C 102.278 62.4569 101.988 63.7611 101.669 65.0363L 98.8287 64.2827L 98.6838 64.7754L 101.524 65.529C 101.176 66.8042 100.771 68.0794 100.336 69.3257L 97.5825 68.3113L 97.4086 68.804L 100.162 69.8184C 99.6982 71.0646 99.2055 72.2819 98.6548 73.4991L 95.9884 72.2529L 95.7566 72.7166L 98.4229 73.9628C 97.8433 75.1511 97.2347 76.3394 96.5681 77.4987L 94.0176 76.0206L 94.0176 76.0206L 91.5541 74.6004L 91.2933 75.0352L 96.3072 77.9334C 95.6406 79.0637 94.9161 80.194 94.1625 81.2664L 91.757 79.5854L 91.4672 80.0201L 93.8727 81.7011C 93.1192 82.7734 92.3077 83.8168 91.4382 84.8602L 89.2066 82.9763L 88.8878 83.3821L 91.1194 85.2659C 90.2789 86.2803 89.3805 87.2367 88.424 88.1931L 86.3663 86.1354L 85.9895 86.5122L 88.0473 88.5699C 87.0909 89.4973 86.1344 90.3958 85.1201 91.2653L 83.2362 89.0336L 83.2362 89.0336L 81.4103 86.86L 81.0046 87.1788L 84.7143 91.5841C 83.6999 92.4246 82.6566 93.2361 81.5552 94.0186L 79.8743 91.6131L 79.4395 91.9029L 81.1205 94.3084C 80.0192 95.0619 78.9178 95.7865 77.7875 96.4531L 76.3094 93.9026L 75.8747 94.1635L 77.3528 96.7139C 76.1935 97.3805 75.0342 97.9892 73.817 98.5688L 72.5707 95.9024L 72.107 96.1343L 73.3532 98.8007C 72.136 99.3513 70.9187 99.873 69.6725 100.308L 68.6581 97.5544L 68.6581 97.5544L 67.6727 94.8591L 67.18 95.033L 69.1508 100.482C 67.9046 100.916 66.6294 101.322 65.3541 101.67L 64.6006 98.8296L 64.1079 98.9746L 64.8614 101.815C 63.5862 102.163 62.282 102.423 60.9778 102.655L 60.4561 99.7861L 59.9634 99.873L 60.4851 102.742C 59.1809 102.974 57.8767 103.119 56.5435 103.264L 56.2827 100.366L 55.761 100.424L 56.0218 103.322C 54.7176 103.438 53.3844 103.496 52.0513 103.496L 52.0513 100.598L 52.0513 97.7283L 51.5296 97.7283L 51.5296 103.496C 50.1964 103.496 48.8632 103.438 47.559 103.322L 47.8198 100.424L 47.2982 100.366L 47.0373 103.264C 45.7041 103.148 44.3999 102.974 43.0957 102.742L 43.5884 99.873L 43.0957 99.7861L 42.574 102.655C 41.2698 102.423 39.9656 102.134 38.6904 101.815L 39.444 98.9746L 38.9513 98.8296L 38.1977 101.67C 36.9225 101.322 35.6473 100.916 34.401 100.482L 34.459 100.366L 36.4008 95.0619L 35.9081 94.8881L 34.9227 97.5834L 34.9227 97.5834L 34.3141 99.2644L 33.9373 100.337C 32.6911 99.873 31.4738 99.3803 30.2566 98.8296L 31.5028 96.1633L 31.0391 95.9314L 29.7929 98.5978C 28.6046 98.0181 27.4163 97.4095 26.257 96.7429L 27.7351 94.1925L 27.3004 93.9316L 25.8223 96.4821C 24.692 95.8155 23.5617 95.0909 22.4893 94.3374L 24.1703 91.9319L 23.7356 91.642L 22.0546 94.0476C 20.9822 93.294 19.9389 92.4825 18.8955 91.6131L 22.6052 87.2077L 22.1995 86.8889L 20.3736 89.0626L 20.3736 89.0626L 18.4898 91.2942C 17.4754 90.4538 16.519 89.5553 15.5625 88.5989L 17.6203 86.5411L 17.2435 86.1644L 15.1858 88.2221C 14.2583 87.2657 13.3599 86.3093 12.4904 85.2949L 14.7221 83.4111L 14.4033 83.0053L 12.1716 84.8892C 11.3311 83.8748 10.5196 82.8314 9.7371 81.7301L 12.1426 80.0491L 11.8528 79.6144L 9.44728 81.2953C 8.69374 80.194 7.96918 79.0927 7.30259 77.9624L 12.3165 75.0642L 12.0557 74.6294L 9.59219 76.0496L 9.59219 76.0496L 7.04175 77.5276C 6.37515 76.3684 5.76653 75.2091 5.18688 73.9918L 7.85325 72.7456L 7.62139 72.2819L 4.95502 73.5281C 4.40436 72.3108 3.88268 71.0936 3.44794 69.8473L 6.20126 68.833L 6.02737 68.3403L 3.27405 69.3546C 2.83931 68.1084 2.43356 66.8332 2.08577 65.558L 4.92604 64.8044L 4.78113 64.3117L 1.94086 65.0653C 1.59307 63.79 1.33223 62.4858 1.10037 61.1816L 6.78091 60.1673L 6.69396 59.6746L 3.88268 60.1673L 3.88268 60.1673L 1.01343 60.6889C 0.781569 59.3847 0.636658 58.0805 0.491746 56.7473L 3.38998 56.4865L 3.33201 55.9648L 0.433781 56.2257C 0.317852 54.9215 0.259888 53.5883 0.259888 52.2551L 3.15812 52.2551L 3.15812 51.7334L 0.259888 51.7334C 0.259888 50.4002 0.317852 49.067 0.433781 47.7628L 3.33201 48.0237L 3.38998 47.502L 0.491746 47.2411C 0.607675 45.908 0.781569 44.6038 1.01343 43.2996L 6.69396 44.3139L 6.78091 43.8212L 3.96962 43.3285L 3.96962 43.3285L 1.10037 42.8069C 1.33223 41.5027 1.62206 40.1985 1.94086 38.9232L 4.78113 39.6768L 4.92604 39.1841L 2.08577 38.4305C 2.43356 37.1553 2.83931 35.8801 3.27405 34.6338L 6.02737 35.6482L 6.20126 35.1555L 3.44794 34.1411C 3.91166 32.8949 4.40436 31.6777 4.95502 30.4604L 7.62139 31.7066L 7.85325 31.2429L 5.18688 29.9967C 5.76653 28.8084 6.37515 27.6201 7.04175 26.4898L 12.0557 29.3881L 12.3165 28.9533L 9.85303 27.5332L 9.85303 27.5332L 7.30259 26.0551C 7.96918 24.9248 8.69374 23.7945 9.44728 22.7221L 11.8528 24.4031L 12.1426 23.9684L 9.7371 22.2874C 10.4906 21.215 11.3021 20.1717 12.1716 19.1283L 14.4033 21.0122L 14.7221 20.6064L 12.4904 18.7226C 13.3309 17.7082 14.2294 16.7518 15.1858 15.7954L 17.2435 17.8531L 17.6203 17.4763L 15.5625 15.4186C 16.519 14.4911 17.4754 13.5927 18.4898 12.7232L 22.1995 17.1285L 22.6052 16.8097L 20.7794 14.6361L 20.7794 14.6361L 18.8955 12.4044C 19.9099 11.5639 20.9533 10.7524 22.0546 9.96991L 23.7356 12.3754L 24.1703 12.0856L 22.4893 9.68009C 23.5906 8.92655 24.692 8.20199 25.8223 7.5354L 27.3004 10.0569L 27.7351 9.79602L 26.257 7.24557C 27.4163 6.57898 28.5756 5.97035 29.7929 5.39071L 31.0391 8.05708L 31.5028 7.82522L 30.2566 5.15885C 31.4738 4.60818 32.6911 4.0865 33.9373 3.65177L 35.9081 9.10044L 36.4008 8.92655L 35.4154 6.23119L 35.4154 6.23119L 34.401 3.47787C 35.6473 3.04314 36.9225 2.63739 38.1977 2.2896L 38.9513 5.12987L 39.444 4.98495L 38.6904 2.14469C 39.9656 1.7969 41.2698 1.53606 42.574 1.3042L 43.0957 4.17345L 43.5884 4.0865L 43.0667 1.21725C 44.371 0.985396 45.6752 0.840484 47.0083 0.695573L 47.2692 3.5938L 47.7909 3.53584L 47.53 0.637608C 48.8342 0.521679 50.1674 0.463715 51.5006 0.463715L 51.5006 3.36194L 51.5006 6.23119L 52.0223 6.23119L 52.0223 3.36194L 52.0223 0.463715C 53.3555 0.463715 54.6886 0.521679 55.9928 0.637608L 55.732 3.53584L 56.2537 3.5938L 56.5145 0.695573C 57.8477 0.811502 59.1519 0.985396 60.4561 1.21725L 59.9634 4.0865L 60.4561 4.17345L 60.9778 1.3042C 62.282 1.53606 63.5862 1.82588 64.8614 2.14469L 64.1079 4.98495L 64.6006 5.12987L 65.3541 2.2896C 66.6294 2.63739 67.9046 3.04314 69.1508 3.47787L 67.18 8.92655L 67.6727 9.10044L 68.6581 6.40509L 68.6581 6.40509L 69.6725 3.65177C 70.9187 4.11548 72.136 4.60818 73.3532 5.15885L 72.107 7.82522L 72.5707 8.0281L 73.817 5.36172C 75.0052 5.94137 76.1935 6.55 77.3528 7.21659L 75.8747 9.76703L 76.3094 10.0279L 77.7586 7.50641C 78.8889 8.17301 80.0192 8.89756 81.0915 9.6511L 79.4106 12.0566L 79.8453 12.3465L 81.5263 9.94093C 82.5986 10.6945 83.642 11.506 84.6853 12.3754L 80.9756 16.7808L 81.3813 17.0996L 83.2072 14.8969L 83.2072 14.8969L 84.6274 13.1869L 85.0621 12.6653C 86.0765 13.5057 87.0329 14.4042 87.9893 15.3606L 85.9316 17.4184L 86.3083 17.7951L 88.3661 15.7374C 89.2935 16.6938 90.192 17.6502 91.0614 18.6646L 88.8298 20.5484L 89.1486 20.9542L 91.3802 19.0704C 92.2207 20.0847 93.0322 21.1281 93.8148 22.2294L 91.4092 23.9104L 91.699 24.3451L 94.1046 22.6642C 94.8581 23.7655 95.5827 24.8668 96.2493 25.9971L 91.2353 28.8954L 91.4962 29.3301L 93.9597 27.91L 93.9597 27.91L 96.5101 26.4319C 97.1767 27.5911 97.7853 28.7504 98.365 29.9677L 95.6986 31.2139L 95.9305 31.6777L 98.5968 30.4314C 99.1475 31.6487 99.6692 32.8659 100.104 34.1122L 97.3506 35.1265L 97.5245 35.6192L 100.278 34.6049C 100.713 35.8511 101.118 37.1263 101.466 38.4015L 98.6258 39.1551L 98.7707 39.6478L 101.611 38.8942C 101.959 40.1695 102.22 41.4737 102.451 42.7779L 100.539 43.1257L 96.771 43.7923L 96.8579 44.285L 99.6692 43.7923L 99.6692 43.7923L 100.626 43.6184L 102.538 43.2706C 102.77 44.5748 102.915 45.879 103.06 47.2122L 100.162 47.473L 100.22 47.9947L 103.118 47.7338C 103.234 49.0381 103.292 50.3712 103.292 51.7044L 100.394 51.7044L 100.394 52.2261L 103.292 52.2261C 103.35 53.5593 103.292 54.8635 103.176 56.1967Z"/>
<path id="path15_fill" fill-rule="evenodd" d="M 1.07235 0C 1.85487 0 2.14469 0.666593 2.14469 1.50708C 2.14469 2.34757 1.85487 3.01416 1.07235 3.01416C 0.289823 3.01416 0 2.34757 0 1.50708C 0 0.666593 0.289823 0 1.07235 0ZM 1.07227 2.57941C 1.39108 2.57941 1.62293 2.31857 1.62293 1.50707C 1.62293 0.695564 1.39108 0.434723 1.07227 0.434723C 0.753465 0.434723 0.521606 0.695564 0.521606 1.50707C 0.521606 2.31857 0.753465 2.57941 1.07227 2.57941Z"/>
<path id="path16_fill" fill-rule="evenodd" d="M 0.782522 1.32931C 1.18827 1.1844 1.50708 1.0105 1.39115 0.662716C 1.33319 0.45984 1.10133 0.401875 0.869469 0.488822C 0.637611 0.575769 0.521681 0.749663 0.434735 0.952539L 0 0.778645C 0.173894 0.401875 0.405752 0.198999 0.695575 0.0830699C 1.18827 -0.0908239 1.68097 -0.00387698 1.85487 0.45984C 1.94181 0.720681 1.88385 0.981521 1.65199 1.21338C 2.02876 1.1844 2.2896 1.38727 2.40553 1.73506C 2.60841 2.31471 2.23164 2.74944 1.73894 2.92334C 1.36217 3.06825 0.898451 3.03926 0.579646 2.74944L 0.898451 2.37267C 1.10133 2.54657 1.33319 2.60453 1.59403 2.51758C 1.82588 2.43064 2.02876 2.19878 1.91283 1.93794C 1.73894 1.47422 1.24624 1.64811 0.898451 1.76404L 0.782522 1.32931Z"/>
<path id="path17_fill" fill-rule="evenodd" d="M 0 2.26062L 0.579646 0.202876L 1.13031 0L 1.76792 1.73894L 2.14469 1.59403L 2.26062 1.9708L 1.88385 2.11571L 2.11571 2.75332L 1.65199 2.92721L 1.42013 2.2896L 0.173894 2.75332L 0 2.26062ZM 1.2753 1.91284L 0.840567 0.695587L 0.840567 0.695587L 0.434814 2.23165L 1.2753 1.91284Z"/>
<path id="path18_fill" fill-rule="evenodd" d="M 0.65562 0.0678524C 1.38018 -0.192988 1.87288 0.328693 2.1627 1.11122C 2.45252 1.89374 2.39456 2.61829 1.67 2.87914C 0.945443 3.13998 0.452744 2.61829 0.162921 1.83577C -0.126902 1.08223 -0.0689377 0.357675 0.65562 0.0678524ZM 1.52515 2.50238C 1.81498 2.38645 1.93091 2.06764 1.67007 1.3141C 1.40923 0.560565 1.09042 0.386671 0.800597 0.5026C 0.510774 0.618529 0.394845 0.937335 0.655686 1.69087C 0.945509 2.44441 1.23533 2.61831 1.52515 2.50238Z"/>
<path id="path19_fill" fill-rule="evenodd" d="M 0.898451 1.45802C 1.21726 1.1682 1.44912 0.907356 1.24624 0.646515C 1.10133 0.472622 0.898451 0.501604 0.695575 0.646515C 0.492699 0.791427 0.463717 1.02329 0.463717 1.22616L 0 1.19718C 0.0289823 0.791427 0.173894 0.501604 0.405752 0.298728C 0.811504 -0.0490599 1.3042 -0.136007 1.62301 0.269745C 1.7969 0.501604 1.82588 0.762445 1.68097 1.05227C 2.02876 0.907356 2.34757 0.994303 2.57942 1.28413C 2.98518 1.74784 2.75332 2.29851 2.34757 2.61731C 2.02876 2.87815 1.59403 2.99408 1.18827 2.84917L 1.36217 2.38545C 1.62301 2.4724 1.85487 2.44342 2.08673 2.26952C 2.2896 2.09563 2.37655 1.83479 2.20265 1.60293C 1.88385 1.22616 1.4781 1.57395 1.21726 1.80581L 0.898451 1.45802Z"/>
<path id="path20_fill" fill-rule="evenodd" d="M 1.51762 3.18454L 1.19881 2.80777C 0.966955 2.40202 1.60457 1.03985 1.25678 0.605114C 1.08288 0.402238 0.880008 0.402238 0.677132 0.576132C 0.445274 0.750026 0.445274 1.01087 0.561203 1.27171L 0.126468 1.50357C -0.10539 1.1268 -0.0184433 0.576132 0.387309 0.257326C 0.793061 -0.0614789 1.31474 -0.119444 1.66253 0.286309C 2.12625 0.836972 1.80744 1.47458 1.66253 2.45998L 2.73488 1.56153L 3.0247 1.90932L 1.51762 3.18454Z"/>
<path id="path21_fill" fill-rule="evenodd" d="M 0.350621 0.240494C 0.930267 -0.252205 1.59686 0.0666001 2.14752 0.704211C 2.69819 1.34182 2.90106 2.0374 2.29244 2.5301C 1.71279 3.02279 1.0462 2.70399 0.495532 2.06638C -0.026149 1.45775 -0.229025 0.762175 0.350621 0.240494ZM 2.00257 2.21129C 2.23443 2.00841 2.23443 1.66062 1.74173 1.052C 1.22005 0.443368 0.901245 0.385403 0.640404 0.58828C 0.408546 0.791156 0.408546 1.13894 0.901245 1.74757C 1.42293 2.3562 1.77071 2.44315 2.00257 2.21129Z"/>
<path id="path22_fill" fill-rule="evenodd" d="M 1.01809 1.45313C 1.22096 1.07636 1.36587 0.72857 1.04707 0.554676C 0.873176 0.438747 0.641317 0.525694 0.525388 0.757552C 0.409459 0.960428 0.438441 1.19229 0.496406 1.39516L 0.0616712 1.54007C -0.054258 1.13432 0.00370656 0.815517 0.148618 0.554676C 0.409459 0.0909592 0.844193 -0.140899 1.27893 0.0909592C 1.53977 0.235871 1.62672 0.496711 1.59773 0.786534C 1.85857 0.525694 2.20636 0.496711 2.52517 0.699588C 3.04685 1.01839 3.01787 1.59804 2.75703 2.03277C 2.55415 2.38056 2.17738 2.67038 1.74264 2.6414L 1.74264 2.1487C 2.03247 2.1487 2.23534 2.03277 2.38026 1.80091C 2.49618 1.56906 2.49618 1.27923 2.26433 1.13432C 1.85857 0.902464 1.56875 1.3372 1.39486 1.656L 1.01809 1.45313Z"/>
<path id="path23_fill" fill-rule="evenodd" d="M 0.138586 0.489741C 0.515356 -0.176852 1.23991 -0.0899051 1.96447 0.315847C 2.68903 0.721599 3.12376 1.33023 2.74699 1.99682C 2.37022 2.66341 1.64567 2.57647 0.921108 2.17071C 0.196551 1.76496 -0.238184 1.15633 0.138586 0.489741ZM 2.37025 1.79395C 2.54415 1.50413 2.39924 1.18532 1.70366 0.779569C 1.00808 0.373817 0.660297 0.431781 0.515386 0.721604C 0.341492 1.01143 0.486404 1.33023 1.18198 1.73599C 1.87755 2.11275 2.22534 2.05479 2.37025 1.79395Z"/>
<path id="path24_fill" fill-rule="evenodd" d="M 0.138586 0.489741C 0.515356 -0.176852 1.23991 -0.0899051 1.96447 0.315847C 2.68903 0.750582 3.12376 1.33023 2.74699 1.99682C 2.37022 2.66341 1.64567 2.57647 0.921108 2.17071C 0.196551 1.76496 -0.238184 1.15633 0.138586 0.489741ZM 2.37025 1.79395C 2.54415 1.50413 2.39924 1.18532 1.70366 0.779569C 1.00808 0.373817 0.660297 0.431781 0.515386 0.721604C 0.341492 1.01143 0.486404 1.33023 1.18198 1.73599C 1.87755 2.11275 2.22534 2.05479 2.37025 1.79395Z"/>
<path id="path25_fill" fill-rule="evenodd" d="M 2.71201 2.33965L 2.2483 2.2527C 1.81356 2.07881 1.40781 0.629691 0.886128 0.542744C 0.625287 0.48478 0.451394 0.629691 0.422411 0.890532C 0.364447 1.18035 0.538341 1.38323 0.799181 1.49916L 0.625287 1.93389C 0.190553 1.78898 -0.0702877 1.32527 0.0166592 0.803585C 0.103606 0.281904 0.480376 -0.0948663 1.00206 0.0210629C 1.69763 0.136992 1.87153 0.832567 2.42219 1.67305L 2.65405 0.310886L 3.08878 0.397833L 2.71201 2.33965Z"/>
<path id="path26_fill" fill-rule="evenodd" d="M 1.50779 0.621881C 1.71066 0.303075 2.00049 0.100199 2.40624 0.187146C 2.86996 0.274093 3.10181 0.795775 3.01487 1.4044C 2.89894 2.01303 2.52217 2.41878 2.02947 2.33184C 1.62372 2.27387 1.42084 1.98405 1.33389 1.60728C 1.13102 1.86812 0.928142 2.01303 0.580354 1.95507C 0.14562 1.86812 -0.0862384 1.46237 0.0296908 0.853739C 0.14562 0.274093 0.493408 -0.0736945 0.928142 0.0132524C 1.27593 0.071217 1.42084 0.303075 1.50779 0.621881ZM 0.696247 1.43337C 0.957087 1.49134 1.18895 1.20151 1.21793 1.0566C 1.24691 0.91169 1.07302 0.563903 0.870141 0.53492C 0.667264 0.505938 0.522353 0.592885 0.464388 0.91169C 0.377441 1.25948 0.493371 1.40439 0.696247 1.43337ZM 2.29028 0.679854C 2.02944 0.621889 1.68166 1.05662 1.65267 1.17255C 1.62369 1.28848 1.79759 1.72322 2.08741 1.78118C 2.34825 1.83915 2.55113 1.66525 2.60909 1.31746C 2.66705 0.940694 2.55113 0.737818 2.29028 0.679854Z"/>
<path id="path27_fill" fill-rule="evenodd" d="M 0.0141909 0.829223C 0.159102 0.0756835 0.854678 -0.0982104 1.69516 0.0467011C 2.53565 0.191613 3.1153 0.597365 2.99937 1.3509C 2.85446 2.10444 2.15888 2.27834 1.31839 2.13343C 0.50689 1.98852 -0.101738 1.58276 0.0141909 0.829223ZM 2.56471 1.26395C 2.62267 0.945145 2.39082 0.684304 1.60829 0.539392C 0.825772 0.394481 0.506966 0.568375 0.449002 0.88718C 0.391037 1.20599 0.622896 1.46683 1.40542 1.61174C 2.18794 1.75665 2.50675 1.58276 2.56471 1.26395Z"/>
<path id="path28_fill" fill-rule="evenodd" d="M 3.12048 1.91283L 2.65676 1.99978C 2.19304 1.99978 1.32358 0.782522 0.772912 0.869469C 0.512071 0.927434 0.396142 1.10133 0.454106 1.36217C 0.512071 1.65199 0.714947 1.7969 1.00477 1.7969L 0.975788 2.2896C 0.512071 2.31858 0.106319 1.94181 0.0193717 1.44912C -0.0675752 0.927434 0.135301 0.463717 0.685965 0.37677C 1.38154 0.260841 1.78729 0.840487 2.56981 1.44912L 2.33796 0.0869469L 2.77269 0L 3.12048 1.91283Z"/>
<path id="path29_fill" fill-rule="evenodd" d="M 0.573996 0.600602C 0.487049 0.745514 0.429085 0.919408 0.458067 1.12228C 0.516032 1.52804 0.979748 1.75989 1.47245 1.67295C 1.26957 1.52804 1.18262 1.32516 1.12466 1.06432C 1.03771 0.542638 1.35652 0.107903 1.90718 0.0209564C 2.51581 -0.0949728 2.95054 0.281797 3.03749 0.861443C 3.15342 1.47007 2.77665 1.96277 1.90718 2.13666C 0.892802 2.31056 0.168244 1.96277 0.0233325 1.18025C -0.0346321 0.890425 0.0233325 0.658567 0.110279 0.426709L 0.573996 0.600602ZM 1.58844 1.12227C 1.61742 1.35413 1.76233 1.49904 1.99419 1.58599C 2.48689 1.49904 2.6318 1.18024 2.60282 0.919395C 2.54485 0.629572 2.31299 0.48466 2.02317 0.542625C 1.70437 0.600589 1.53047 0.803465 1.58844 1.12227Z"/>
<path id="path30_fill" fill-rule="evenodd" d="M 0.0213893 1.3509C -0.123522 0.597365 0.485106 0.191613 1.32559 0.0467011C 2.16608 -0.0982104 2.86165 0.0756835 3.00657 0.829223C 3.15148 1.58276 2.54285 1.98852 1.70236 2.13343C 0.861876 2.30732 0.137319 2.13343 0.0213893 1.3509ZM 2.54286 0.916172C 2.48489 0.597366 2.19507 0.423473 1.38357 0.568384C 0.601045 0.713296 0.369187 0.974136 0.427151 1.29294C 0.485116 1.61175 0.774939 1.78564 1.58644 1.64073C 2.36897 1.49582 2.60082 1.23498 2.54286 0.916172Z"/>
<path id="path31_fill" fill-rule="evenodd" d="M 3.23489 1.68097L 2.82914 1.91283C 2.3944 2.05774 1.14817 1.21726 0.684449 1.4781C 0.45259 1.59403 0.423608 1.82588 0.539537 2.05774C 0.684449 2.31858 0.94529 2.34757 1.20613 2.2896L 1.35104 2.75332C 0.916307 2.92721 0.423608 2.72434 0.162767 2.2896C -0.0980733 1.85487 -0.069091 1.3042 0.423608 1.04336C 1.03224 0.695575 1.61188 1.10133 2.5683 1.42013L 1.87272 0.231858L 2.27848 0L 3.23489 1.68097Z"/>
<path id="path32_fill" fill-rule="evenodd" d="M 2.43451 2.17367L 0.289823 1.9708L 0 1.4781L 1.59403 0.550664L 1.39115 0.202876L 1.73894 0L 1.94181 0.347788L 2.52146 0L 2.7823 0.434735L 2.20265 0.782522L 2.86925 1.91283L 2.43451 2.17367ZM 1.88385 0.985413L 0.75354 1.65201L 0.75354 1.65201L 2.34757 1.79692L 1.88385 0.985413Z"/>
<path id="path33_fill" fill-rule="evenodd" d="M 0.142827 2.00817C -0.233943 1.34158 0.171809 0.761936 0.925349 0.327201C 1.64991 -0.107533 2.37446 -0.165498 2.75123 0.501095C 3.128 1.16769 2.72225 1.74733 1.96871 2.18207C 1.24415 2.58782 0.519596 2.67477 0.142827 2.00817ZM 2.37457 0.703965C 2.20068 0.414142 1.88187 0.356178 1.1863 0.76193C 0.490721 1.16768 0.374792 1.48649 0.519704 1.77631C 0.693597 2.06613 1.0124 2.1241 1.70798 1.71835C 2.40355 1.31259 2.51948 0.993788 2.37457 0.703965Z"/>
<path id="path34_fill" fill-rule="evenodd" d="M 3.11664 1.27522L 2.79784 1.65199C 2.42107 1.94181 0.971953 1.56504 0.624165 1.9708C 0.450271 2.17367 0.479254 2.37655 0.68213 2.55044C 0.913988 2.72434 1.17483 2.69535 1.37771 2.52146L 1.66753 2.89823C 1.31974 3.21704 0.798059 3.18805 0.392307 2.86925C -0.0134454 2.55044 -0.158357 2.02876 0.218413 1.62301C 0.68213 1.07235 1.37771 1.27522 2.3631 1.24624L 1.29076 0.347788L 1.58058 0L 3.11664 1.27522Z"/>
<path id="path35_fill" fill-rule="evenodd" d="M 0.350621 2.5301C -0.229025 2.0374 -0.026149 1.34182 0.495532 0.704211C 1.0462 0.0666001 1.68381 -0.252205 2.29243 0.240494C 2.87208 0.733193 2.6692 1.42877 2.14752 2.06638C 1.59686 2.70399 0.959249 3.02279 0.350621 2.5301ZM 2.0025 0.559288C 1.77064 0.356412 1.42285 0.414376 0.901169 1.023C 0.379488 1.63163 0.379488 1.97942 0.640328 2.1823C 0.872187 2.38517 1.21997 2.32721 1.74166 1.71858C 2.26334 1.10995 2.26334 0.762164 2.0025 0.559288Z"/>
<path id="path36_fill" fill-rule="evenodd" d="M 2.6302 0.695575L 2.45631 1.15929C 2.22445 1.56504 0.717372 1.70996 0.543479 2.20265C 0.456532 2.43451 0.572461 2.63739 0.804319 2.72434C 1.06516 2.81128 1.29702 2.69535 1.47091 2.4635L 1.87666 2.72434C 1.67379 3.13009 1.15211 3.30398 0.659408 3.13009C 0.166709 2.95619 -0.123114 2.52146 0.0507794 1.99978C 0.282638 1.33319 1.0072 1.27522 1.93463 0.898451L 0.630425 0.434735L 0.775337 0L 2.6302 0.695575Z"/>
<path id="path37_fill" fill-rule="evenodd" d="M 0.65562 2.87914C -0.0689377 2.61829 -0.126902 1.89374 0.162921 1.11122C 0.452744 0.328693 0.945443 -0.192988 1.67 0.0678524C 2.39456 0.328693 2.45252 1.05325 2.1627 1.83577C 1.87288 2.61829 1.38018 3.13998 0.65562 2.87914ZM 1.52504 0.473608C 1.23521 0.357679 0.91641 0.531573 0.655569 1.28511C 0.394728 2.03865 0.481675 2.35746 0.80048 2.47339C 1.0903 2.58932 1.40911 2.41542 1.66995 1.66188C 1.93079 0.908343 1.81486 0.589537 1.52504 0.473608Z"/>
<path id="path38_fill" fill-rule="evenodd" d="M 0.65562 2.87914C -0.0689377 2.61829 -0.126902 1.89374 0.162921 1.11122C 0.452744 0.328693 0.945443 -0.192988 1.67 0.0678524C 2.39456 0.328693 2.45252 1.05325 2.1627 1.83577C 1.90186 2.61829 1.38018 3.13998 0.65562 2.87914ZM 1.55409 0.473608C 1.26426 0.357679 0.945457 0.531573 0.684617 1.28511C 0.423776 2.03865 0.539705 2.35746 0.829528 2.47339C 1.11935 2.58932 1.43816 2.41542 1.699 1.66188C 1.95984 0.908343 1.84391 0.560555 1.55409 0.473608Z"/>
<path id="path39_fill" fill-rule="evenodd" d="M 1.44912 0L 1.44912 0.405752L 0.985398 0.405752L 0.985398 2.43451L 1.50708 2.43451L 1.50708 2.7823C 1.24624 2.7823 1.01438 2.86925 0.869469 2.98518L 0.463717 2.98518L 0.463717 0.405752L 0 0.405752L 0 0L 1.44912 0Z"/>
<path id="path40_fill" fill-rule="evenodd" d="M 0.579646 1.59403C 0.231858 1.44912 0 1.18827 0 0.782522C 0 0.289823 0.463717 0 1.10133 0C 1.70996 0 2.20265 0.318805 2.20265 0.782522C 2.20265 1.18827 1.9708 1.42013 1.62301 1.59403C 1.91283 1.73894 2.11571 1.94181 2.11571 2.2896C 2.11571 2.72434 1.73894 3.01416 1.13031 3.01416C 0.521681 3.01416 0.144912 2.72434 0.144912 2.2896C 0.0869469 1.91283 0.289823 1.73894 0.579646 1.59403ZM 0.521606 0.811505C 0.521606 1.07235 0.985323 1.33319 1.13023 1.33319C 1.24616 1.33319 1.65192 1.10133 1.65192 0.811505C 1.65192 0.550664 1.44904 0.37677 1.10125 0.37677C 0.6955 0.405752 0.521606 0.550664 0.521606 0.811505ZM 1.50702 2.26063C 1.50702 1.99979 1.2172 1.8259 1.04331 1.8259C 0.898395 1.8259 0.57959 2.05776 0.57959 2.26063C 0.57959 2.46351 0.695519 2.57944 1.04331 2.57944C 1.39109 2.60842 1.50702 2.46351 1.50702 2.26063Z"/>
<path id="path41_fill" fill-rule="evenodd" d="M 1.07235 3.01416C 0.289823 3.01416 0 2.34757 0 1.50708C 0 0.666593 0.289823 0 1.07235 0C 1.85487 0 2.14469 0.666593 2.14469 1.50708C 2.14469 2.34757 1.85487 3.01416 1.07235 3.01416ZM 1.07227 0.434723C 0.753465 0.434723 0.521606 0.695564 0.521606 1.50707C 0.521606 2.31857 0.753465 2.57941 1.07227 2.57941C 1.39108 2.57941 1.62293 2.31857 1.62293 1.50707C 1.62293 0.695564 1.39108 0.434723 1.07227 0.434723Z"/>
<path id="path42_fill" fill-rule="evenodd" d="M 1.33319 0L 1.4781 0.37677L 1.04336 0.521681L 1.73894 2.43451L 2.23164 2.26062L 2.34757 2.57942C 2.08673 2.69535 1.91283 2.81128 1.82588 2.98518L 1.44912 3.13009L 0.579646 0.724558L 0.144912 0.869469L 0 0.492699L 1.33319 0Z"/>
<path id="path43_fill" fill-rule="evenodd" d="M 0.876344 2.55788C 1.02126 2.61585 1.22413 2.64483 1.39803 2.58686C 1.7748 2.44195 1.94869 1.97823 1.7748 1.48554C 1.65887 1.71739 1.48497 1.83332 1.22413 1.92027C 0.731432 2.09416 0.238733 1.86231 0.0648394 1.34062C -0.138037 0.760978 0.151786 0.268279 0.70245 0.0654024C 1.2821 -0.137474 1.83276 0.123367 2.15157 0.963854C 2.49935 1.92027 2.29648 2.70279 1.54294 2.96363C 1.2821 3.05058 1.05024 3.05058 0.789397 2.99261L 0.876344 2.55788ZM 1.2241 1.48553C 1.45596 1.39859 1.57189 1.22469 1.60087 0.992835C 1.42698 0.529118 1.10817 0.413189 0.818352 0.529118C 0.557511 0.616065 0.441582 0.876906 0.557511 1.16673C 0.702422 1.45655 0.934281 1.60146 1.2241 1.48553Z"/>
<path id="path44_fill" fill-rule="evenodd" d="M 1.67 2.87914C 0.945443 3.13998 0.452744 2.61829 0.162921 1.83577C -0.126902 1.05325 -0.0689377 0.328693 0.65562 0.0678524C 1.38018 -0.192988 1.87288 0.328693 2.1627 1.11122C 2.42354 1.86476 2.39456 2.58931 1.67 2.87914ZM 0.771545 0.444617C 0.481722 0.560546 0.365792 0.879351 0.626633 1.63289C 0.887474 2.38643 1.20628 2.56032 1.4961 2.4444C 1.78593 2.32847 1.90185 2.00966 1.64101 1.25612C 1.38017 0.502581 1.09035 0.328687 0.771545 0.444617Z"/>
<path id="path45_fill" fill-rule="evenodd" d="M 1.07235 0L 1.33319 0.318805L 0.985398 0.608628L 2.2896 2.14469L 2.69535 1.7969L 2.92721 2.05774C 2.72434 2.23164 2.57942 2.43451 2.57942 2.63739L 2.26062 2.89823L 0.608628 0.927434L 0.260841 1.21726L 0 0.898451L 1.07235 0Z"/>
<path id="path46_fill" fill-rule="evenodd" d="M 2.14469 0.37677L 2.31858 2.52146L 1.88385 2.89823L 0.695575 1.4781L 0.37677 1.73894L 0.115929 1.42013L 0.434735 1.15929L 0 0.637611L 0.37677 0.318805L 0.811504 0.840487L 1.82588 0L 2.14469 0.37677ZM 1.04333 1.1593L 1.88382 2.17368L 1.88382 2.17368L 1.73891 0.579651L 1.04333 1.1593Z"/>
<path id="path47_fill" fill-rule="evenodd" d="M 2.31369 2.5301C 1.73404 3.02279 1.06745 2.70399 0.516784 2.06638C -0.0338792 1.42877 -0.236755 0.733193 0.371873 0.240494C 0.951519 -0.252205 1.61811 0.0666001 2.16878 0.704211C 2.71944 1.31284 2.92232 2.00841 2.31369 2.5301ZM 0.661767 0.559289C 0.429908 0.762165 0.429908 1.10995 0.922607 1.71858C 1.44429 2.32721 1.76309 2.38517 2.02393 2.1823C 2.28478 1.97942 2.25579 1.63163 1.76309 1.02301C 1.24141 0.414377 0.922607 0.32743 0.661767 0.559289Z"/>
<path id="path48_fill" fill-rule="evenodd" d="M 0.75354 0L 1.10133 0.202876L 0.869469 0.608628L 2.60841 1.62301L 2.86925 1.15929L 3.15907 1.33319C 3.04314 1.56504 2.95619 1.7969 3.01416 1.99978L 2.81128 2.34757L 0.579646 1.07235L 0.347788 1.44912L 0 1.24624L 0.75354 0Z"/>
<path id="path49_fill" fill-rule="evenodd" d="M 1.01438 0L 1.42013 0.231858C 1.76792 0.550664 1.65199 2.02876 2.11571 2.31858C 2.34757 2.43451 2.55044 2.37655 2.69535 2.14469C 2.84027 1.88385 2.75332 1.65199 2.55044 1.44912L 2.86925 1.10133C 3.21704 1.39115 3.33296 1.91283 3.07212 2.37655C 2.81128 2.81128 2.34757 3.04314 1.85487 2.7823C 1.24624 2.43451 1.3042 1.70996 1.10133 0.75354L 0.405752 1.94181L 0 1.70996L 1.01438 0Z"/>
<path id="path50_fill" fill-rule="evenodd" d="M 2.74699 1.99682C 2.37022 2.66341 1.64567 2.57647 0.921108 2.17071C 0.196551 1.73598 -0.238184 1.15633 0.138586 0.489741C 0.515356 -0.176852 1.23991 -0.0899051 1.96447 0.315847C 2.71801 0.721599 3.15275 1.33023 2.74699 1.99682ZM 0.515386 0.692605C 0.341492 0.982428 0.486404 1.30123 1.18198 1.70699C 1.87755 2.11274 2.22534 2.05477 2.37025 1.76495C 2.54415 1.47513 2.39924 1.15632 1.70366 0.750569C 1.03707 0.373799 0.68928 0.431764 0.515386 0.692605Z"/>
<path id="path51_fill" fill-rule="evenodd" d="M 0.231858 0L 0.637611 0.0579646L 0.550664 0.492699L 2.55044 0.840487L 2.63739 0.318805L 2.98518 0.37677C 2.95619 0.637611 2.95619 0.898451 3.07212 1.04336L 3.01416 1.44912L 0.492699 1.01438L 0.405752 1.44912L 0 1.39115L 0.231858 0Z"/>
<path id="path52_fill" fill-rule="evenodd" d="M 2.99993 1.3509C 2.85502 2.10444 2.15944 2.27834 1.31896 2.13343C 0.47847 1.98852 -0.101176 1.58276 0.0147531 0.829223C 0.159665 0.0756835 0.85524 -0.0982104 1.69573 0.0467011C 2.53621 0.16263 3.14484 0.568383 2.99993 1.3509ZM 0.478421 0.88718C 0.420456 1.20599 0.652314 1.46683 1.43484 1.61174C 2.21736 1.75665 2.53616 1.58276 2.59413 1.26395C 2.65209 0.945145 2.42023 0.684304 1.63771 0.539392C 0.826208 0.394481 0.536385 0.568375 0.478421 0.88718Z"/>
<path id="path53_fill" fill-rule="evenodd" d="M 2.99993 1.3509C 2.85502 2.10444 2.15944 2.27834 1.31896 2.13343C 0.47847 1.98852 -0.101176 1.58276 0.0147531 0.829223C 0.159665 0.0756835 0.85524 -0.0982104 1.69573 0.0467011C 2.53621 0.191613 3.14484 0.597365 2.99993 1.3509ZM 0.478543 0.887182C 0.420578 1.20599 0.652437 1.46683 1.43496 1.61174C 2.21748 1.75665 2.53629 1.58276 2.59425 1.26395C 2.65222 0.945147 2.42036 0.684306 1.63783 0.539395C 0.82633 0.423466 0.536507 0.59736 0.478543 0.887182Z"/>
<path id="path54_fill" fill-rule="evenodd" d="M 1.71037 1.5783C 1.62342 1.95507 1.42055 2.21591 1.0148 2.30285C 0.551079 2.3898 0.145327 1.98405 0.029398 1.37542C -0.0865312 0.766792 0.145327 0.245111 0.638026 0.158164C 1.04378 0.100199 1.30462 0.274093 1.53648 0.592898C 1.65241 0.274093 1.79732 0.071217 2.11612 0.0132524C 2.55086 -0.0736945 2.89865 0.274093 3.01457 0.853739C 3.1305 1.43339 2.89865 1.86812 2.46391 1.95507C 2.11612 1.98405 1.91325 1.81016 1.71037 1.5783ZM 0.956964 1.75218C 1.2178 1.69421 1.3917 1.20151 1.36272 1.08558C 1.33373 0.969653 1.04391 0.621866 0.754088 0.650848C 0.493247 0.708812 0.377318 0.911689 0.435283 1.28846C 0.493247 1.63625 0.696123 1.81014 0.956964 1.75218ZM 2.20309 0.505943C 1.94225 0.563907 1.82632 0.882713 1.8553 1.02762C 1.88428 1.17254 2.1741 1.43338 2.37698 1.40439C 2.57986 1.37541 2.69579 1.2305 2.63782 0.911695C 2.55087 0.563907 2.40596 0.476961 2.20309 0.505943Z"/>
<path id="path55_fill" fill-rule="evenodd" d="M 3.00657 0.829223C 3.15148 1.58276 2.54285 1.98852 1.70236 2.13343C 0.861876 2.27834 0.166301 2.10444 0.0213893 1.3509C -0.123522 0.597365 0.485106 0.191613 1.32559 0.0467011C 2.16608 -0.0982104 2.86165 0.0756835 3.00657 0.829223ZM 0.456082 1.29294C 0.514046 1.61175 0.80387 1.78564 1.61537 1.64073C 2.3979 1.49582 2.62975 1.23498 2.57179 0.916172C 2.51383 0.597366 2.224 0.423473 1.4125 0.568384C 0.629976 0.713296 0.398117 0.974136 0.456082 1.29294Z"/>
<path id="path56_fill" fill-rule="evenodd" d="M 2.55653 1.29178C 2.58551 1.14687 2.58551 0.943995 2.49856 0.770101C 2.29569 0.422314 1.80299 0.335367 1.36825 0.596207C 1.60011 0.683154 1.77401 0.828066 1.88994 1.05992C 2.15078 1.49466 2.00586 2.04532 1.51317 2.30616C 0.991484 2.59599 0.44082 2.39311 0.150997 1.90041C -0.167808 1.37873 0.00608544 0.770101 0.788608 0.335367C 1.68706 -0.186315 2.46958 -0.0993679 2.87533 0.596207C 3.02024 0.828066 3.04923 1.05992 3.04923 1.32076L 2.55653 1.29178ZM 1.42625 1.11789C 1.31032 0.915011 1.10745 0.828064 0.875589 0.828064C 0.440855 1.0889 0.411873 1.43669 0.556784 1.66855C 0.701696 1.90041 0.962536 1.98736 1.22338 1.81346C 1.5132 1.66855 1.60015 1.40771 1.42625 1.11789Z"/>
<path id="path57_fill" fill-rule="evenodd" d="M 2.75123 0.489741C 3.128 1.15633 2.72225 1.73598 1.96871 2.17071C 1.24415 2.57647 0.519596 2.66341 0.142827 1.99682C -0.233943 1.33023 0.171809 0.750582 0.925349 0.315847C 1.62092 -0.0899051 2.34548 -0.176852 2.75123 0.489741ZM 0.519627 1.79395C 0.693521 2.08377 1.01233 2.14174 1.7079 1.73599C 2.40348 1.33023 2.51941 1.01143 2.37449 0.721604C 2.2006 0.431781 1.8818 0.373817 1.18622 0.779569C 0.461663 1.18532 0.345734 1.50413 0.519627 1.79395Z"/>
<path id="path58_fill" fill-rule="evenodd" d="M 0.318805 0.521681L 2.40553 0L 2.84027 0.37677L 1.65199 1.7969L 1.9708 2.05774L 1.70996 2.37655L 1.39115 2.11571L 0.956416 2.63739L 0.579646 2.31858L 1.01438 1.7969L 0 0.956416L 0.318805 0.521681ZM 1.27529 1.4491L 2.11577 0.434723L 2.11577 0.434723L 0.579712 0.840475L 1.27529 1.4491Z"/>
<path id="path59_fill" fill-rule="evenodd" d="M 2.29243 0.240494C 2.87208 0.733193 2.6692 1.42877 2.14752 2.06638C 1.59686 2.70399 0.959249 3.02279 0.350621 2.5301C -0.229025 2.0374 -0.026149 1.34182 0.495532 0.704211C 1.0462 0.0666001 1.68381 -0.252205 2.29243 0.240494ZM 0.640451 2.21129C 0.872309 2.41416 1.2201 2.3562 1.74178 1.74757C 2.26346 1.13894 2.26346 0.791156 2.00262 0.58828C 1.77076 0.385403 1.42297 0.443368 0.901291 1.052C 0.37961 1.66062 0.37961 2.00841 0.640451 2.21129Z"/>
<path id="path60_fill" fill-rule="evenodd" d="M 0 2.50166L 0.173894 2.03794C 0.405752 1.63219 1.91283 1.48728 2.08673 0.994579C 2.17367 0.76272 2.05774 0.559844 1.82588 0.472897C 1.56504 0.385951 1.33319 0.50188 1.15929 0.733738L 0.75354 0.472897C 0.956416 0.0671453 1.4781 -0.106749 1.9708 0.0671452C 2.4635 0.241039 2.75332 0.675774 2.57942 1.19745C 2.34757 1.86405 1.62301 1.92201 0.695575 2.29878L 1.99978 2.7625L 1.85487 3.19723L 0 2.50166Z"/>
<path id="path61_fill" fill-rule="evenodd" d="M 1.67 0.0678524C 2.39456 0.328693 2.45252 1.05325 2.1627 1.83577C 1.87288 2.61829 1.38018 3.13998 0.65562 2.87914C -0.0689377 2.61829 -0.126902 1.89374 0.162921 1.11122C 0.452744 0.328693 0.945443 -0.192988 1.67 0.0678524ZM 0.80048 2.50238C 1.0903 2.61831 1.40911 2.44441 1.66995 1.69087C 1.93079 0.937335 1.81486 0.618529 1.52504 0.5026C 1.23521 0.386671 0.91641 0.560565 0.655569 1.3141C 0.394728 2.06764 0.481675 2.38645 0.80048 2.50238Z"/>
<path id="path62_fill" fill-rule="evenodd" d="M 0 32.5761L 3.44889 0L 6.89779 32.5761L 3.44889 32.5761L 0 32.5761Z"/>
<path id="path63_fill" fill-rule="evenodd" d="M 0 32.5761L 3.44889 0L 3.44889 32.5761L 0 32.5761Z"/>
<path id="path64_fill" fill-rule="evenodd" d="M 32.5761 6.89779L 0 3.44889L 32.5761 0L 32.5761 3.44889L 32.5761 6.89779Z"/>
<path id="path65_fill" fill-rule="evenodd" d="M 32.5761 3.44889L 0 0L 32.5761 0L 32.5761 3.44889Z"/>
<path id="path66_fill" fill-rule="evenodd" d="M 6.89779 0L 3.44889 32.5761L 0 0L 3.44889 0L 6.89779 0Z"/>
<path id="path67_fill" fill-rule="evenodd" d="M 3.44889 0L 0 32.5761L 0 0L 3.44889 0Z"/>
<path id="path68_fill" fill-rule="evenodd" d="M 0 0L 32.5761 3.44889L 0 6.89779L 0 3.44889L 0 0Z"/>
<path id="path69_fill" fill-rule="evenodd" d="M 0 0L 32.5761 3.44889L 0 3.44889L 0 0Z"/>
<path id="path70_fill" fill-rule="evenodd" d="M 0 29.3301L 31.7646 0L 2.43451 31.7646L 1.21726 30.5473L 0 29.3301Z"/>
<path id="path71_fill" fill-rule="evenodd" d="M 0 29.3301L 31.7646 0L 1.21726 30.5473L 0 29.3301Z"/>
<path id="path72_fill" fill-rule="evenodd" d="M 31.7646 2.43451L 0 31.7646L 29.3301 0L 30.5473 1.21726L 31.7646 2.43451Z"/>
<path id="path73_fill" fill-rule="evenodd" d="M 31.7646 1.21726L 0 30.5473L 30.5473 0L 31.7646 1.21726Z"/>
<path id="path74_fill" fill-rule="evenodd" d="M 29.3301 31.7646L 0 0L 31.7646 29.3301L 30.5473 30.5473L 29.3301 31.7646Z"/>
<path id="path75_fill" fill-rule="evenodd" d="M 29.3301 31.7646L 0 0L 30.5473 30.5473L 29.3301 31.7646Z"/>
<path id="path76_fill" fill-rule="evenodd" d="M 2.43451 0L 31.7646 31.7646L 0 2.43451L 1.21726 1.21726L 2.43451 0Z"/>
<path id="path77_fill" fill-rule="evenodd" d="M 1.21726 0L 30.5473 31.7646L 0 1.21726L 1.21726 0Z"/>
<path id="path78_fill" fill-rule="evenodd" d="M 2.37655 4.7531C 3.68908 4.7531 4.7531 3.68908 4.7531 2.37655C 4.7531 1.06402 3.68908 0 2.37655 0C 1.06402 0 0 1.06402 0 2.37655C 0 3.68908 1.06402 4.7531 2.37655 4.7531Z"/>
<path id="path79_fill" fill-rule="evenodd" d="M 21.5049 0C 21.5049 0 7.79624 31.7936 4.89801 44.0821C 1.99978 56.3706 0 90.9175 0 90.9175C 0 90.9175 13.3319 60.7179 16.6069 46.8354C 19.9108 32.9819 21.5049 0 21.5049 0ZM 9.65102 50.0524C 7.12956 49.4438 5.56452 46.9223 6.14417 44.4009C 6.75279 41.8794 9.27425 40.3144 11.7957 40.894C 14.3172 41.5026 15.8822 44.0241 15.3026 46.5456C 14.7229 49.067 12.2015 50.6321 9.65102 50.0524Z"/>
<path id="path80_fill" fill-rule="evenodd" d="M 11.4137 0C 8.95042 6.0399 6.60815 12.2807 4.14492 18.3206C 1.68169 24.3605 1.38163 25.8102 0 29.198L 9.21063 31.604L 11.4137 0Z"/>
<path id="path81_fill" fill-rule="evenodd" d="M 5.7232 0.854085C 7.89688 1.37577 9.25904 3.54944 8.73736 5.72311C 8.21568 7.89678 6.04201 9.25895 3.86834 8.73727C 1.69466 8.21559 0.332495 6.04192 0.854177 3.86824C 1.37586 1.69457 3.54953 0.332404 5.7232 0.854085L 5.7232 0.854085ZM 5.89702 0.129539C 3.31759 -0.479089 0.738168 1.11494 0.129539 3.69436C -0.479089 6.27379 1.11494 8.85321 3.69436 9.46184C 6.27379 10.0705 8.85321 8.47644 9.46184 5.89702C 10.0705 3.31759 8.47644 0.738168 5.89702 0.129539L 5.89702 0.129539Z"/>
<path id="path82_fill" fill-rule="evenodd" d="M 15.7548 35.306C 12.2769 34.4655 2.79968 36.9579 2.79968 36.9579C 19.5804 -5.53011 60.9092 0.266354 60.9092 0.266354C 26.5362 15.54 15.7548 35.306 15.7548 35.306ZM 4.45168 78.2867C 3.46628 66.1721 9.92934 46.4062 9.92934 46.4062C 8.94394 47.3916 0.973805 48.2321 0.973805 48.2321C -2.50407 69.65 4.45168 78.2867 4.45168 78.2867ZM 94.1809 93.9082C 96.2966 92.8938 102.702 80.1126 102.702 80.1126C 102.47 79.0982 99.9194 75.7653 99.9194 75.7653C 99.3397 77.765 92.413 84.4889 92.413 84.4889L 94.1809 93.9082ZM 79.8346 95.0095C 80.733 96.0239 80.3273 103.356 80.3273 103.356C 81.1388 103.356 85.689 100.719 85.689 100.719L 84.7906 91.3287L 79.8346 95.0095Z"/>
<path id="path83_fill" d="M 4.11048 4.37109L 1.64563 4.37109L 1.64563 6.38672L 4.50892 6.38672L 4.50892 7L 0.895634 7L 0.895634 1.3125L 4.46985 1.3125L 4.46985 1.92969L 1.64563 1.92969L 1.64563 3.75781L 4.11048 3.75781L 4.11048 4.37109Z"/>
<path id="path84_fill" d="M 2.3502 5.20703L 2.45958 5.95703L 2.61973 5.28125L 3.74473 1.3125L 4.37755 1.3125L 5.4752 5.28125L 5.63145 5.96875L 5.75255 5.20312L 6.63536 1.3125L 7.38927 1.3125L 6.01036 7L 5.32677 7L 4.15489 2.85547L 4.06505 2.42188L 3.9752 2.85547L 2.76036 7L 2.07677 7L 0.701765 1.3125L 1.45177 1.3125L 2.3502 5.20703Z"/>
<path id="path85_fill" d="M 5.19039 7L 4.43648 7L 1.5732 2.61719L 1.5732 7L 0.819292 7L 0.819292 1.3125L 1.5732 1.3125L 4.44429 5.71484L 4.44429 1.3125L 5.19039 1.3125L 5.19039 7Z"/>
<path id="path86_fill" d="M 2.46985 4.46484C 1.82662 4.27995 1.35787 4.05339 1.0636 3.78516C 0.771936 3.51432 0.626103 3.18099 0.626103 2.78516C 0.626103 2.33724 0.804489 1.96745 1.16126 1.67578C 1.52063 1.38151 1.98678 1.23438 2.5597 1.23438C 2.95032 1.23438 3.29798 1.3099 3.60267 1.46094C 3.90996 1.61198 4.14694 1.82031 4.3136 2.08594C 4.48287 2.35156 4.56751 2.64193 4.56751 2.95703L 3.8136 2.95703C 3.8136 2.61328 3.70423 2.34375 3.48548 2.14844C 3.26673 1.95052 2.95813 1.85156 2.5597 1.85156C 2.18991 1.85156 1.90084 1.93359 1.69251 2.09766C 1.48678 2.25911 1.38392 2.48438 1.38392 2.77344C 1.38392 3.00521 1.48157 3.20182 1.67688 3.36328C 1.8748 3.52214 2.20944 3.66797 2.68079 3.80078C 3.15475 3.93359 3.52454 4.08073 3.79017 4.24219C 4.05839 4.40104 4.25631 4.58724 4.38392 4.80078C 4.51412 5.01432 4.57923 5.26562 4.57923 5.55469C 4.57923 6.01562 4.39954 6.38542 4.04017 6.66406C 3.68079 6.9401 3.20032 7.07812 2.59876 7.07812C 2.20813 7.07812 1.84355 7.00391 1.50501 6.85547C 1.16647 6.70443 0.904749 6.4987 0.719853 6.23828C 0.537561 5.97786 0.446416 5.68229 0.446416 5.35156L 1.20032 5.35156C 1.20032 5.69531 1.32662 5.96745 1.57923 6.16797C 1.83444 6.36589 2.17428 6.46484 2.59876 6.46484C 2.99459 6.46484 3.29798 6.38411 3.50892 6.22266C 3.71985 6.0612 3.82532 5.84115 3.82532 5.5625C 3.82532 5.28385 3.72767 5.06901 3.53235 4.91797C 3.33704 4.76432 2.98287 4.61328 2.46985 4.46484Z"/>
</defs>
</svg>
