<?xml version="1.0" encoding="UTF-8"?>
<svg width="139px" height="139px" viewBox="0 0 139 139" version="1.1" xmlns="http://www.w3.org/2000/svg" xmlns:xlink="http://www.w3.org/1999/xlink">
    <!-- Generator: Sketch 47.1 (45422) - http://www.bohemiancoding.com/sketch -->
    <title>Иконки/Контакты/envelope</title>
    <desc>Created with Sketch.</desc>
    <defs></defs>
    <g id="contacts" stroke="none" stroke-width="1" fill="none" fill-rule="evenodd">
        <g id="Иконки" transform="translate(-9.000000, -50.000000)" fill-rule="nonzero">
            <g id="envelope" transform="translate(9.000000, 50.000000)">
                <path d="M136.828125,41.6269819 L76.015625,7.65829768 C72.0419082,5.44723411 67.2187168,5.44723411 63.245,7.65829768 L2.171875,41.6269819 C0.835900391,42.4037386 0.00923046875,43.8355848 0,45.3890982 L0,45.3890982 C0.118638672,46.8239519 0.930919922,48.1081569 2.171875,48.823123 L62.984375,83.3164803 C66.9496758,85.5611732 71.7899707,85.5611732 75.755,83.3164803 L136.828125,48.823123 C138.06908,48.1081569 138.881361,46.8239519 139,45.3890982 L139,45.3890982 C138.99077,43.8355848 138.1641,42.4034652 136.828125,41.6269819 Z" id="Shape" fill="#B08333"></path>
                <path d="M125.600048,43.9820644 L127.055207,36.1980956 L119.45363,32 L119.45363,54.1490538 L72.975414,74.4835793 C70.7657984,75.4508358 68.2567349,75.4508358 66.0471192,74.4835793 L0,45.5779421 C0.17212143,46.948336 0.977617144,48.1561084 2.17187924,48.8358391 L62.984498,83.317072 C66.9498065,85.560976 71.7901109,85.560976 75.755148,83.317072 L119.453087,58.5220701 L119.453087,58.5220701 L123.210438,56.335562 L123.210438,56.335562 L136.828121,48.8358391 C138.022383,48.1563817 138.827879,46.948336 139,45.5779421 L131.615611,48.792109 C129.419026,49.7634652 126.85648,48.7582181 125.891894,46.5468385 C125.540593,45.7411102 125.438515,44.8471017 125.600048,43.9820644 Z" id="Shape" fill="#96621D"></path>
                <path d="M138.999729,46.0002703 C138.88109,47.419061 138.06881,48.6888895 136.827858,49.3958517 L76.0154765,83.503061 C72.0501835,85.722625 67.209898,85.722625 63.2448765,83.503061 L2.17187076,49.3955814 C0.930918104,48.6886192 0.11863844,47.4187907 0,46 L0,46 L0,132.879302 C0,136.259474 2.75176025,139 6.14639425,139 L6.14639425,139 L132.853606,139 C136.247968,139 139,136.259744 139,132.879302 L139,132.879302 L138.999729,46.0002703 L138.999729,46.0002703 Z" id="Shape" fill="#E2D6B6"></path>
                <g id="Group" transform="translate(0.000000, 46.000000)">
                    <path d="M0,0.0539130435 L0,0.36135106 C0,0.36135106 0,0.17688825 0,0.0846568451 L0,0.0846568451 L0,0.0539130435 Z" id="Shape" fill="#F7B84E"></path>
                    <path d="M139,0.269834783 C138.881361,1.68451304 138.06908,2.95066087 136.828125,3.65557391 L76.015625,37.6639217 C72.0503242,39.8770522 67.2100293,39.8770522 63.245,37.6639217 L2.171875,3.65530435 C1.85505273,3.4782 1.56320703,3.2603913 1.303125,3.00834783 C1.15733789,2.82504348 1.02648242,2.63041739 0.9121875,2.42608696 L0.695,2.14573913 C0.544869141,1.89288696 0.421072266,1.62574783 0.32578125,1.34782609 L0.32578125,1.21843478 C0.190582031,0.963965217 0.0817167969,0.696556522 -1.2056667e-16,0.420521739 L-1.2056667e-16,0.269565217 L-1.2056667e-16,0.269565217 L-1.2056667e-16,4.5826087 C-0.00298632813,6.07276522 0.76884375,7.45886957 2.0415625,8.24869565 L62.5934375,45.8153043 L63.2884375,46.2466087 C67.1660488,48.6112348 69.5206328,52.8129478 69.5,57.3311304 L69.5,71.2838261 C69.5,78.5132957 63.5976582,84.373913 56.3167187,84.373913 L19.546875,84.373913 C14.7486602,84.373913 10.859375,88.2359739 10.859375,93 L132.853594,93 C136.247963,93 139,90.267687 139,86.8970435 L139,86.8970435 L139,0.269834783 L139,0.269834783 Z" id="Shape" fill="#B09878"></path>
                </g>
                <path d="M98.2608696,0 L26.5217391,0 C22.919837,0 20,2.91837684 20,6.5182062 L20,58.7963982 L63.6086957,83.327603 C67.5777174,85.5574657 72.4225543,85.5574657 76.3913043,83.327603 L120,58.7963982 L120,21.7279878 L98.2608696,0 Z" id="Shape" fill="#F2F2F2"></path>
                <path d="M66,80.1822547 L20,56 L20,58.3430436 L63.6086957,83.2986685 C67.5777174,85.5671105 72.4225543,85.5671105 76.3913043,83.2986685 L120,58.3430436 L120,56 L74,80.1822547 C71.4915761,81.5035324 68.5084239,81.5035324 66,80.1822547 Z" id="Shape" fill="#DBDAD9"></path>
                <path d="M54.1875,17 L84.8125,17 C86.0205469,17 87,17.8955 87,19 L87,19 C87,20.1045 86.0205469,21 84.8125,21 L54.1875,21 C52.9794531,21 52,20.1045 52,19 L52,19 C52,17.8955 52.9794531,17 54.1875,17 Z" id="Shape" fill="#595A66"></path>
                <g id="Group" transform="translate(37.000000, 32.000000)" fill="#6F707E">
                    <path d="M2.1875,0.000270833333 L32.8125,0.000270833333 C34.0205469,0.000270833333 35,0.970395833 35,2.1669375 L35,2.1669375 C35,3.36347917 34.0205469,4.33360417 32.8125,4.33360417 L2.1875,4.33360417 C0.979453125,4.33360417 0,3.36347917 0,2.1669375 L0,2.1669375 C0,0.970125 0.979453125,0.000270833333 2.1875,0.000270833333 Z" id="Shape"></path>
                    <path d="M2.1875,21.6666667 L48.125,21.6666667 C49.3330469,21.6666667 50.3125,22.6367917 50.3125,23.8333333 L50.3125,23.8333333 C50.3125,25.029875 49.3330469,26 48.125,26 L2.1875,26 C0.979453125,26 0,25.029875 0,23.8333333 L0,23.8333333 C0,22.6367917 0.979453125,21.6666667 2.1875,21.6666667 Z" id="Shape"></path>
                    <path d="M2.1875,10.8336042 L21.875,10.8336042 C23.0830469,10.8336042 24.0625,11.8037292 24.0625,13.0002708 L24.0625,13.0002708 C24.0625,14.1968125 23.0830469,15.1669375 21.875,15.1669375 L2.1875,15.1669375 C0.979453125,15.1669375 0,14.1968125 0,13.0002708 L0,13.0002708 C0,11.8037292 0.979453125,10.8336042 2.1875,10.8336042 Z" id="Shape"></path>
                    <path d="M52.5,10.8336042 L67.8125,10.8336042 C69.0205469,10.8336042 70,11.8037292 70,13.0002708 L70,13.0002708 C70,14.1968125 69.0205469,15.1669375 67.8125,15.1669375 L52.5,15.1669375 C51.2919531,15.1669375 50.3125,14.1968125 50.3125,13.0002708 L50.3125,13.0002708 C50.3125,11.8037292 51.2919531,10.8336042 52.5,10.8336042 Z" id="Shape"></path>
                    <path d="M30.6252734,10.8336042 L43.7502734,10.8336042 C44.9583203,10.8336042 45.9377734,11.8037292 45.9377734,13.0002708 L45.9377734,13.0002708 C45.9377734,14.1968125 44.9583203,15.1669375 43.7502734,15.1669375 L30.6252734,15.1669375 C29.4172266,15.1669375 28.4377734,14.1968125 28.4377734,13.0002708 L28.4377734,13.0002708 C28.4377734,11.8037292 29.4169531,10.8336042 30.6252734,10.8336042 Z" id="Shape"></path>
                    <path d="M56.875,21.6666667 L67.8125,21.6666667 C69.0205469,21.6666667 70,22.6367917 70,23.8333333 L70,23.8333333 C70,25.029875 69.0205469,26 67.8125,26 L56.875,26 C55.6669531,26 54.6875,25.029875 54.6875,23.8333333 L54.6875,23.8333333 C54.6875,22.6367917 55.6669531,21.6666667 56.875,21.6666667 Z" id="Shape"></path>
                    <path d="M41.5625,0.000270833333 L67.8125,0.000270833333 C69.0205469,0.000270833333 70,0.970395833 70,2.1669375 L70,2.1669375 C70,3.36347917 69.0205469,4.33360417 67.8125,4.33360417 L41.5625,4.33360417 C40.3544531,4.33360417 39.375,3.36347917 39.375,2.1669375 L39.375,2.1669375 C39.375,0.970125 40.3541797,0.000270833333 41.5625,0.000270833333 Z" id="Shape"></path>
                </g>
                <path d="M104.6,22 L120,22 L98,0 L98,15.4 C98,19.045125 100.954875,22 104.6,22 Z" id="Shape" fill="#CAD1D8"></path>
                <polygon id="Shape" fill="#DDDDDC" points="119 22 104 22 119 37"></polygon>
            </g>
        </g>
    </g>
</svg>