<?xml version="1.0" encoding="utf-8"?><svg xmlns="http://www.w3.org/2000/svg" xmlns:xlink="http://www.w3.org/1999/xlink"><symbol viewBox="0 0 8.373 8.373" id="icon-set5_youtube" xmlns="http://www.w3.org/2000/svg"><path d="M4.2 0A4.2 4.2 0 1 1 0 4.2 4.2 4.2 0 0 1 4.2 0zM5 4.1l-1.5-.8V5L5 4.2zM2.4 2.3a1 1 0 0 0-.9.9 11.2 11.2 0 0 0 0 2 .9.9 0 0 0 1 .9H6a1 1 0 0 0 .9-1 13.5 13.5 0 0 0 0-2 .9.9 0 0 0-1-.8z"/></symbol><symbol viewBox="0 0 296 296" shape-rendering="geometricPrecision" text-rendering="geometricPrecision" image-rendering="optimizeQuality" fill-rule="evenodd" clip-rule="evenodd" id="icon-set5_telegram" xmlns="http://www.w3.org/2000/svg"><path d="M148 0c82 0 148 66 148 148s-66 148-148 148S0 230 0 148 66 0 148 0zM89 162l90-57s5-3 5 0c0 0 1 1-2 3-3 3-71 64-71 64l-5 42c2 1 4-1 4-1l24-22 38 29c10 4 14-5 14-5l27-134c0-9-12-4-12-4L52 135s-7 2-6 7c1 4 6 6 6 6l37 13z" id="aСлой_x0020_1"/></symbol><symbol viewBox="0 0 18 30" id="icon-arrow" xmlns="http://www.w3.org/2000/svg"><path d="M16.74 14.4L1.56.25a.96.96 0 0 0-1.29 0 .8.8 0 0 0 0 1.2L14.8 15 .27 28.55a.8.8 0 0 0 0 1.2.95.95 0 0 0 1.28 0L16.73 15.6a.8.8 0 0 0 .01-1.2z"/></symbol><symbol viewBox="0 0 15 12" id="icon-check" xmlns="http://www.w3.org/2000/svg"><use xlink:href="#aca"/><defs><path id="aca" fill-rule="evenodd" d="M5 12L0 7l2-2 3 3 8-8 2 2L5 12z"/></defs></symbol><symbol viewBox="0 0 22 22" id="icon-cross" xmlns="http://www.w3.org/2000/svg"><path d="M12.49 11l9.2-9.2A1.06 1.06 0 0 0 20.2.31L11 9.51 1.8.31A1.06 1.06 0 0 0 .31 1.8l9.2 9.2-9.2 9.2a1.06 1.06 0 0 0 1.49 1.49l9.2-9.2 9.2 9.2a1.05 1.05 0 0 0 1.49-1.49z"/></symbol><symbol viewBox="0 0 7 11" id="icon-filled-arrow" xmlns="http://www.w3.org/2000/svg"><path d="M6.1 5.42a.63.63 0 0 0-.2-.47L1.15.2A.63.63 0 0 0 .68 0 .69.69 0 0 0 0 .68v9.49c0 .37.31.67.68.67.18 0 .35-.07.47-.2L5.9 5.9c.13-.13.2-.3.2-.48z"/></symbol><symbol viewBox="0 0 10 10" id="icon-point" xmlns="http://www.w3.org/2000/svg"><path d="M0 5a5 5 0 0 1 10 0 5 5 0 0 1-10 0z"/></symbol><symbol viewBox="0 0 14 13" id="icon-small-cross" xmlns="http://www.w3.org/2000/svg"><path d="M7.81 7l5.02-5.02a.56.56 0 0 0 0-.81.56.56 0 0 0-.81 0L7 6.19 1.98 1.17a.56.56 0 0 0-.81 0 .56.56 0 0 0 0 .81L6.19 7l-5.02 5.02a.56.56 0 0 0 0 .81c.11.11.26.17.41.17.14 0 .29-.06.4-.17L7 7.81l5.02 5.02c.11.11.26.17.4.17.15 0 .3-.06.41-.17a.56.56 0 0 0 0-.81z"/></symbol><symbol viewBox="0 0 16 16" id="icon-set8-unchecked_checkbox" xmlns="http://www.w3.org/2000/svg"><g transform="translate(-40088 819)"><use xlink:href="#cqa" transform="translate(40088 -819)"/><mask id="cqb"><use xlink:href="#cqa" transform="translate(40088 -819)"/></mask><g mask="url(#cqb)"><use xlink:href="#cqc" transform="translate(40088 -819)"/></g></g><defs><path id="cqa" fill-rule="evenodd" d="M2 0a2 2 0 0 0-2 2v12c0 1.1.9 2 2 2h12a2 2 0 0 0 2-2V2a2 2 0 0 0-2-2H2z"/><path id="cqc" d="M-1 2v12h2V2h-2zm3 15h12v-2H2v2zm15-3V2h-2v12h2zM14-1H2v2h12v-2zM1 2a1 1 0 0 1 1-1v-2a3 3 0 0 0-3 3h2zm-2 12a3 3 0 0 0 3 3v-2a1 1 0 0 1-1-1h-2zm15 3a3 3 0 0 0 3-3h-2a1 1 0 0 1-1 1v2zm3-15a3 3 0 0 0-3-3v2a1 1 0 0 1 1 1h2z"/></defs></symbol><symbol viewBox="0 0 53 53" id="icon-set3_book" xmlns="http://www.w3.org/2000/svg"><path d="M26.5 0a26.5 26.5 0 1 0 0 53 26.5 26.5 0 0 0 0-53z"/><path fill="#fff" d="M17.11 14h-.01c-.29 0-.57.12-.77.33-.21.21-.33.49-.33.79v16.85c0 .62.5 1.12 1.11 1.13 2.58 0 6.91.55 9.89 3.71V19.18c0-.21-.05-.41-.15-.57-2.45-4-7.16-4.6-9.74-4.61zM39 31.97V15.12A1.1 1.1 0 0 0 37.9 14c-2.59.01-7.3.61-9.75 4.61-.1.16-.15.36-.15.57v17.63c2.98-3.16 7.31-3.71 9.89-3.71A1.13 1.13 0 0 0 39 31.97z"/><path fill="#fff" d="M41.99 18h-.8v14.09a2.85 2.85 0 0 1-2.83 2.86c-2.19.01-5.8.44-8.36 2.9 4.42-1.1 9.09-.39 11.74.23a1.12 1.12 0 0 0 1.36-1.1V19.12c0-.62-.5-1.12-1.11-1.12zM13.91 32.09V18h-.8c-.61 0-1.11.5-1.11 1.12v17.86c0 .34.15.66.42.88.26.21.61.29.94.22 2.65-.62 7.32-1.33 11.74-.23-2.56-2.46-6.17-2.89-8.36-2.9a2.85 2.85 0 0 1-2.83-2.86z"/></symbol><symbol viewBox="0 0 91 91" id="icon-set2_key-in-circle" xmlns="http://www.w3.org/2000/svg"><path d="M1 45.5A44.5 44.5 0 1 1 45.5 90 44.5 44.5 0 0 1 1 45.5z" fill="none" stroke-miterlimit="50" stroke-width="2"/><path d="M53.3 23.8a14 14 0 1 0 14 13.9 14 14 0 0 0-14-14zm6.8 20.6l-.6.7-13.6-13.6.7-.6A9.6 9.6 0 1 1 60 44.4z"/><path d="M41.1 41.7L23.7 59.1v5.2L40 48l1.2 1.3-16.5 16.5 1.4 1.3h6l3-3V62h2.2l3-3v-1.3h1.3l2.3-2.3v-1.2H45l4.4-4.4-8.3-8.1z"/></symbol><symbol viewBox="0 0 35 35" id="icon-set5_instagram" xmlns="http://www.w3.org/2000/svg"><path d="M17.5 0A17.5 17.5 0 1 0 35 17.5 17.5 17.5 0 0 0 17.5 0zm7.2 11.5a1.3 1.3 0 1 1-1.3-1.3 1.3 1.3 0 0 1 1.3 1.3zm-7.2 9.7a3.7 3.7 0 1 1 3.7-3.7 3.7 3.7 0 0 1-3.7 3.7zm0-9.4a5.7 5.7 0 1 0 5.7 5.7 5.7 5.7 0 0 0-5.7-5.7zm-4.6-5.4a8 8 0 0 0-2.6.5 5.4 5.4 0 0 0-2 1.3 5.5 5.5 0 0 0-1.3 2 8.3 8.3 0 0 0-.5 2.7V22a8.3 8.3 0 0 0 .5 2.7 5.7 5.7 0 0 0 3.3 3.3 8 8 0 0 0 2.6.5c3 .2 6.1.2 9.2 0a8 8 0 0 0 2.6-.5 5.7 5.7 0 0 0 3.3-3.3 8.2 8.2 0 0 0 .5-2.7v-9a8.2 8.2 0 0 0-.5-2.7 5.5 5.5 0 0 0-1.3-2 5.4 5.4 0 0 0-2-1.3 8 8 0 0 0-2.6-.5h-9.2zm9 2a6 6 0 0 1 2.1.4 3.4 3.4 0 0 1 1.3.8A3.5 3.5 0 0 1 26 11a6.3 6.3 0 0 1 .4 2v9a6.3 6.3 0 0 1-.4 2 3.5 3.5 0 0 1-.8 1.4 3.4 3.4 0 0 1-1.3.8 6.1 6.1 0 0 1-2 .4h-9a6 6 0 0 1-2-.4 3.5 3.5 0 0 1-1.3-.8A3.5 3.5 0 0 1 9 24a6.3 6.3 0 0 1-.4-2v-9a6.3 6.3 0 0 1 .4-2 3.5 3.5 0 0 1 .8-1.4 3.4 3.4 0 0 1 1.3-.8 6 6 0 0 1 2-.4h9z" fill-rule="evenodd"/></symbol>
<symbol viewBox="0 0 53 53" id="icon-set3_calendar-b" xmlns="http://www.w3.org/2000/svg"><use xlink:href="#bca"/><use xlink:href="#bcb" transform="translate(30.75 29.791)" fill="#FFF"/><use xlink:href="#bcc" transform="translate(33.66 14)" fill="#FFF"/><use xlink:href="#bcd" transform="translate(28.27 14)" fill="#FFF"/><use xlink:href="#bce" transform="translate(22.91 14)" fill="#FFF"/><use xlink:href="#bcf" transform="translate(17.55 14)" fill="#FFF"/><use xlink:href="#bcg" transform="translate(15 16.351)" fill="#FFF"/><use xlink:href="#bch" transform="translate(15 22.458)" fill="#FFF"/><defs><path id="bca" fill-rule="evenodd" d="M26.5 0a26.5 26.5 0 1 0 0 53 26.5 26.5 0 0 0 0-53z"/><path id="bcb" fill-rule="evenodd" d="M8.75 1.5c-2-2-5.25-2-7.25 0s-2 5.22 0 7.21c2 2 5.25 2 7.25 0s2-5.22 0-7.21zM7.63 5.86H4.98a.46.46 0 0 1-.48-.47v-3.2c0-.26.21-.47.48-.47s.47.2.47.47v2.72h2.17c.27 0 .48.21.48.48 0 .26-.2.47-.47.47z"/><path id="bcc" fill-rule="evenodd" d="M.6 4.62a.6.6 0 0 0 .6-.6V.6A.6.6 0 0 0 .6 0a.6.6 0 0 0-.6.6v3.42c0 .33.27.6.6.6z"/><path id="bcd" fill-rule="evenodd" d="M.6 4.62a.6.6 0 0 0 .6-.6V.6A.6.6 0 0 0 .6 0a.6.6 0 0 0-.6.6v3.42c.02.33.3.6.6.6z"/><path id="bce" fill-rule="evenodd" d="M.6 4.62a.6.6 0 0 0 .6-.6V.6A.6.6 0 0 0 .6 0a.6.6 0 0 0-.6.6v3.42c0 .33.27.6.6.6z"/><path id="bcf" fill-rule="evenodd" d="M.6 4.62a.6.6 0 0 0 .6-.6V.6A.6.6 0 0 0 .6 0a.6.6 0 0 0-.6.6v3.42c0 .33.27.6.6.6z"/><path id="bcg" fill-rule="evenodd" d="M22.38 0h-1.34v1.67a1.8 1.8 0 0 1-3.6 0V0h-1.78v1.67a1.8 1.8 0 0 1-3.6 0V0h-1.74v1.67a1.8 1.8 0 0 1-3.6 0V0H4.94v1.67c0 1-.81 1.8-1.8 1.8-1 0-1.81-.81-1.81-1.8V0H0v4.9h22.38V0z"/><path id="bch" fill-rule="evenodd" d="M16.43 8.01a6.3 6.3 0 0 1 5.97-1.64V0H0v14.17h14.82A6.25 6.25 0 0 1 16.42 8zm-.34-5.56h2.98V4.8H16.1V2.45zm-9.8 7.9H3.32V8.02H6.3v2.33zm0-5.57H3.32V2.45H6.3v2.33zm6.4 5.57H9.72V8.02h2.99v2.33zm0-5.57H9.72V2.45h2.99v2.33z"/></defs></symbol><symbol viewBox="0 0 53 53" id="icon-set3_cup" xmlns="http://www.w3.org/2000/svg"><path d="M0 26.5a26.5 26.5 0 1 0 53 0 26.5 26.5 0 0 0-53 0z"/><path fill="#fff" d="M33.84 13.72V12.6c0-.33-.28-.6-.61-.6H20.45a.61.61 0 0 0-.62.6v1.12h-4.21a.61.61 0 0 0-.62.6v.34c0 5.09 2.64 9.2 6.03 9.4a6.97 6.97 0 0 0 3.74 2.71v6.8h-2.32a.61.61 0 0 0-.62.6v.97H20.4a.61.61 0 0 0-.62.6v4.55c0 .33.28.6.62.6h12.88c.34 0 .62-.27.62-.6v-4.55c0-.33-.28-.6-.62-.6h-1.43v-.97c0-.33-.28-.6-.62-.6h-2.32v-6.8a7 7 0 0 0 3.74-2.71c3.38-.2 6.03-4.31 6.03-9.4v-.34c0-.33-.28-.6-.62-.6zm-14.01 6.55c0 .53.07 1.07.2 1.59-1.62-.88-2.85-3.38-3.07-6.27h2.87zm14.01 0v-4.68h2.87c-.21 2.89-1.45 5.39-3.07 6.27.13-.52.2-1.06.2-1.59z"/></symbol><symbol viewBox="0 0 53 53" id="icon-set3_list-a" xmlns="http://www.w3.org/2000/svg"><path d="M26.5 0a26.5 26.5 0 1 0 0 53 26.5 26.5 0 0 0 0-53z"/><path fill="#fff" d="M17 13v27h21.54V19.56L31.86 13zm5.79 20.6a.46.46 0 0 1-.29.1.42.42 0 0 1-.32-.13l-.92-.9a.45.45 0 0 1 0-.64.48.48 0 0 1 .65 0l.62.62 1.97-1.55c.2-.16.49-.13.65.07.16.19.13.48-.07.63zm0-4.95a.46.46 0 0 1-.29.1.42.42 0 0 1-.32-.13l-.92-.9a.45.45 0 0 1 0-.64.48.48 0 0 1 .65 0l.62.62 1.97-1.55c.2-.16.49-.13.65.07.16.19.13.48-.07.63zm0-4.95a.46.46 0 0 1-.29.1.42.42 0 0 1-.32-.13l-.92-.9a.45.45 0 0 1 0-.64.48.48 0 0 1 .65 0l.62.62 1.97-1.55c.2-.16.49-.13.65.07.16.19.13.48-.07.63zm3.38 9.55a.45.45 0 1 1 0-.9h7.33c.25 0 .46.2.46.45s-.21.45-.46.45zm0-4.95a.45.45 0 1 1 0-.9h7.33c.25 0 .46.2.46.45s-.21.45-.46.45zm0-4.95a.45.45 0 1 1 0-.9h7.33c.25 0 .46.2.46.45s-.21.45-.46.45zm5.04-9.45l6.42 6.3h-6.42z"/></symbol><symbol viewBox="0 0 21 21" id="icon-set4_article" xmlns="http://www.w3.org/2000/svg"><path d="M6.56 0c-.72 0-1.31.59-1.31 1.31v9.19H1.31c-.72 0-1.31.59-1.31 1.31v5.25A3.95 3.95 0 0 0 3.94 21h13.12A3.95 3.95 0 0 0 21 17.06V1.31C21 .59 20.41 0 19.69 0zM3.94 18.38c-.73 0-1.31-.59-1.31-1.32v-3.93h2.62v3.93c0 .73-.59 1.32-1.31 1.32zm10.5-15.1a1.31 1.31 0 0 1 0 2.63h-2.63a1.32 1.32 0 0 1 0-2.63zm-5.25 10.5a1.3 1.3 0 1 1 0-2.62h7.87a1.31 1.31 0 1 1 0 2.62zm0-3.94a1.3 1.3 0 1 1 0-2.62h7.87a1.31 1.31 0 0 1 0 2.62z"/></symbol><symbol viewBox="0 0 20 21" id="icon-set4_closed-calendar" xmlns="http://www.w3.org/2000/svg"><path d="M15.19 4.2l1.41-.01L16.59 0l-1.41.01.01 2.09zM4.8 0L3.4.01v3.37l-.01.82 1.42-.01-.01-.8zm10.42 6.02a1.92 1.92 0 0 1-1.33-1.79c0-.37.11-.72.32-1.03V1.96H5.78v1.25c.2.31.31.66.31 1.02 0 .82-.56 1.53-1.33 1.79zm4.77 0V1.95l-2.42.01V3.2c.21.31.32.66.32 1.03 0 .82-.56 1.53-1.33 1.79zm0 .93H0v7.71h5.71a.95.95 0 0 1 .54.16l.02.01.02.02c.23.17.38.44.38.73V21H20zm-14.3 8.63l-5 .01 5 4.76zM2.1 4.23c0 .82.55 1.53 1.32 1.79H0V1.96h2.42v1.23c-.21.31-.32.67-.32 1.04z"/></symbol><symbol viewBox="0 0 21 18" id="icon-set4_community-a" xmlns="http://www.w3.org/2000/svg"><path d="M14.29 5.75a3.03 3.03 0 0 0 4.34-2.73A3.04 3.04 0 0 0 15.58 0a3.02 3.02 0 0 0-3.04 2.97c.96.6 1.63 1.61 1.75 2.78zm-.7.38a3.04 3.04 0 0 0-3.05-3.02 3.04 3.04 0 0 0-3.05 3.02 3.04 3.04 0 0 0 3.05 3.02 3.04 3.04 0 0 0 3.05-3.02zM9.25 9.35a3.9 3.9 0 0 0-3.9 3.87v3.17l.22.07c2.06.64 3.84.85 5.31.85 2.86 0 4.53-.81 4.63-.86l.2-.1h.02v-3.13a3.9 3.9 0 0 0-3.9-3.87zm5.06-3.11a3.74 3.74 0 0 1-1.16 2.59 4.6 4.6 0 0 1 3.31 4.39v.96c2.53-.09 3.99-.8 4.09-.85l.2-.1h.02V10.1a3.88 3.88 0 0 0-3.9-3.86zm-7.5-.67c.15-.97.68-1.81 1.42-2.38l.01-.17A3.03 3.03 0 0 0 5.19 0a3.03 3.03 0 0 0-3.04 3.02 3.03 3.03 0 0 0 3.04 3.01c.6 0 1.15-.17 1.62-.46zm1.12 3.26a4.6 4.6 0 0 0-3.31 4.39v.95a18.61 18.61 0 0 1-4.39-.82l-.22-.07-.01-.05V10.1a3.88 3.88 0 0 1 3.9-3.86h2.59l.28.01a3.72 3.72 0 0 0 1.16 2.58z"/></symbol><symbol viewBox="0 0 22 22" id="icon-set4_horn" xmlns="http://www.w3.org/2000/svg"><use xlink:href="#ara" transform="translate(3.36 .016)"/><use xlink:href="#arb" transform="translate(0 6.695)"/><defs><path id="ara" fill-rule="evenodd" d="M17.74 0a.89.89 0 0 0-.82.6c-1.53.8-5.1 2.61-7.72 3.62A42.12 42.12 0 0 1 0 6.6v7.1s1.47.17 3.66.69L3.7 21c0 .52.44.94.95.94h1.54c.51-.01.94-.44.93-.96l-.03-5.65c.69.22 1.4.47 2.12.75 2.63 1 6.19 2.82 7.72 3.62.14.34.45.6.82.6.49 0 .89-.43.89-.96V.95c0-.52-.4-.95-.89-.95z"/><path id="arb" fill-rule="evenodd" d="M0 0h2.57v6.95H0V0z"/></defs></symbol><symbol viewBox="0 0 19 26" id="icon-set4_microphone" xmlns="http://www.w3.org/2000/svg"><path d="M13.32 12l.01-8a4 4 0 1 0-8 0v8a4 4 0 1 0 7.99 0zm3.08 0h2.27c0 4.56-3.63 8.32-8 8.96v4.37H8v-4.37c-4.37-.65-8-4.41-8-8.96h2.27c0 4 3.38 6.8 7.06 6.8 3.68 0 7.07-2.8 7.07-6.8z"/></symbol><symbol viewBox="0 0 35 35" id="icon-set5_VK" xmlns="http://www.w3.org/2000/svg"><path d="M17.45 0A17.34 17.34 0 0 0 0 17.23c0 9.52 7.82 17.24 17.45 17.24 9.64 0 17.46-7.72 17.46-17.24C34.9 7.72 27.09 0 17.45 0zM27.8 22.65l.08.31a.9.9 0 0 1 0 .4c-.04.12-.14.23-.3.33-.17.1-.4.14-.71.14l-3.06.05c-.2.04-.42.02-.67-.06a2.94 2.94 0 0 1-.62-.26l-.24-.14a5.6 5.6 0 0 1-.84-.75c-.32-.34-.6-.64-.82-.91-.23-.27-.47-.5-.73-.68-.26-.19-.48-.25-.68-.18a.79.79 0 0 0-.1.04 1.5 1.5 0 0 0-.46.52c-.07.13-.14.33-.2.6a3.8 3.8 0 0 0-.07.91 1.17 1.17 0 0 1-.13.54l-.05.06a.96.96 0 0 1-.64.26h-1.37a6.76 6.76 0 0 1-3.32-.82c-.45-.25-.86-.5-1.23-.77a7.07 7.07 0 0 1-.85-.68l-.3-.28-.32-.35a29.26 29.26 0 0 1-3.59-5.32A38.45 38.45 0 0 1 5 12.41a.92.92 0 0 1-.08-.3c0-.1.02-.16.04-.2l.05-.07c.12-.15.35-.22.68-.22l3.28-.02a1.29 1.29 0 0 1 .46.17l.06.04c.13.08.23.2.3.37a18.28 18.28 0 0 0 1.03 2.18l.2.34c.22.47.45.87.66 1.22.22.34.41.61.58.8.17.2.34.34.5.45.16.11.3.17.4.17.12 0 .23-.02.33-.06a.2.2 0 0 0 .06-.06l.14-.26c.07-.14.13-.32.16-.55a8.97 8.97 0 0 0 0-3.28 2.22 2.22 0 0 0-.16-.54l-.07-.14c-.2-.26-.54-.43-1.02-.5-.1-.02-.08-.11.06-.28.14-.15.3-.27.46-.36.42-.2 1.37-.3 2.86-.28.65.01 1.19.06 1.61.16.16.03.3.09.4.15.11.07.2.16.25.29a1.8 1.8 0 0 1 .16.9 16.24 16.24 0 0 1-.04 1.48 28.61 28.61 0 0 0-.03 1.46 9.75 9.75 0 0 0 .04 1.04c.02.18.07.34.14.46.06.12.15.22.27.29l.2.04c.07.02.17-.02.31-.13a4.31 4.31 0 0 0 1.08-1.19 19.02 19.02 0 0 0 2.1-3.9.8.8 0 0 1 .1-.2c.06-.07.1-.1.14-.13l.05-.04.06-.03.15-.03c.1-.02.19-.03.24 0l3.45-.03c.3-.04.56-.03.76.03.2.06.33.12.37.2l.08.11c.18.5-.42 1.65-1.8 3.45l-.78 1c-.62.78-.98 1.3-1.07 1.54-.14.32-.08.64.17.95.13.16.45.49.96.96h.02v.01l.02.02.02.02a11.75 11.75 0 0 1 2.37 2.74z" fill-rule="evenodd"/></symbol><symbol viewBox="0 0 35 35" id="icon-set5_facebook" xmlns="http://www.w3.org/2000/svg"><path d="M17.35 0C26.92 0 34.7 7.68 34.7 17.13c0 9.44-7.79 17.13-17.35 17.13A17.26 17.26 0 0 1 0 17.13C0 7.68 7.78 0 17.35 0zm-2.67 11.1v2.67h-1.95v3.26h1.95v9.7h4v-9.7h2.68s.25-1.56.37-3.27H18.7v-2.23c0-.33.44-.78.87-.78h2.17v-3.4h-2.96c-4.19 0-4.09 3.27-4.09 3.75z" fill-rule="evenodd"/></symbol><symbol viewBox="0 0 35 34" id="icon-set5_rss" xmlns="http://www.w3.org/2000/svg"><path d="M0 17c0 9.39 7.84 17 17.5 17S35 26.39 35 17 27.16 0 17.5 0 0 7.61 0 17zm7 8a3 3 0 1 1 6 0 3 3 0 0 1-6 0zm7.01-4.02A9.83 9.83 0 0 0 7 18.06V14c7.72 0 14 6.28 14 14h-4.09a9.84 9.84 0 0 0-2.9-7.02zM7 11.03V7c11.58 0 21 9.42 21 21h-4.04c0-9.36-7.61-16.97-16.96-16.97z"/></symbol><symbol viewBox="0 0 35 35" id="icon-set5_twitter" xmlns="http://www.w3.org/2000/svg"><path d="M17.35 0A17.26 17.26 0 0 0 0 17.13c0 9.44 7.78 17.13 17.35 17.13 9.56 0 17.35-7.69 17.35-17.13C34.7 7.68 26.92 0 17.35 0zm7.8 13.69v.45a9.83 9.83 0 0 1-9.97 9.84 10 10 0 0 1-5.37-1.55A7.19 7.19 0 0 0 15 21a3.5 3.5 0 0 1-3.28-2.4 3.58 3.58 0 0 0 1.59-.07 3.47 3.47 0 0 1-2.82-3.39v-.04c.48.26 1.02.41 1.6.43a3.45 3.45 0 0 1-1.1-4.62 10 10 0 0 0 7.23 3.62 3.48 3.48 0 0 1 3.41-4.25c1.01 0 1.92.42 2.56 1.09.8-.15 1.55-.44 2.23-.84-.27.8-.82 1.49-1.55 1.92a7.04 7.04 0 0 0 2.02-.55 7 7 0 0 1-1.75 1.79z" fill-rule="evenodd"/></symbol><symbol viewBox="0 0 35 34" id="icon-set5_white-twitter" xmlns="http://www.w3.org/2000/svg"><path d="M0 17c0 9.37 7.85 17 17.5 17S35 26.37 35 17c0-9.37-7.85-17-17.5-17S0 7.63 0 17zm25.97-3.77c0 5-4.13 10.77-11.68 10.77-2.32 0-4.47-.63-6.29-1.7a8.68 8.68 0 0 0 6.08-1.57 4.07 4.07 0 0 1-3.84-2.63 4.9 4.9 0 0 0 1.85-.06 3.89 3.89 0 0 1-3.29-3.72v-.04c.56.28 1.19.45 1.86.47a3.72 3.72 0 0 1-1.82-3.15c0-.7.2-1.35.55-1.91a12.03 12.03 0 0 0 8.46 3.96 3.56 3.56 0 0 1-.11-.86c0-2.09 1.84-3.79 4.11-3.79 1.18 0 2.24.46 2.99 1.2a8.8 8.8 0 0 0 2.61-.92 3.9 3.9 0 0 1-1.81 2.09 8.7 8.7 0 0 0 2.36-.59 7.94 7.94 0 0 1-2.05 1.95l.02.5z"/></symbol><symbol viewBox="0 0 22 19" id="icon-set6_community-b" xmlns="http://www.w3.org/2000/svg"><path d="M20.89 10.47a6.53 6.53 0 0 0-1.99-1.93 5.04 5.04 0 0 0 1.5-3.59A4.88 4.88 0 0 0 15.61 0c-1.56 0-3.03.8-3.92 2.11a5.09 5.09 0 0 0-1.38 0A4.77 4.77 0 0 0 6.39 0 4.88 4.88 0 0 0 1.6 4.95c0 1.41.58 2.68 1.5 3.59A6.53 6.53 0 0 0 0 14.19v2.75h4.61V19h12.78v-2.06H22v-2.75c0-1.33-.39-2.62-1.11-3.72zm-5.28-9.25a3.67 3.67 0 0 1 3.61 3.73 3.67 3.67 0 0 1-3.61 3.72h-.1v-.02c.07-.18.12-.37.16-.56l.01-.04.03-.15.01-.08.02-.13.01-.1.01-.12.01-.13.01-.1.01-.22V7l-.01-.22v-.06l-.02-.19v-.04a4.94 4.94 0 0 0-2.84-4.02 3.6 3.6 0 0 1 2.69-1.25zM9.75 3.51l.04-.01.11-.04a.69.69 0 0 1 .08-.03l.06-.01.11-.03a3.41 3.41 0 0 1 1.7 0l.11.03.06.01.08.03.11.04.04.01a3.7 3.7 0 0 1 2.31 2.92l.01.03.01.14.01.05.01.12v.22l.01.02h-.01v.21l-.01.15-.01.06-.01.1-.01.07-.02.12-.02.1-.02.06-.03.15-.02.05-.02.09-.03.06-.02.08-.05.12-.02.06-.05.1v.02l-.02.03-.06.11-.02.04v.01a1.1 1.1 0 0 0-.06.11l-.03.04-.07.12-.05.07-.04.06-.06.08-.03.05-.06.08-.04.04-.07.08-.04.04a.57.57 0 0 1-.11.11.43.43 0 0 1-.06.07l-.05.04-.08.07-.04.04-.1.08-.02.02a3.53 3.53 0 0 1-4.3 0l-.02-.02-.1-.08-.04-.04-.08-.07-.05-.04-.06-.07a.57.57 0 0 1-.11-.11l-.04-.04-.07-.08-.04-.04-.06-.08-.03-.05-.06-.08-.04-.06L8 9.07l-.07-.12-.03-.04-.06-.12-.02-.04-.06-.11-.02-.04-.05-.11a.08.08 0 0 0-.02-.05l-.05-.13-.02-.07-.03-.08a.19.19 0 0 0-.02-.07l-.03-.12-.02-.09-.02-.07-.02-.08-.02-.13-.01-.07-.01-.1-.01-.06-.01-.15v-.05l-.01-.16.01-.18v-.05l.01-.13.01-.05.01-.14.01-.03a3.7 3.7 0 0 1 2.31-2.92zM2.78 4.95a3.67 3.67 0 0 1 3.61-3.73 3.6 3.6 0 0 1 2.69 1.25 4.94 4.94 0 0 0-2.84 4.02v.04l-.02.19v.06l-.01.23.01.23.01.09.01.14.01.12.01.1.02.13.01.08.03.15.01.05.15.54.01.03h-.1a3.67 3.67 0 0 1-3.61-3.72zm2.82 7.78l-.03.06-.08.14-.05.08-.06.12-.05.08-.06.13-.04.08-.06.14a.49.49 0 0 1-.03.07l-.07.17-.02.05-.07.22a.08.08 0 0 0-.02.05l-.06.16-.02.08-.04.15-.02.08-.03.14-.02.09-.03.14-.02.09-.02.15-.02.08-.03.23-.02.21H1.18v-1.53a5.37 5.37 0 0 1 2.99-4.86 4.63 4.63 0 0 0 2.91.51l.11.16.04.05.11.14.05.06.11.13.06.07.11.11.04.04-.15.1-.03.01-.15.11a.22.22 0 0 1-.05.03l-.13.1-.04.03-.16.13-.04.03a1.2 1.2 0 0 1-.12.11l-.05.05-.13.11-.03.03-.15.15-.03.04-.11.12-.05.05-.12.14-.02.02-.13.17-.03.04-.1.13-.04.06a2.5 2.5 0 0 0-.12.17l-.13.2zm.2 3.52v-.27l.01-.13.01-.09.01-.11.01-.09.01-.11.02-.09.01-.11a.3.3 0 0 0 .02-.09.36.36 0 0 0 .02-.1.3.3 0 0 0 .02-.09l.03-.1a.3.3 0 0 0 .02-.09l.03-.1.03-.09.03-.1.03-.09.03-.09.04-.09a.36.36 0 0 1 .04-.09l.03-.09.04-.09a.3.3 0 0 0 .04-.08l.05-.09.04-.09.05-.08.04-.09.05-.08.05-.08.05-.08.06-.08a.22.22 0 0 1 .05-.08l.05-.08.06-.08.06-.07.06-.08.06-.07.06-.08.07-.07.06-.07.07-.07.06-.07.07-.06.07-.07.07-.06.08-.07.07-.06.08-.06.07-.06.08-.06a.55.55 0 0 1 .08-.06l.08-.05a.22.22 0 0 1 .08-.05.55.55 0 0 1 .08-.06l.08-.05.09-.05.08-.05.09-.04.08-.05.07-.03a4.63 4.63 0 0 0 4.44 0l.07.03.08.05.09.04.08.05.09.05.08.05.08.05.08.06.08.05.08.06.08.06.07.06.08.06.07.06.08.07.07.06.07.07.07.06.06.07.07.07.06.07.07.07.06.08.06.07.06.08.06.07.05.08.06.08.05.08.06.08.05.08.05.08.05.08.04.09.05.08.04.09.05.09.04.08.04.09.03.09.04.09.04.09.03.09.03.09.03.1.03.09.03.1.02.09.03.1.02.09.02.1.02.09.01.11.02.09.01.11.01.09.01.11.01.09.01.13v1.8H5.8zm11.52-.97l-.01-.07a4.78 4.78 0 0 0-.03-.16l-.02-.09-.03-.14-.02-.09-.03-.14-.02-.08-.04-.15a.19.19 0 0 1-.02-.08l-.06-.17a.08.08 0 0 0-.02-.04l-.07-.22-.02-.05-.07-.17-.03-.07-.06-.14a1.63 1.63 0 0 1-.1-.21l-.05-.08-.06-.12-.05-.08-.08-.14-.03-.06-.13-.2a2.5 2.5 0 0 0-.12-.17l-.04-.05a1.21 1.21 0 0 0-.1-.14l-.03-.04-.13-.17-.02-.02-.12-.14-.05-.05-.11-.12-.03-.04-.15-.15-.03-.03-.13-.11-.05-.05a1.2 1.2 0 0 1-.12-.11l-.04-.03-.16-.13-.04-.03a.64.64 0 0 1-.13-.1.22.22 0 0 1-.05-.03l-.15-.11-.03-.01-.15-.1a.08.08 0 0 1 .04-.04.57.57 0 0 1 .11-.11l.05-.07.12-.13a.12.12 0 0 1 .05-.05l.11-.15.04-.05.11-.16a4.63 4.63 0 0 0 2.91-.51 5.37 5.37 0 0 1 2.99 4.86v1.53h-3.45l-.05-.44z"/></symbol><symbol viewBox="0 0 20 20" id="icon-set6_key" xmlns="http://www.w3.org/2000/svg"><path d="M13.13 0a6.82 6.82 0 0 0-6.42 9.16L.15 15.62a.47.47 0 0 0-.15.35v3.54c0 .27.22.49.5.49h2.96a.5.5 0 0 0 .35-.14l1-.98c.1-.1.15-.22.15-.35v-1.21h1.22a.5.5 0 0 0 .5-.49v-.48h.49a.5.5 0 0 0 .5-.5v-1.06h1.08a.5.5 0 0 0 .35-.14l1.6-1.57A6.82 6.82 0 0 0 20 6.76 6.82 6.82 0 0 0 13.13 0zm0 12.53c-.82 0-1.61-.16-2.35-.48a.5.5 0 0 0-.55.1h-.01l-1.68 1.66H7.17a.5.5 0 0 0-.5.49v1.06h-.49a.5.5 0 0 0-.5.49v.49H4.46a.5.5 0 0 0-.5.49v1.49l-.71.69H1v-.69l6.12-6.02a.45.45 0 0 0 0-.63.47.47 0 0 0-.64 0L1 17.06v-.89l6.65-6.55h.01a.49.49 0 0 0 .1-.54 5.59 5.59 0 0 1-.49-2.32A5.82 5.82 0 0 1 13.13.99 5.83 5.83 0 0 1 19 6.76a5.83 5.83 0 0 1-5.87 5.77z"/><path d="M15.5 3a1.5 1.5 0 1 0 0 3 1.5 1.5 0 0 0 0-3zm0 2.2a.7.7 0 0 1-.7-.7c0-.39.31-.7.7-.7.39 0 .7.31.7.7a.7.7 0 0 1-.7.7z"/></symbol><symbol viewBox="0 0 21 13" id="icon-set6_mail" xmlns="http://www.w3.org/2000/svg"><path d="M20.99 1.09A1.1 1.1 0 0 0 19.91 0L1.07.03A1.07 1.07 0 0 0 0 1.12l.01 10.79c0 .29.12.56.32.77.2.21.47.32.76.32l18.84-.03c.59 0 1.07-.49 1.07-1.09zm-2.26.01L10.5 6.92l-8.24-5.8zm-4.75 6.92l4.88 3.86-16.73.02 4.91-3.88a.55.55 0 0 0 .09-.76.52.52 0 0 0-.75-.1l-5.29 4.18-.01-9.72 9.12 6.42c.09.07.19.1.3.1a.5.5 0 0 0 .31-.1l9.1-6.45.01 9.74-5.28-4.17a.53.53 0 0 0-.76.1.55.55 0 0 0 .1.76z"/></symbol><symbol viewBox="0 0 23 23" id="icon-set6_planet" xmlns="http://www.w3.org/2000/svg"><path d="M20.1 19.12a11.46 11.46 0 0 0-.22-15.49h-.01A11.46 11.46 0 0 0 11.9.01L11.67 0h-.34l-.23.01a11.46 11.46 0 0 0-7.97 3.62h-.01v.01a11.44 11.44 0 0 0-.22 15.48v.01l.03.03a11.47 11.47 0 0 0 8.17 3.83l.23.01h.34l.23-.01a11.48 11.48 0 0 0 8.18-3.84l.01-.02.01-.01zM.8 11.9h4.76c.05 1.68.38 3.31.96 4.84a14.8 14.8 0 0 0-3.22 1.64A10.7 10.7 0 0 1 .8 11.9zm2.72-7.53c.99.64 2.04 1.16 3.13 1.54a14.73 14.73 0 0 0-1.09 5.19H.8a10.7 10.7 0 0 1 2.72-6.73zM22.2 11.1h-4.76c-.05-1.8-.42-3.56-1.09-5.19 1.09-.38 2.14-.9 3.13-1.54a10.7 10.7 0 0 1 2.72 6.73zM11.1 5.93a13.6 13.6 0 0 1-3.36-.51 14.06 14.06 0 0 1 3.36-4.37zm0 .8v4.37H6.36c.04-1.72.41-3.39 1.05-4.94 1.2.34 2.43.53 3.69.57zm.8 0c1.26-.04 2.49-.23 3.69-.57a13.78 13.78 0 0 1 1.05 4.94H11.9zm0-.8V1.05a14.06 14.06 0 0 1 3.36 4.37 13.6 13.6 0 0 1-3.36.51zm4.12-.75A14.54 14.54 0 0 0 12.9.89c2.32.3 4.41 1.35 6.02 2.9-.92.58-1.89 1.05-2.9 1.39zm-9.04 0a13.55 13.55 0 0 1-2.9-1.39c1.61-1.55 3.7-2.6 6.02-2.9a14.54 14.54 0 0 0-3.12 4.29zm-.62 6.72h4.74v3.98c-1.31.03-2.59.24-3.83.61-.56-1.45-.87-3-.91-4.59zm4.74 4.77v5.28a13.85 13.85 0 0 1-3.52-4.72c1.14-.34 2.32-.53 3.52-.56zm.8 5.28v-5.28c1.2.03 2.38.22 3.52.56-.81 1.78-2 3.4-3.52 4.72zm0-6.07V11.9h4.74a13.68 13.68 0 0 1-.91 4.59 14.52 14.52 0 0 0-3.83-.61zm5.54-3.98h4.76a10.7 10.7 0 0 1-2.5 6.48 14.8 14.8 0 0 0-3.22-1.64c.58-1.53.91-3.16.96-4.84zm-13.6 7.07c.94-.62 1.94-1.12 2.98-1.5a14.74 14.74 0 0 0 3.28 4.64 10.68 10.68 0 0 1-6.26-3.14zm9.06 3.14c1.4-1.33 2.5-2.91 3.28-4.64 1.04.38 2.04.88 2.98 1.5a10.68 10.68 0 0 1-6.26 3.14z"/></symbol><symbol viewBox="0 0 15 20" id="icon-set6_video-conference" xmlns="http://www.w3.org/2000/svg"><path d="M0 2.69v14.63a2.89 2.89 0 0 0 2.38 2.67l.26.01c.9 0 1.69-.58 2.31-1.05l.32-.22c.87-.62 1.73-1.28 2.56-1.92.72-.55 1.46-1.12 2.2-1.65.69-.49 1.37-1 2.04-1.5l.74-.55C13.98 12.27 15 11.54 15 10c0-1.59-1.23-2.44-2.19-3.1l-.44-.32-.52-.37a237.43 237.43 0 0 0-4.4-3.27l-.62-.45c-.54-.39-1.09-.8-1.65-1.17A7.9 7.9 0 0 1 4.76 1C4.21.55 3.52 0 2.68 0c-.34 0-.76.09-1.06.27C.92.69 0 1.58 0 2.69zm2.39-1.01a.5.5 0 0 1 .24-.06c.32 0 .8.37 1.17.66.18.15.36.28.54.4a52.99 52.99 0 0 1 2.23 1.59c1.47 1.06 2.91 2.14 4.38 3.25l.55.4.44.32c1.05.72 1.52 1.15 1.52 1.76 0 .61-.31.9-1.53 1.78l-.75.56-2.02 1.49c-.76.55-1.51 1.12-2.23 1.68-.82.62-1.67 1.27-2.51 1.88l-.35.25c-.44.33-.98.74-1.39.74h-.15c-.41-.04-.99-.62-.99-1.06V2.69c0-.32.43-.76.85-1.01z"/></symbol><symbol viewBox="0 0 20 15" id="icon-set10_academic-cap-c" xmlns="http://www.w3.org/2000/svg"><path d="M11.46 10.46c-.34.2-.77.31-1.22.31-.45 0-.88-.11-1.22-.31L3.5 7.15s-.5-.3-.5.38v3.3c0 1.74 3.24 3.61 7.24 3.61s7.24-1.87 7.24-3.61V7.34c0-.54-.36-.28-.36-.28z"/><path d="M19.68 5.22c.42-.25.42-.67 0-.92L11.27.19a1.67 1.67 0 0 0-1.54 0L1.32 4.3c-.43.25-.43.67 0 .92l8.41 5.03c.42.26 1.12.26 1.54 0"/></symbol><symbol viewBox="0 0 16 20" id="icon-set10_bell" xmlns="http://www.w3.org/2000/svg"><path d="M8 19.5a2 2 0 0 0 2-2H6a2 2 0 0 0 2 2zm8-4v1H0v-1l2-2v-5c0-3.08 1.63-5.64 4.5-6.32V1.5a1.5 1.5 0 1 1 3 0v.68c2.86.68 4.5 3.25 4.5 6.32v5z"/></symbol><symbol viewBox="0 0 22 20" id="icon-set10_burger" xmlns="http://www.w3.org/2000/svg"><path d="M.83 2.29h20.34c.46 0 .83-.52.83-1.15C22 .51 21.63 0 21.17 0H.83C.37 0 0 .51 0 1.14c0 .63.37 1.15.83 1.15zm0 9h20.34c.46 0 .83-.52.83-1.15 0-.63-.37-1.14-.83-1.14H.83C.37 9 0 9.51 0 10.14c0 .63.37 1.15.83 1.15zm0 8h20.34c.46 0 .83-.52.83-1.15 0-.63-.37-1.14-.83-1.14H.83c-.46 0-.83.51-.83 1.14 0 .63.37 1.15.83 1.15z"/></symbol><symbol viewBox="0 0 38.4 33.2" id="icon-set7_diagramma" xmlns="http://www.w3.org/2000/svg"><path stroke="none" d="M37.44 31.59H34.6V2.34a.76.76 0 0 0-.76-.76h-7.71a.76.76 0 0 0-.76.76v29.25h-1.74V13.47a.76.76 0 0 0-.76-.76h-7.71a.76.76 0 0 0-.76.76v18.12h-1.75v-6.18a.76.76 0 0 0-.75-.76H4.18a.76.76 0 0 0-.75.76v6.18H1.71V.85A.75.75 0 0 0 .96.1.76.76 0 0 0 .2.85v31.5c0 .41.34.75.76.75h36.48c.42 0 .76-.34.76-.75a.76.76 0 0 0-.76-.76zm-32.5 0v-5.43h6.2v5.43zm17.17 0h-6.2V14.22h6.2zm10.98 0h-6.2V3.09h6.2z"/><path stroke-miterlimit="50" stroke-width=".4" d="M37.44 31.59H34.6V2.34a.76.76 0 0 0-.76-.76h-7.71a.76.76 0 0 0-.76.76v29.25h-1.74V13.47a.76.76 0 0 0-.76-.76h-7.71a.76.76 0 0 0-.76.76v18.12h-1.75v-6.18a.76.76 0 0 0-.75-.76H4.18a.76.76 0 0 0-.75.76v6.18H1.71V.85A.75.75 0 0 0 .96.1.76.76 0 0 0 .2.85v31.5c0 .41.34.75.76.75h36.48c.42 0 .76-.34.76-.75a.76.76 0 0 0-.76-.76zm-32.5 0v-5.43h6.2v5.43zm17.17 0h-6.2V14.22h6.2zm10.98 0h-6.2V3.09h6.2z"/></symbol><symbol viewBox="0 0 38 38" id="icon-set10_dialog" xmlns="http://www.w3.org/2000/svg"><path d="M25.62 12.81a12.81 12.81 0 1 0-23.39 7.21L.54 25.07l5.05-1.68a12.8 12.8 0 0 0 20.03-10.58z"/><path d="M37.03 24.22c0-5.73-3.77-10.59-8.97-12.22.02.28.02.56.02.84 0 2.05-.4 4.05-1.2 5.93a15.01 15.01 0 0 1-3.26 4.85c-1.4 1.4-3.03 2.5-4.85 3.26-1.88.8-3.88 1.2-5.93 1.2l-.84-.02a12.81 12.81 0 0 0 19.44 6.74l5.05 1.68-1.69-5.04a12.72 12.72 0 0 0 2.23-7.22z"/></symbol><symbol viewBox="0 0 35 44" id="icon-set10_document" xmlns="http://www.w3.org/2000/svg"><g fill-rule="evenodd"><path d="M17.54 32.08a.65.65 0 0 1-.64-.65v-14.6a.65.65 0 1 1 1.29 0v14.6c0 .36-.29.65-.65.65z"/><path d="M17.54 32.08a.64.64 0 0 1-.45-.2l-5.55-5.57a.65.65 0 0 1 0-.92.64.64 0 0 1 .91 0l5.1 5.12 5.08-5.12a.64.64 0 0 1 .91 0c.25.25.25.66 0 .92L18 31.89a.63.63 0 0 1-.46.19z"/><path d="M31.6 43.09H3.5a3.23 3.23 0 0 1-3.22-3.24V3.24A3.23 3.23 0 0 1 3.49 0H23.9c.36 0 .65.29.65.65 0 .35-.3.64-.65.64H3.5c-1.07 0-1.94.88-1.94 1.95v36.61c0 1.07.87 1.94 1.93 1.94H31.6c1.06 0 1.93-.87 1.93-1.94V11.26c0-.35.29-.64.64-.64.36 0 .64.29.64.64v28.6a3.23 3.23 0 0 1-3.21 3.23z"/><path d="M34.17 11.91H23.9a.65.65 0 0 1-.64-.65V.93c0-.36.29-.65.64-.65.36 0 .65.3.65.65v9.69h9.62a.65.65 0 0 1 0 1.3z"/><path d="M34.17 11.91a.64.64 0 0 1-.46-.2L23.44 1.1a.65.65 0 0 1 .02-.91.64.64 0 0 1 .9 0l10.27 10.62c.25.26.24.67-.01.92a.64.64 0 0 1-.45.18z"/></g></symbol><symbol viewBox="0 0 19 19" id="icon-set10_download" xmlns="http://www.w3.org/2000/svg"><path d="M0 9.5C0 14.77 4.23 19 9.5 19S19 14.77 19 9.5 14.77 0 9.5 0A9.47 9.47 0 0 0 0 9.5zm9.8 5.48a.43.43 0 0 1-.3.13.37.37 0 0 1-.3-.13L5.31 11.1a.38.38 0 0 1-.13-.3.4.4 0 0 1 .13-.31l.61-.6a.42.42 0 0 1 .6 0l1.73 1.73c.13.13.39.04.39-.18V4.32c0-.26.17-.43.43-.43h.86c.26 0 .43.17.43.43v7.17c0 .17.22.3.39.17l1.73-1.73a.42.42 0 0 1 .6 0l.61.61a.4.4 0 0 1 .13.3c0 .09-.05.17-.13.26z"/></symbol><symbol viewBox="0 0 27 18" id="icon-set10_filter" xmlns="http://www.w3.org/2000/svg"><path d="M10.5 18v-3h6v3zM0 0h27v3H0zm22.5 10.5v-3h-18v3z"/></symbol><symbol viewBox="0 0 14 11" id="icon-set10_flag" xmlns="http://www.w3.org/2000/svg"><path d="M1.64.27A.94.94 0 0 0 .96 0a.96.96 0 0 0-.68.27.85.85 0 0 0-.28.65c0 .34.16.6.48.78v9.06c0 .06.02.12.07.16.05.05.11.07.17.07h.48c.07 0 .12-.02.17-.07a.2.2 0 0 0 .07-.16V1.7c.32-.18.48-.44.48-.78a.85.85 0 0 0-.28-.65zm11.28.87a.5.5 0 0 0-.34-.14c-.07 0-.2.05-.41.15-.21.1-.43.21-.66.34-.23.12-.51.23-.83.33-.32.1-.61.15-.88.15-.25 0-.47-.04-.66-.13-.63-.28-1.18-.49-1.65-.63A5.13 5.13 0 0 0 5.99 1c-.93 0-1.98.29-3.16.86a7.1 7.1 0 0 0-.6.31c-.15.11-.23.24-.23.39v5.31c0 .12.05.23.14.32.1.09.21.14.34.14.08 0 .16-.03.25-.07a7.9 7.9 0 0 1 3.49-1.04 3.9 3.9 0 0 1 1.93.5c.23.12.51.24.82.34.31.11.62.16.93.16a6.36 6.36 0 0 0 3.07-1.03c.06-.06.09-.15.09-.27V1.46a.43.43 0 0 0-.14-.32z"/></symbol><symbol viewBox="0 0 19 17" id="icon-set10_heart" xmlns="http://www.w3.org/2000/svg"><path d="M9.5 16.97l-1.33-1.29C3.23 11.44 0 8.58 0 5.07A5.08 5.08 0 0 1 5.23 0C6.84 0 8.46.74 9.5 1.94A5.79 5.79 0 0 1 13.78 0 5.07 5.07 0 0 1 19 5.07c0 3.51-3.23 6.37-8.17 10.61z"/></symbol><symbol viewBox="0 0 16 16" id="icon-set10_information" xmlns="http://www.w3.org/2000/svg"><path d="M0 8a8.01 8.01 0 0 0 16 0A8.01 8.01 0 0 0 0 8zm1.45 0a6.56 6.56 0 0 1 13.1 0 6.56 6.56 0 0 1-13.1 0z"/><path d="M7.97 3a.97.97 0 0 0 0 1.94c.53 0 .97-.44.97-.97A.98.98 0 0 0 7.97 3zm-.24 4c-.4 0-.73.33-.73.73v4.36c0 .4.33.73.73.73.4 0 .72-.33.72-.73V7.73c0-.4-.32-.73-.72-.73z"/></symbol><symbol viewBox="0 0 10 16" id="icon-set10_location" xmlns="http://www.w3.org/2000/svg"><use xlink:href="#boa" transform="translate(.03)"/><defs><path id="boa" fill-rule="evenodd" d="M4.95 0c1.36 0 2.6.57 3.5 1.48.89.9 1.44 2.17 1.44 3.56 0 1.4-.89 3.1-1.66 4.59-.24.45-.47.88-.65 1.27L5.3 15.72a.4.4 0 0 1-.72 0L2.3 10.9c-.18-.39-.4-.82-.64-1.27C.9 8.14 0 6.45 0 5.03 0 3.66.56 2.4 1.45 1.49A4.89 4.89 0 0 1 4.95 0zm0 2.57c.67 0 1.27.28 1.71.72A2.49 2.49 0 0 1 4.95 7.5c-.67 0-1.28-.27-1.72-.72a2.49 2.49 0 0 1 0-3.5 2.42 2.42 0 0 1 1.72-.71zm1.14 1.3a1.6 1.6 0 0 0-2.3 0 1.66 1.66 0 0 0 0 2.33 1.6 1.6 0 0 0 2.3 0 1.66 1.66 0 0 0 0-2.34zm1.79-1.82a4.09 4.09 0 0 0-5.86 0A4.23 4.23 0 0 0 .8 5.04c0 1.21.84 2.8 1.58 4.2l.65 1.3 1.92 4.06 1.9-4.05.67-1.3c.73-1.4 1.57-3 1.57-4.21 0-1.17-.46-2.22-1.21-2.99z"/></defs></symbol><symbol viewBox="0 0 24 25" id="icon-set10_magnifier" xmlns="http://www.w3.org/2000/svg"><path d="M0 8.6a8.5 8.5 0 0 0 8.37 8.59 8.2 8.2 0 0 0 5.19-1.85l8.89 9.12c.14.15.32.22.5.22.19 0 .37-.07.51-.22a.75.75 0 0 0 0-1.04l-8.86-9.09a8.64 8.64 0 0 0 2.15-5.73A8.5 8.5 0 0 0 8.37 0 8.5 8.5 0 0 0 0 8.6zm8.37-7.13c3.83 0 6.95 3.2 6.95 7.13a7.2 7.2 0 0 1-2.08 5.07.52.52 0 0 0-.17.13c-.04.03-.07.08-.1.12a6.8 6.8 0 0 1-4.6 1.8A7.05 7.05 0 0 1 1.43 8.6a7.05 7.05 0 0 1 6.94-7.13z"/></symbol><symbol viewBox="0 0 14 27" id="icon-arrow-back" xmlns="http://www.w3.org/2000/svg"><path d="M12.42 26.72c.18.19.41.28.66.28.24 0 .47-.09.65-.28a.98.98 0 0 0 0-1.35L2.25 13.5 13.73 1.63a.98.98 0 0 0 0-1.35.91.91 0 0 0-1.31 0L.27 12.83a.97.97 0 0 0 0 1.34z"/></symbol><symbol viewBox="0 0 26 20" id="icon-set10_nav-menu" xmlns="http://www.w3.org/2000/svg"><path d="M24.41 19.61H7.28A1.3 1.3 0 0 1 6 18.3c0-.72.57-1.3 1.28-1.3h17.13c.71 0 1.28.58 1.28 1.3a1.3 1.3 0 0 1-1.28 1.31zm0-8H7.28A1.3 1.3 0 0 1 6 10.3C6 9.58 6.57 9 7.28 9h17.13c.71 0 1.28.58 1.28 1.3a1.3 1.3 0 0 1-1.28 1.31zm0-8H7.28A1.3 1.3 0 0 1 6 2.3C6 1.58 6.57 1 7.28 1h17.13c.71 0 1.28.58 1.28 1.3a1.3 1.3 0 0 1-1.28 1.31zM0 2C0 .9.67 0 1.5 0S3 .9 3 2s-.67 2-1.5 2S0 3.1 0 2zm0 8c0-1.1.67-2 1.5-2S3 8.9 3 10s-.67 2-1.5 2S0 11.1 0 10zm0 8c0-1.1.67-2 1.5-2s1.5.9 1.5 2-.67 2-1.5 2S0 19.1 0 18z"/></symbol><symbol viewBox="0 0 16 16" id="icon-set10_pin" xmlns="http://www.w3.org/2000/svg"><use xlink:href="#bsa" transform="translate(4.58 3.045)"/><use xlink:href="#bsb" transform="translate(7.29 .003)"/><use xlink:href="#bsc" transform="translate(.63 5.25)"/><use xlink:href="#bsd" transform="translate(0 10.445)"/><defs><path id="bsa" fill-rule="evenodd" d="M4.73 8.37a.61.61 0 0 1-.45-.17L.18 4.1a.6.6 0 0 1 0-.87L3.21.19a.6.6 0 0 1 .86 0l4.1 4.1a.6.6 0 0 1 0 .87L5.13 8.2a.58.58 0 0 1-.41.17zM1.45 3.64l3.23 3.25L6.85 4.7 3.62 1.46 1.45 3.64z"/><path id="bsb" fill-rule="evenodd" d="M6.15 8.74c-.62 0-1.27-.25-1.72-.7L.7 4.3A2.52 2.52 0 0 1 .7.8l.62-.6c.25-.25.65-.25.86 0l6.34 6.37c.12.12.16.29.16.45 0 .16-.08.33-.16.45l-.61.62c-.53.41-1.15.66-1.76.66zM1.73 1.5l-.16.17a1.19 1.19 0 0 0 0 1.73l3.72 3.73c.49.5 1.23.5 1.72 0l.16-.16L1.73 1.5z"/><path id="bsc" fill-rule="evenodd" d="M8.06 10.15a.86.86 0 0 1-.45-.16L.16 2.46A.62.62 0 0 1 0 2.01c0-.16.08-.33.16-.45L.9.82a2.77 2.77 0 0 1 3.93 0l4.42 4.44a2.76 2.76 0 0 1 0 3.94l-.74.74c-.12.17-.29.21-.45.21zm-6.63-8.1l6.63 6.66.29-.29c.61-.61.61-1.6 0-2.22L3.93 1.76a1.55 1.55 0 0 0-2.21 0l-.29.3z"/><path id="bsd" fill-rule="evenodd" d="M.63 5.53a.61.61 0 0 1-.45-.16.6.6 0 0 1 0-.87L4.48.2a.6.6 0 0 1 .86 0 .6.6 0 0 1 0 .86L1.08 5.37a.61.61 0 0 1-.45.16z"/></defs></symbol><symbol viewBox="0 0 19 19" id="icon-set10_plus" xmlns="http://www.w3.org/2000/svg"><path d="M0 9.5C0 14.73 4.27 19 9.5 19S19 14.73 19 9.5C19 4.28 14.73 0 9.5 0A9.53 9.53 0 0 0 0 9.5zm10.45.95v3.8h-1.9v-3.8h-3.8v-1.9h3.8v-3.8h1.9v3.8h3.8v1.9z"/></symbol><symbol viewBox="0 0 27 26" id="icon-set10_search" xmlns="http://www.w3.org/2000/svg"><path d="M21.06 10.05C21.06 4.52 16.34 0 10.53 0S0 4.52 0 10.05C0 15.58 4.72 20.1 10.53 20.1c2.37 0 4.54-.75 6.3-2l7.83 7.47a.97.97 0 0 0 1.34 0 .9.9 0 0 0 0-1.29l-7.75-7.41a9.79 9.79 0 0 0 2.81-6.82zM10.53 1.82c4.75 0 8.62 3.68 8.62 8.23 0 4.54-3.86 8.23-8.62 8.23-4.77 0-8.62-3.7-8.62-8.23s3.85-8.23 8.62-8.23z"/></symbol><symbol viewBox="0 0 23 20" id="icon-set10_slider-menu" xmlns="http://www.w3.org/2000/svg"><path d="M22.07 2.73H0V0h22.07zm-8.27 8H0V8h13.8zm8.27 9H0V17h22.07z"/></symbol><symbol viewBox="0 0 35 34" id="icon-set10_star" xmlns="http://www.w3.org/2000/svg"><path d="M17.43 0l5.39 11.15 12.05 1.79-8.72 8.68 2.06 12.26-10.78-5.79-10.77 5.79 2.06-12.26L0 12.94l12.05-1.79L17.43 0"/></symbol><symbol viewBox="0 0 70 70" id="icon-set10_video-play" xmlns="http://www.w3.org/2000/svg"><path d="M27.82 16.2a1.17 1.17 0 0 0-1.2-.07c-.38.21-.62.6-.62 1.04v35c0 .43.24.83.62 1.03a1.17 1.17 0 0 0 1.2-.07l25.67-17.5a1.17 1.17 0 0 0 0-1.93zm.51 3.17l22.43 15.3-22.43 15.29z"/><path d="M0 35c0 19.3 15.7 35 35 35s35-15.7 35-35S54.3 0 35 0 0 15.7 0 35zm2.33 0A32.71 32.71 0 0 1 35 2.33 32.71 32.71 0 0 1 67.67 35 32.71 32.71 0 0 1 35 67.67 32.71 32.71 0 0 1 2.33 35z"/></symbol><symbol viewBox="0 0 91 91" id="icon-set2_academic-cap-a" xmlns="http://www.w3.org/2000/svg"><path fill="none" stroke-miterlimit="50" stroke-width="2" d="M1 45.5a44.5 44.5 0 1 1 89 0 44.5 44.5 0 0 1-89 0z"/><path stroke="none" d="M46.7 50.06L30 45v8.45c0 3.9 7.48 7.07 16.71 7.07 9.22 0 16.7-3.17 16.7-7.07l-.01-.1V45z"/><path stroke="none" d="M19 39.6l5.97 2.1.5-1.08 2.2-.18.31.32-1.88.44-.28.8s-4.24 8.74-3.62 13.01c0 0 2.65 1.56 5.3 0l.71-11.69v-.97l3.94-.88-.28.68-2.94.94 1.36.48 16.7 5.06 16.7-5.06 11.3-3.97-28-10.6z"/></symbol><symbol viewBox="0 0 91 91" id="icon-set2_atom" xmlns="http://www.w3.org/2000/svg"><path fill="none" stroke-miterlimit="50" stroke-width="2" d="M1 45.5a44.5 44.5 0 1 1 89 0 44.5 44.5 0 0 1-89 0z"/><path  d="M39.18 38.12l-3.22-3.05a4.78 4.78 0 1 0-1.65 1.76l3.22 3.04c.49-.65 1.04-1.24 1.65-1.75zm12.88-.56l4.29-7.2a4.78 4.78 0 1 0-2.08-1.22L50 36.33c.73.33 1.43.75 2.06 1.23zM67.66 44a4.77 4.77 0 0 0-4.47 3.13l-5.96-.59.01.13c0 .78-.09 1.54-.24 2.27l5.95.59A4.77 4.77 0 1 0 67.66 44zM50.93 62.81L49.6 57c-.75.26-1.54.45-2.35.54l1.33 5.82a4.76 4.76 0 0 0 2.2 9 4.77 4.77 0 0 0 .15-9.55zM35.19 49l-7.41 2.48a4.79 4.79 0 1 0 .78 2.61c0-.11-.02-.21-.03-.32l7.43-2.49c-.33-.72-.6-1.48-.77-2.28zM38 46a8 8 0 1 1 16 0 8 8 0 0 1-16 0z"/></symbol><symbol viewBox="0 0 91 91" id="icon-set2_calendar-a" xmlns="http://www.w3.org/2000/svg"><path fill="none" stroke-miterlimit="50" stroke-width="2" d="M1 45.5a44.5 44.5 0 1 1 89 0 44.5 44.5 0 0 1-89 0z"/><path   stroke="none" d="M34.69 34.74h.62A1.7 1.7 0 0 0 37 33.05v-6.37c0-.93-.76-1.68-1.69-1.68h-.62c-.93 0-1.69.75-1.69 1.68v6.37c0 .93.76 1.69 1.69 1.69zm22 0h.62A1.7 1.7 0 0 0 59 33.05v-6.37c0-.93-.76-1.68-1.69-1.68h-.62c-.93 0-1.69.75-1.69 1.68v6.37c0 .93.76 1.69 1.69 1.69z"/><path stroke="none" d="M59.9 28v5.04c0 1.68-1.38 2.6-3.07 2.6h-.61a3.05 3.05 0 0 1-3.07-3.04V28H38.19v4.64a3.07 3.07 0 0 1-3.07 3.05h-.61a3.06 3.06 0 0 1-3.07-3.05V28h-4.69A2.74 2.74 0 0 0 24 30.73v33.02a2.75 2.75 0 0 0 2.75 2.74h37.49A2.75 2.75 0 0 0 67 63.75V30.73c0-1.5-1.24-2.73-2.76-2.73zM26.75 63.75V38.82h37.49l.01 24.93h-.01z"/><path stroke="none" d="M47.35 47.95h4.95c.19 0 .35-.15.35-.35v-4.25a.35.35 0 0 0-.35-.35h-4.95a.35.35 0 0 0-.35.35v4.25c0 .2.16.35.35.35zm8 0h4.95c.19 0 .35-.15.35-.35v-4.25a.35.35 0 0 0-.35-.35h-4.95a.35.35 0 0 0-.35.35v4.25c0 .2.16.35.35.35zm-25 7h4.95c.19 0 .35-.15.35-.35v-4.25a.35.35 0 0 0-.35-.35h-4.95a.35.35 0 0 0-.35.35v4.25c0 .2.16.35.35.35zm9 0h4.95c.19 0 .35-.15.35-.35v-4.25a.35.35 0 0 0-.35-.35h-4.95a.35.35 0 0 0-.35.35v4.25c0 .2.16.35.35.35zm8 0h4.95c.19 0 .35-.15.35-.35v-4.25a.35.35 0 0 0-.35-.35h-4.95a.35.35 0 0 0-.35.35v4.25c0 .2.16.35.35.35zm8 0h4.95c.19 0 .35-.15.35-.35v-4.25a.35.35 0 0 0-.35-.35h-4.95a.35.35 0 0 0-.35.35v4.25c0 .2.16.35.35.35zM35.3 57h-4.95a.35.35 0 0 0-.35.35v4.25c0 .2.16.35.35.35h4.95c.19 0 .35-.15.35-.35v-4.25a.35.35 0 0 0-.35-.35zm9 0h-4.95a.35.35 0 0 0-.35.35v4.25c0 .2.16.35.35.35h4.95c.19 0 .35-.15.35-.35v-4.25a.35.35 0 0 0-.35-.35zm8 0h-4.95a.35.35 0 0 0-.35.35v4.25c0 .2.16.35.35.35h4.95c.19 0 .35-.15.35-.35v-4.25a.35.35 0 0 0-.35-.35zm8 0h-4.95a.35.35 0 0 0-.35.35v4.25c0 .2.16.35.35.35h4.95c.19 0 .35-.15.35-.35v-4.25a.35.35 0 0 0-.35-.35z"/></symbol><symbol viewBox="0 0 91 91" id="icon-set2_notepad" xmlns="http://www.w3.org/2000/svg"><path fill="none" stroke-miterlimit="50" stroke-width="2" d="M1 45.5a44.5 44.5 0 1 1 89 0 44.5 44.5 0 0 1-89 0z"/><path stroke="none" d="M56.87 28.29v-1.55c0-.96-.78-1.74-1.75-1.74h-.63c-.96 0-1.74.78-1.74 1.74v1.55H40.57v-1.55c0-.96-.78-1.74-1.74-1.74h-.64c-.96 0-1.74.78-1.74 1.74v1.55H33.7a4.7 4.7 0 0 0-4.7 4.69v27.89a4.7 4.7 0 0 0 4.7 4.7h25.22a4.7 4.7 0 0 0 4.7-4.7V32.98a4.7 4.7 0 0 0-4.7-4.69zm2.05 34.45H33.7a1.87 1.87 0 0 1-1.87-1.87V32.98c0-1.03.84-1.87 1.87-1.87h2.75v2.22c0 .96.78 1.74 1.74 1.74h.64c.96 0 1.74-.78 1.74-1.74v-2.22h12.18v2.22c0 .96.78 1.74 1.74 1.74h.63c.97 0 1.75-.78 1.75-1.74v-2.22h2.05c1.03 0 1.87.84 1.87 1.87v27.89c0 1.03-.84 1.87-1.87 1.87z"/><path stroke="none"  d="M56.02 39h-18.6c-.79 0-1.42.63-1.42 1.41 0 .78.63 1.42 1.42 1.42h18.6a1.42 1.42 0 0 0 0-2.83zm-1 6h-18.6c-.79 0-1.42.63-1.42 1.41 0 .78.63 1.42 1.42 1.42h18.6a1.42 1.42 0 0 0 0-2.83zm0 5h-18.6c-.79 0-1.42.63-1.42 1.41 0 .78.63 1.42 1.42 1.42h18.6a1.42 1.42 0 0 0 0-2.83zm0 6h-18.6c-.79 0-1.42.63-1.42 1.41 0 .78.63 1.42 1.42 1.42h18.6a1.42 1.42 0 0 0 0-2.83z"/></symbol>
<symbol viewBox="0 0 37 32" id="icon-set7_academic-cap-b" xmlns="http://www.w3.org/2000/svg"><path d="M37 29.71A2.3 2.3 0 0 1 34.69 32a2.3 2.3 0 0 1-2.31-2.29c0-1.26 1.03-4.57 2.31-4.57 1.27 0 2.31 3.31 2.31 4.57zm-2.31-18.28c.64 0 1.15.51 1.15 1.14v10.29c0 .63-.51 1.14-1.15 1.14-.64 0-1.16-.51-1.16-1.14V12.57c0-.63.52-1.14 1.16-1.14zm-.38-1.23l-3.09.7v9.67c0 3.03-3.51 5.72-12.72 5.72S5.78 23.6 5.78 20.57V10.9l-3.09-.7a3.43 3.43 0 0 1 0-6.68L17.72.09a3.53 3.53 0 0 1 1.54-.01l15.05 3.44a3.42 3.42 0 0 1 0 6.68zm-5.4 1.23l-9.63 2.2a3.5 3.5 0 0 1-1.55 0l-9.64-2.2v9.14c0 1.26 3.47 3.43 10.41 3.43 6.94 0 10.41-2.17 10.41-3.43zm4.88-3.46a1.14 1.14 0 0 0 0-2.23L18.76 2.31l-.26-.02-.26.02L3.21 5.74a1.14 1.14 0 1 0 0 2.23l15.03 3.43.26.03.26-.03z"/></symbol><symbol viewBox="0 0 43 37" id="icon-set7_building" xmlns="http://www.w3.org/2000/svg"><path d="M42.09 37H.91a.9.9 0 0 1-.91-.89.9.9 0 0 1 .91-.89h41.18c.5 0 .91.4.91.89a.9.9 0 0 1-.91.89zm-1.67-4.07a.9.9 0 0 1-.91-.89V12.33H16.83a.9.9 0 0 1-.92-.89.9.9 0 0 1 .92-.89h23.59c.5 0 .91.4.91.89v20.6a.9.9 0 0 1-.91.89zm-31.64 0a.9.9 0 0 1-.91-.89V17.43a.9.9 0 0 1 .91-.89c.5 0 .91.4.91.89v14.61a.9.9 0 0 1-.91.89zm27.77-1.77h-3.71a.9.9 0 0 1-.91-.89v-5.19c0-.49.4-.89.91-.89h3.71c.5 0 .91.4.91.89v5.19a.9.9 0 0 1-.91.89zm-2.8-1.79h1.89v-3.4h-1.89zm-4.64 1.79H25.4a.9.9 0 0 1-.91-.89v-5.19a.9.9 0 0 1 .91-.89h3.71c.51 0 .91.4.91.89v5.19a.9.9 0 0 1-.91.89zm-2.8-1.79h1.89v-3.4h-1.89zm-4.63 1.79h-3.71a.9.9 0 0 1-.91-.89v-5.19c0-.49.4-.89.91-.89h3.71c.5 0 .91.4.91.89v5.19a.9.9 0 0 1-.91.89zm-2.8-1.79h1.89v-3.4h-1.89zM4.75 27.48a.9.9 0 0 1-.76-.4 5.44 5.44 0 0 1-.93-2.82A5.66 5.66 0 0 1 0 19.3a5.66 5.66 0 0 1 3.06-4.96 5.68 5.68 0 0 1 5.72-5.37 5.68 5.68 0 0 1 5.72 5.37 5.66 5.66 0 0 1 3.06 4.96 5.66 5.66 0 0 1-3.06 4.96c-.04 1-.36 1.96-.92 2.81a.92.92 0 0 1-1.26.26.9.9 0 0 1-.27-1.24 3.7 3.7 0 0 0 .64-2.08l-.01-.26a.88.88 0 0 1 .57-.89c1.49-.57 2.49-2 2.49-3.56s-1-2.99-2.49-3.56a.9.9 0 0 1-.57-.89l.01-.27a3.87 3.87 0 0 0-3.91-3.82 3.87 3.87 0 0 0-3.91 3.82l.01.27a.9.9 0 0 1-.57.89c-1.49.57-2.49 2-2.49 3.56s1 2.99 2.49 3.56c.37.14.6.5.57.89l-.01.26c0 .75.23 1.47.64 2.09a.89.89 0 0 1-.76 1.38zm31.8-5.65h-3.71a.9.9 0 0 1-.91-.89v-5.19c0-.49.4-.89.91-.89h3.71c.5 0 .91.4.91.89v5.19a.9.9 0 0 1-.91.89zm-2.8-1.78h1.89v-3.41h-1.89zm-4.64 1.78H25.4a.9.9 0 0 1-.91-.89v-5.19a.9.9 0 0 1 .91-.89h3.71c.51 0 .91.4.91.89v5.19a.9.9 0 0 1-.91.89zm-2.8-1.78h1.89v-3.41h-1.89zm-4.63 1.78h-1.73a.9.9 0 0 1-.91-.89c0-.5.41-.89.91-.89h.82v-3.41h-.82a.9.9 0 0 1-.91-.89.9.9 0 0 1 .91-.89h1.73c.5 0 .91.4.91.89v5.19a.9.9 0 0 1-.91.89zM37.74 8.94a.9.9 0 0 1-.91-.9V1.78H23.89v6.26c0 .5-.41.9-.92.9a.9.9 0 0 1-.91-.9V.89a.9.9 0 0 1 .91-.89h14.77c.51 0 .91.4.91.89v7.15c0 .5-.4.9-.91.9zm-3.79-1.46a.9.9 0 0 1-.91-.89V4.86a.9.9 0 0 1 .91-.89c.51 0 .92.4.92.89v1.73a.9.9 0 0 1-.92.89zm-3.59 0a.9.9 0 0 1-.91-.89V4.86a.9.9 0 0 1 .91-.89c.5 0 .91.4.91.89v1.73a.9.9 0 0 1-.91.89zm-2.68-.89V4.86a.9.9 0 0 0-.92-.89.9.9 0 0 0-.91.89v1.73c0 .5.41.89.91.89a.9.9 0 0 0 .92-.89z"/></symbol><symbol viewBox="0 0 33.25 31.25" id="icon-set7_calendar-c" xmlns="http://www.w3.org/2000/svg"><path stroke="none" d="M30.65 3.37h-3.23V1.54c0-.77-.64-1.42-1.4-1.42h-2c-.75 0-1.39.65-1.39 1.42v1.83H10.78V1.54c0-.77-.63-1.42-1.4-1.42h-2C6.63.12 6 .77 6 1.54v1.83H2.6A2.51 2.51 0 0 0 .14 5.9v22.7a2.51 2.51 0 0 0 2.48 2.52h28.04a2.51 2.51 0 0 0 2.48-2.52V5.9a2.51 2.51 0 0 0-2.47-2.53zm-6.53-1.7h1.82v4.46h-1.82zm-16.65 0H9.3v4.46H7.47zm-4.82 3.2h3.38v1.34c0 .78.64 1.44 1.4 1.44h2c.75 0 1.4-.66 1.4-1.44V4.87h11.8v1.34c0 .78.64 1.44 1.4 1.44h2c.75 0 1.4-.66 1.4-1.44V4.87h3.26a1 1 0 0 1 1 1.02v4.06H1.64V5.9a1 1 0 0 1 1-1.02zm28 24.75h-28a1 1 0 0 1-1-1.02V11.46h30V28.6a1 1 0 0 1-1 1.02zM7.44 14.83h-2.4c-.4 0-.72.32-.72.73 0 .4.31.73.71.73h2.4c.4 0 .72-.33.72-.73 0-.4-.32-.77-.71-.73zm6.9 0h-2.4c-.4 0-.71.32-.71.73 0 .4.32.73.72.73h2.39c.4 0 .72-.33.72-.73 0-.4-.37-.77-.72-.73zm6.85 0h-2.38c-.4 0-.73.32-.73.73 0 .4.32.73.73.73h2.38c.4 0 .73-.33.73-.73 0-.4-.32-.77-.73-.73zm6.92 0h-2.4c-.4 0-.72.32-.72.73 0 .4.32.73.72.73h2.4c.39 0 .7-.33.7-.73 0-.4-.31-.77-.7-.73zm-20.67 5h-2.4c-.4 0-.72.32-.72.73 0 .4.31.73.71.73h2.4c.4 0 .72-.32.72-.73 0-.4-.32-.74-.71-.74zm6.9 0h-2.4c-.4 0-.71.32-.71.73 0 .4.32.73.72.73h2.39c.4 0 .72-.32.72-.73 0-.4-.37-.74-.72-.74zm6.85 0h-2.38c-.4 0-.73.32-.73.73 0 .4.32.73.73.73h2.38a.74.74 0 0 0 0-1.47zm6.92 0h-2.4c-.4 0-.72.32-.72.73 0 .4.32.73.72.73h2.4a.7.7 0 0 0 .7-.73c0-.4-.31-.74-.7-.74zM7.44 24.85h-2.4c-.4 0-.72.33-.72.73 0 .41.31.73.71.73h2.4c.4 0 .72-.31.72-.73 0-.44-.32-.77-.71-.73zm6.9 0h-2.4c-.4 0-.71.33-.71.73 0 .41.32.73.72.73h2.39c.4 0 .72-.31.72-.73 0-.44-.37-.77-.72-.73zm6.85 0h-2.38c-.4 0-.73.33-.73.73 0 .41.32.73.73.73h2.38c.4 0 .73-.31.73-.73 0-.44-.32-.77-.73-.73zm7.62.73a.7.7 0 0 1-.7.73h-2.4a.72.72 0 0 1-.72-.73c0-.4.32-.73.72-.73h2.4c.39-.04.7.3.7.73z"/><path stroke-miterlimit="50" stroke-width=".5" d="M30.65 3.37h-3.23V1.54c0-.77-.64-1.42-1.4-1.42h-2c-.75 0-1.39.65-1.39 1.42v1.83H10.78V1.54c0-.77-.63-1.42-1.4-1.42h-2C6.63.12 6 .77 6 1.54v1.83H2.6A2.51 2.51 0 0 0 .14 5.9v22.7a2.51 2.51 0 0 0 2.48 2.52h28.04a2.51 2.51 0 0 0 2.48-2.52V5.9a2.51 2.51 0 0 0-2.47-2.53zm-6.53-1.7h1.82v4.46h-1.82zm-16.65 0H9.3v4.46H7.47zm-4.82 3.2h3.38v1.34c0 .78.64 1.44 1.4 1.44h2c.75 0 1.4-.66 1.4-1.44V4.87h11.8v1.34c0 .78.64 1.44 1.4 1.44h2c.75 0 1.4-.66 1.4-1.44V4.87h3.26a1 1 0 0 1 1 1.02v4.06H1.64V5.9a1 1 0 0 1 1-1.02zm28 24.75h-28a1 1 0 0 1-1-1.02V11.46h30V28.6a1 1 0 0 1-1 1.02zM7.44 14.83h-2.4c-.4 0-.72.32-.72.73 0 .4.31.73.71.73h2.4c.4 0 .72-.33.72-.73 0-.4-.32-.77-.71-.73zm6.9 0h-2.4c-.4 0-.71.32-.71.73 0 .4.32.73.72.73h2.39c.4 0 .72-.33.72-.73 0-.4-.37-.77-.72-.73zm6.85 0h-2.38c-.4 0-.73.32-.73.73 0 .4.32.73.73.73h2.38c.4 0 .73-.33.73-.73 0-.4-.32-.77-.73-.73zm6.92 0h-2.4c-.4 0-.72.32-.72.73 0 .4.32.73.72.73h2.4c.39 0 .7-.33.7-.73 0-.4-.31-.77-.7-.73zm-20.67 5h-2.4c-.4 0-.72.32-.72.73 0 .4.31.73.71.73h2.4c.4 0 .72-.32.72-.73 0-.4-.32-.74-.71-.74zm6.9 0h-2.4c-.4 0-.71.32-.71.73 0 .4.32.73.72.73h2.39c.4 0 .72-.32.72-.73 0-.4-.37-.74-.72-.74zm6.85 0h-2.38c-.4 0-.73.32-.73.73 0 .4.32.73.73.73h2.38a.74.74 0 0 0 0-1.47zm6.92 0h-2.4c-.4 0-.72.32-.72.73 0 .4.32.73.72.73h2.4a.7.7 0 0 0 .7-.73c0-.4-.31-.74-.7-.74zM7.44 24.85h-2.4c-.4 0-.72.33-.72.73 0 .41.31.73.71.73h2.4c.4 0 .72-.31.72-.73 0-.44-.32-.77-.71-.73zm6.9 0h-2.4c-.4 0-.71.33-.71.73 0 .41.32.73.72.73h2.39c.4 0 .72-.31.72-.73 0-.44-.37-.77-.72-.73zm6.85 0h-2.38c-.4 0-.73.33-.73.73 0 .41.32.73.73.73h2.38c.4 0 .73-.31.73-.73 0-.44-.32-.77-.73-.73zm7.62.73a.7.7 0 0 1-.7.73h-2.4a.72.72 0 0 1-.72-.73c0-.4.32-.73.72-.73h2.4c.39-.04.7.3.7.73z"/></symbol><symbol viewBox="0 0 43 43" id="icon-set7_compass" xmlns="http://www.w3.org/2000/svg"><g transform="translate(1 1)"><use xlink:href="#bda"/><use xlink:href="#bdb"/></g><g transform="translate(4.51 4.51)"><use xlink:href="#bdc"/><use xlink:href="#bdd"/></g><use xlink:href="#bde" transform="translate(20.26 7.55)"/><use xlink:href="#bdf" transform="translate(20.45 32.64)"/><use xlink:href="#bdg" transform="translate(33.5 20.15)"/><use xlink:href="#bdh" transform="translate(7.55 20.15)"/><use xlink:href="#bdi" transform="translate(11.86 11.86)"/><use xlink:href="#bdj" transform="translate(18.73 18.73)"/><defs><path id="bda" fill-rule="evenodd" d="M0 20.5C0 9.2 9.2 0 20.5 0S41 9.2 41 20.5 31.8 41 20.5 41 0 31.8 0 20.5zm1.28 0c0 10.6 8.62 19.22 19.22 19.22S39.72 31.1 39.72 20.5 31.1 1.28 20.5 1.28A19.24 19.24 0 0 0 1.28 20.5z"/><path id="bdb" d="M20.5-.5c-11.58 0-21 9.42-21 21h1c0-11.03 8.97-20 20-20v-1zm21 21c0-11.58-9.42-21-21-21v1c11.03 0 20 8.97 20 20h1zm-21 21c11.58 0 21-9.42 21-21h-1c0 11.03-8.97 20-20 20v1zm-21-21c0 11.58 9.42 21 21 21v-1c-11.03 0-20-8.97-20-20h-1zm21 18.72A18.74 18.74 0 0 1 1.78 20.5h-1A19.74 19.74 0 0 0 20.5 40.22v-1zM39.22 20.5c0 10.32-8.4 18.72-18.72 18.72v1A19.74 19.74 0 0 0 40.22 20.5h-1zM20.5 1.78c10.32 0 18.72 8.4 18.72 18.72h1A19.74 19.74 0 0 0 20.5.78v1zM1.78 20.5c0-10.32 8.4-18.72 18.72-18.72v-1A19.74 19.74 0 0 0 .78 20.5h1z"/><path id="bdc" fill-rule="evenodd" d="M0 17C0 7.61 7.62 0 17 0c9.36 0 16.99 7.62 16.99 17 0 9.36-7.63 16.99-17 16.99-9.37 0-16.99-7.63-16.99-17zm1.28 0c0 8.66 7.05 15.7 15.71 15.7 8.67 0 15.72-7.04 15.72-15.7 0-8.67-7.05-15.72-15.72-15.72A15.73 15.73 0 0 0 1.3 17z"/><path id="bdd" d="M17-.5C7.34-.5-.5 7.35-.5 17h1C.5 7.9 7.9.5 17 .5v-1zM34.48 17c0-9.65-7.85-17.5-17.5-17.5v1C26.1.5 33.5 7.9 33.5 17h1zm-17.5 17.49c9.65 0 17.5-7.85 17.5-17.5h-1c0 9.1-7.4 16.5-16.5 16.5v1zM-.5 16.99c0 9.65 7.85 17.5 17.5 17.5v-1c-9.1 0-16.5-7.4-16.5-16.5h-1zM17 32.21A15.23 15.23 0 0 1 1.77 16.99h-1c0 8.94 7.27 16.22 16.21 16.22v-1zm15.2-15.22c0 8.4-6.82 15.22-15.2 15.22v1c8.93 0 16.2-7.28 16.2-16.22h-1zM17 1.8c8.38 0 15.2 6.82 15.2 15.2h1C33.2 8.05 25.94.8 17 .8v1zM1.77 16.98C1.78 8.61 8.61 1.8 17 1.8v-1A16.23 16.23 0 0 0 .8 16.98h1z"/><path id="bde" d="M2.03 0v2.02L.46 0H0v2.71h.46V.73l1.53 1.98h.5V0h-.46z"/><path id="bdf" d="M1.89 1.47a1.5 1.5 0 0 0-.63-.28A1.92 1.92 0 0 1 .7 1 .29.29 0 0 1 .6.75C.59.64.63.55.7.5a.6.6 0 0 1 .33-.08 1.23 1.23 0 0 1 .73.25l.25-.34A1.61 1.61 0 0 0 1.06 0C.79 0 .56.07.38.2a.68.68 0 0 0-.27.58c0 .25.08.44.24.56.08.07.17.12.27.16.1.04.26.08.46.13s.34.1.42.16c.08.06.12.14.12.24a.3.3 0 0 1-.13.26c-.09.06-.2.09-.35.09-.3 0-.58-.12-.85-.36L0 2.37c.33.3.7.44 1.13.44.29 0 .52-.08.7-.22A.71.71 0 0 0 2.1 2c0-.24-.07-.42-.21-.54z"/><path id="bdg" d="M.46 2.28v-.73h1.3v-.4H.46V.43H1.9V0H0v2.71h1.95v-.43H.45z"/><path id="bdh" d="M3.48 0L2.8 1.95 2.2 0h-.42l-.6 1.95L.49 0H0l.95 2.71h.45L1.97.85H2l.57 1.86h.45L3.97 0h-.5z"/><path id="bdi" fill-rule="evenodd" d="M18.32.09a.64.64 0 0 1 .88.87l-6.65 11.36a.64.64 0 0 1-.22.23L.96 19.2a.64.64 0 0 1-.77-.1.64.64 0 0 1-.1-.78L6.73 6.96c.06-.1.14-.17.23-.23L18.32.1zM2.42 16.86l9.11-5.33 5.33-9.1-9.1 5.32-5.33 9.1z"/><path id="bdj" fill-rule="evenodd" d="M0 2.77a2.77 2.77 0 1 1 5.54 0 2.77 2.77 0 0 1-5.54 0zm1.28 0a1.49 1.49 0 1 0 2.98 0 1.49 1.49 0 0 0-2.98 0z"/></defs></symbol><symbol viewBox="0 0 46 42" id="icon-set7_hierarchy" xmlns="http://www.w3.org/2000/svg"><g transform="translate(1 1)"><use xlink:href="#bea"/><use xlink:href="#beb"/></g><defs><path id="bea" fill-rule="evenodd" d="M38.87 28.2v-8.94H22.73V11.8a5.91 5.91 0 0 0 5.14-5.87A5.9 5.9 0 0 0 22 0a5.9 5.9 0 0 0-5.87 5.93c0 3.01 2.25 5.5 5.14 5.87v7.46H5.13v8.94A5.91 5.91 0 0 0 0 34.07 5.9 5.9 0 0 0 5.87 40a5.9 5.9 0 0 0 5.86-5.93c0-3.01-2.24-5.5-5.13-5.87v-7.46h14.67v7.46a5.91 5.91 0 0 0-5.14 5.87A5.9 5.9 0 0 0 22 40a5.9 5.9 0 0 0 5.87-5.93c0-3.01-2.25-5.5-5.14-5.87v-7.46H37.4v7.46a5.91 5.91 0 0 0-5.13 5.87A5.9 5.9 0 0 0 38.13 40 5.9 5.9 0 0 0 44 34.07c0-3.01-2.24-5.5-5.13-5.87zM17.6 5.93A4.43 4.43 0 0 1 22 1.48c2.43 0 4.4 2 4.4 4.45a4.43 4.43 0 0 1-4.4 4.44c-2.43 0-4.4-2-4.4-4.44zM5.87 38.52c2.42 0 4.4-2 4.4-4.45a4.43 4.43 0 0 0-4.4-4.44c-2.43 0-4.4 2-4.4 4.44a4.43 4.43 0 0 0 4.4 4.45zm20.53-4.45a4.43 4.43 0 0 1-4.4 4.45c-2.43 0-4.4-2-4.4-4.45a4.43 4.43 0 0 1 4.4-4.44c2.43 0 4.4 2 4.4 4.44zm7.33 0a4.43 4.43 0 0 0 4.4 4.45c2.43 0 4.4-2 4.4-4.45a4.43 4.43 0 0 0-4.4-4.44c-2.42 0-4.4 2-4.4 4.44z"/><path id="beb" d="M38.87 19.26h.5v-.5h-.5v.5zm0 8.94h-.5v.44l.43.06.07-.5zm-16.14-8.94h-.5v.5h.5v-.5zm0-7.46l-.06-.5-.44.06v.44h.5zm-1.46 0h.5v-.44l-.44-.06-.06.5zm0 7.46v.5h.5v-.5h-.5zm-16.14 0v-.5h-.5v.5h.5zm0 8.94l.07.5.43-.06v-.44h-.5zm1.47 0h-.5v.44l.44.06.06-.5zm0-7.46v-.5h-.5v.5h.5zm14.67 0h.5v-.5h-.5v.5zm0 7.46l.06.5.44-.06v-.44h-.5zm1.46 0h-.5v.44l.44.06.06-.5zm0-7.46v-.5h-.5v.5h.5zm14.67 0h.5v-.5h-.5v.5zm0 7.46l.06.5.44-.06v-.44h-.5zm.97-8.94v8.94h1v-8.94h-1zm-15.64.5h16.14v-1H22.73v1zm-.5-7.96v7.46h1V11.8h-1zm5.14-5.87a5.41 5.41 0 0 1-4.7 5.37l.13 1a6.41 6.41 0 0 0 5.57-6.37h-1zM22 .5a5.4 5.4 0 0 1 5.37 5.43h1A6.4 6.4 0 0 0 22-.5v1zm-5.37 5.43c0-3 2.42-5.43 5.37-5.43v-1a6.4 6.4 0 0 0-6.37 6.43h1zm4.7 5.37a5.41 5.41 0 0 1-4.7-5.37h-1a6.41 6.41 0 0 0 5.57 6.37l.13-1zm.44 7.96V11.8h-1v7.46h1zm-16.64.5h16.14v-1H5.13v1zm.5 8.44v-8.94h-1v8.94h1zM.5 34.07a5.41 5.41 0 0 1 4.7-5.37l-.13-1A6.41 6.41 0 0 0-.5 34.07h1zm5.37 5.43A5.4 5.4 0 0 1 .5 34.07h-1a6.4 6.4 0 0 0 6.37 6.43v-1zm5.36-5.43c0 3-2.4 5.43-5.36 5.43v1a6.4 6.4 0 0 0 6.36-6.43h-1zm-4.7-5.37a5.41 5.41 0 0 1 4.7 5.37h1a6.41 6.41 0 0 0-5.57-6.37l-.12 1zm-.43-7.96v7.46h1v-7.46h-1zm15.17-.5H6.6v1h14.67v-1zm.5 7.96v-7.46h-1v7.46h1zm-5.14 5.87a5.41 5.41 0 0 1 4.7-5.37l-.13-1a6.41 6.41 0 0 0-5.57 6.37h1zM22 39.5a5.4 5.4 0 0 1-5.37-5.43h-1A6.4 6.4 0 0 0 22 40.5v-1zm5.37-5.43c0 3-2.42 5.43-5.37 5.43v1a6.4 6.4 0 0 0 6.37-6.43h-1zm-4.7-5.37a5.41 5.41 0 0 1 4.7 5.37h1a6.41 6.41 0 0 0-5.57-6.37l-.13 1zm-.44-7.96v7.46h1v-7.46h-1zm15.17-.5H22.73v1H37.4v-1zm.5 7.96v-7.46h-1v7.46h1zm-5.13 5.87a5.41 5.41 0 0 1 4.7-5.37l-.13-1a6.41 6.41 0 0 0-5.57 6.37h1zm5.36 5.43a5.4 5.4 0 0 1-5.36-5.43h-1a6.4 6.4 0 0 0 6.36 6.43v-1zm5.37-5.43c0 3-2.41 5.43-5.37 5.43v1a6.4 6.4 0 0 0 6.37-6.43h-1zm-4.7-5.37a5.41 5.41 0 0 1 4.7 5.37h1a6.41 6.41 0 0 0-5.57-6.37l-.13 1zM22 .98c-2.7 0-4.9 2.22-4.9 4.95h1A3.93 3.93 0 0 1 22 1.98v-1zm4.9 4.95C26.9 3.2 24.7.98 22 .98v1c2.15 0 3.9 1.77 3.9 3.95h1zM22 10.87c2.7 0 4.9-2.22 4.9-4.94h-1A3.93 3.93 0 0 1 22 9.87v1zm-4.9-4.94c0 2.72 2.2 4.94 4.9 4.94v-1a3.93 3.93 0 0 1-3.9-3.94h-1zM9.77 34.07a3.93 3.93 0 0 1-3.9 3.95v1c2.7 0 4.9-2.22 4.9-4.95h-1zm-3.9-3.94c2.14 0 3.9 1.76 3.9 3.94h1c0-2.72-2.2-4.94-4.9-4.94v1zm-3.9 3.94a3.93 3.93 0 0 1 3.9-3.94v-1c-2.71 0-4.9 2.22-4.9 4.94h1zm3.9 3.95a3.93 3.93 0 0 1-3.9-3.95h-1c0 2.73 2.19 4.95 4.9 4.95v-1zm16.13 1c2.7 0 4.9-2.22 4.9-4.95h-1a3.93 3.93 0 0 1-3.9 3.95v1zm-4.9-4.95c0 2.73 2.2 4.95 4.9 4.95v-1a3.93 3.93 0 0 1-3.9-3.95h-1zm4.9-4.94c-2.7 0-4.9 2.22-4.9 4.94h1a3.93 3.93 0 0 1 3.9-3.94v-1zm4.9 4.94c0-2.72-2.2-4.94-4.9-4.94v1c2.15 0 3.9 1.76 3.9 3.94h1zm11.23 3.95a3.93 3.93 0 0 1-3.9-3.95h-1c0 2.73 2.2 4.95 4.9 4.95v-1zm3.9-3.95a3.93 3.93 0 0 1-3.9 3.95v1c2.71 0 4.9-2.22 4.9-4.95h-1zm-3.9-3.94c2.15 0 3.9 1.76 3.9 3.94h1c0-2.72-2.19-4.94-4.9-4.94v1zm-3.9 3.94a3.93 3.93 0 0 1 3.9-3.94v-1c-2.7 0-4.9 2.22-4.9 4.94h1z"/></defs></symbol><symbol viewBox="0 0 33 47" id="icon-set7_microscope" xmlns="http://www.w3.org/2000/svg"><path d="M31.84 31.23H20.26a1.15 1.15 0 0 0 0 2.3h1.04a9.27 9.27 0 0 1-14.62-7.55c0-2.47 1-4.84 2.76-6.57a4.16 4.16 0 0 0 2.95-1.37l3.84 3.81a2.68 2.68 0 0 0 3.47.24l3.78 3.75c.23.23.52.34.82.34.3 0 .59-.11.82-.34l3.02-3a1.14 1.14 0 0 0 0-1.63l-3.78-3.75a2.61 2.61 0 0 0-.24-3.45L12.88 2.83a2.68 2.68 0 0 0-3.13-.45L7.7.34a1.17 1.17 0 0 0-1.64 0L2.47 3.9a1.15 1.15 0 0 0 0 1.63l2.06 2.04a2.63 2.63 0 0 0 .46 3.11l1.49 1.48a4.14 4.14 0 0 0-1.26 2.09A15.83 15.83 0 0 0 0 25.98c0 5.75 3.1 10.8 7.73 13.59a6.32 6.32 0 0 0-5.85 6.28c0 .63.52 1.15 1.16 1.15h25.44c.64 0 1.16-.52 1.16-1.15 0-3.2-2.41-5.85-5.52-6.25a16.05 16.05 0 0 0 5.89-6.07h1.83c.64 0 1.16-.52 1.16-1.15 0-.64-.52-1.15-1.16-1.15zM9.28 17.11a1.87 1.87 0 0 1-1.87-1.86 1.87 1.87 0 0 1 3.75 0c0 1.03-.84 1.86-1.88 1.86zm16.4 4.92L24.3 23.4l-2.94-2.92 1.38-1.38zM10.77 4.46a.33.33 0 0 1 .47 0l11.25 11.17c.08.08.09.18.09.24a.3.3 0 0 1-.09.23l-.54.53-.01.02-.02.01-3.02 3-.01.02-.55.54a.33.33 0 0 1-.47 0l-4.44-4.4a4.18 4.18 0 0 0-4.71-4.69l-2.1-2.08a.32.32 0 0 1-.09-.24.3.3 0 0 1 .09-.23zm-4.68 1.4L4.93 4.71l1.95-1.93 1.15 1.15zM27.16 44.7H4.37a4.03 4.03 0 0 1 3.86-2.85H23.3c1.82 0 3.36 1.2 3.86 2.85zm-11.19-5.16A13.62 13.62 0 0 1 2.32 25.98c0-3.25 1.17-6.36 3.26-8.79.32.61.8 1.14 1.38 1.52a11.49 11.49 0 0 0-2.6 7.27c0 6.36 5.21 11.53 11.61 11.53 3.33 0 6.57-1.48 8.77-3.98h2.57a13.8 13.8 0 0 1-11.34 6.01z"/></symbol><symbol viewBox="0 0 35 34" id="icon-set7_page" xmlns="http://www.w3.org/2000/svg"><path d="M28.85 16H5.15C4.51 16 4 16.67 4 17.5S4.51 19 5.15 19h23.7c.64 0 1.15-.67 1.15-1.5s-.51-1.5-1.15-1.5zM25.03 5H4.97C4.43 5 4 5.67 4 6.5S4.43 8 4.97 8h20.06c.54 0 .97-.67.97-1.5S25.57 5 25.03 5zm3.82 16H5.15C4.51 21 4 21.67 4 22.5S4.51 24 5.15 24h23.7c.64 0 1.15-.67 1.15-1.5s-.51-1.5-1.15-1.5zm-11.96 4H5.11C4.49 25 4 25.67 4 26.5S4.49 28 5.11 28h11.78c.62 0 1.11-.67 1.11-1.5s-.49-1.5-1.11-1.5z"/><path d="M31.58 0H3.42A3.42 3.42 0 0 0 0 3.4v27.2C0 32.47 1.54 34 3.42 34h28.16A3.42 3.42 0 0 0 35 30.6V3.4C35 1.53 33.46 0 31.58 0zm0 31.73H3.42c-.63 0-1.14-.51-1.14-1.13V11.99h30.44V30.6c0 .62-.51 1.13-1.14 1.13zm1.14-21.69H2.28V3.4c0-.62.51-1.13 1.14-1.13h28.16c.63 0 1.14.51 1.14 1.13z"/></symbol><symbol viewBox="0 0 38.5 38.5" id="icon-set7_pencil-ruler" xmlns="http://www.w3.org/2000/svg"><path stroke="none" d="M30 30c-1 .94-1 2.5 0 3.5.5.5 1.13.75 1.75.75.62 0 1.25-.25 1.75-.75 1-.94 1-2.5 0-3.5-.94-1-2.5-1-3.5 0zm2.63 2.69c-.5.5-1.26.5-1.75 0a1.2 1.2 0 0 1 0-1.75c.25-.25.56-.38.87-.38.31 0 .63.13.88.38.5.5.5 1.25 0 1.75z"/><path stroke="none" d="M37.82 30.65l-11.4-11.4L37.44 8.23a2.79 2.79 0 0 0 0-3.93l-3.23-3.23a2.8 2.8 0 0 0-1.96-.82c-.76 0-1.46.32-1.97.82l-3.86 3.87-2.66 2.66-4.5 4.49L7.98.82c-.7-.7-1.96-.7-2.66 0l-4.5 4.5c-.76.69-.76 1.9 0 2.66l4.94 4.94 3.55 3.54 2.79 2.79L1.93 29.42c-.19.08-.29.25-.35.47l-1.33 7.6c0 .25.06.44.19.57.13.13.25.19.44.19h.13l7.31-1.35.17.02c.19 0 .38-.06.44-.19l10.33-10.32.82.82L21.86 29l8.8 8.81c.32.31.7.44 1.08.44.38 0 .76-.13 1.01-.44l5.07-5.07a1.5 1.5 0 0 0 0-2.09zM8.49 35.34l-2.22-2.22 21.07-21 2.18 2.19zM31.17 1.96a1.57 1.57 0 0 1 2.15 0l3.24 3.23c.57.57.57 1.58 0 2.15l-3.43 3.42-5.38-5.38zm-4.31 4.31l2.69 2.69 2.7 2.69-1.78 1.77-5.38-5.38zM12.45 17.82l1.36-1.36a.61.61 0 0 0 0-.88.6.6 0 0 0-.89 0l-1.36 1.36-.92-.92 2.22-2.22a.61.61 0 0 0 0-.88.6.6 0 0 0-.89 0l-2.22 2.21-.88-.88 1.33-1.33a.62.62 0 0 0 0-.89.62.62 0 0 0-.89 0l-1.33 1.33-.89-.89 2.22-2.21a.62.62 0 0 0 0-.89.62.62 0 0 0-.89 0l-2.21 2.22-.95-.95 1.33-1.33a.62.62 0 0 0 0-.89.62.62 0 0 0-.89 0L4.37 9.75l-.89-.89L5.7 6.65a.62.62 0 0 0 0-.89.62.62 0 0 0-.89 0L2.59 7.98l-.88-.89a.6.6 0 0 1 0-.89l4.5-4.49a.55.55 0 0 1 .44-.19c.13 0 .32.06.44.19l11.28 11.27-5.38 5.38zM24.2 8.99l2.22 2.22L5.35 32.2l-2.19-2.18zM2.66 31.28l2.08 2.08c.03.07.07.14.14.2l2.29 2.29-5.46.94zm34.28.57l-5.07 5.07c-.07.06-.26.06-.32 0l-6.56-6.56 2.25-2.24a.62.62 0 0 0 0-.89.62.62 0 0 0-.89 0l-2.25 2.25-.91-.92 1.33-1.33a.62.62 0 0 0 0-.89.62.62 0 0 0-.89 0l-1.33 1.33-.89-.88 2.22-2.22a.62.62 0 0 0 0-.89.62.62 0 0 0-.89 0l-2.21 2.22-.39-.38 5.39-5.38 11.41 11.4c.06.06.06.25 0 .31z"/><path stroke-miterlimit="50" stroke-width=".5" d="M37.82 30.65l-11.4-11.4L37.44 8.23a2.79 2.79 0 0 0 0-3.93l-3.23-3.23a2.8 2.8 0 0 0-1.96-.82c-.76 0-1.46.32-1.97.82l-3.86 3.87-2.66 2.66-4.5 4.49L7.98.82c-.7-.7-1.96-.7-2.66 0l-4.5 4.5c-.76.69-.76 1.9 0 2.66l4.94 4.94 3.55 3.54 2.79 2.79L1.93 29.42c-.19.08-.29.25-.35.47l-1.33 7.6c0 .25.06.44.19.57.13.13.25.19.44.19h.13l7.31-1.35.17.02c.19 0 .38-.06.44-.19l10.33-10.32.82.82L21.86 29l8.8 8.81c.32.31.7.44 1.08.44.38 0 .76-.13 1.01-.44l5.07-5.07a1.5 1.5 0 0 0 0-2.09zM8.49 35.34l-2.22-2.22 21.07-21 2.18 2.19zM31.17 1.96a1.57 1.57 0 0 1 2.15 0l3.24 3.23c.57.57.57 1.58 0 2.15l-3.43 3.42-5.38-5.38zm-4.31 4.31l2.69 2.69 2.7 2.69-1.78 1.77-5.38-5.38zM12.45 17.82l1.36-1.36a.61.61 0 0 0 0-.88.6.6 0 0 0-.89 0l-1.36 1.36-.92-.92 2.22-2.22a.61.61 0 0 0 0-.88.6.6 0 0 0-.89 0l-2.22 2.21-.88-.88 1.33-1.33a.62.62 0 0 0 0-.89.62.62 0 0 0-.89 0l-1.33 1.33-.89-.89 2.22-2.21a.62.62 0 0 0 0-.89.62.62 0 0 0-.89 0l-2.21 2.22-.95-.95 1.33-1.33a.62.62 0 0 0 0-.89.62.62 0 0 0-.89 0L4.37 9.75l-.89-.89L5.7 6.65a.62.62 0 0 0 0-.89.62.62 0 0 0-.89 0L2.59 7.98l-.88-.89a.6.6 0 0 1 0-.89l4.5-4.49a.55.55 0 0 1 .44-.19c.13 0 .32.06.44.19l11.28 11.27-5.38 5.38zM24.2 8.99l2.22 2.22L5.35 32.2l-2.19-2.18zM2.66 31.28l2.08 2.08c.03.07.07.14.14.2l2.29 2.29-5.46.94zm34.28.57l-5.07 5.07c-.07.06-.26.06-.32 0l-6.56-6.56 2.25-2.24a.62.62 0 0 0 0-.89.62.62 0 0 0-.89 0l-2.25 2.25-.91-.92 1.33-1.33a.62.62 0 0 0 0-.89.62.62 0 0 0-.89 0l-1.33 1.33-.89-.88 2.22-2.22a.62.62 0 0 0 0-.89.62.62 0 0 0-.89 0l-2.21 2.22-.39-.38 5.39-5.38 11.41 11.4c.06.06.06.25 0 .31z"/></symbol><symbol viewBox="0 0 39.5 39.5" id="icon-set7_portfolio" xmlns="http://www.w3.org/2000/svg"><path stroke="none" d="M27.48 6.39V3.4A3.15 3.15 0 0 0 24.32.25h-8.97A3.15 3.15 0 0 0 12.2 3.4v2.99H.25v11.04l1.41.33v21.49h36.35V17.71l1.24-.28V6.39zM13.78 3.4c0-.91.74-1.57 1.57-1.57h8.97c.91 0 1.57.74 1.57 1.57v2.99H13.78zM1.99 8.05h35.52v8.13c-1.92.47-7.95 1.72-13.19 2.3v-2.13h-8.88v2.16c-5.53-.62-11.54-1.93-13.45-2.33zm20.58 15.19h-5.56v-5.31h5.56zm13.87 14.35H3.24V18.11c2.81.61 7.7 1.58 12.21 2.01v4.77h8.87v-4.84c4.39-.5 9.36-1.45 12.12-2.02z"/><path  stroke-miterlimit="50" stroke-width=".5" d="M27.48 6.39V3.4A3.15 3.15 0 0 0 24.32.25h-8.97A3.15 3.15 0 0 0 12.2 3.4v2.99H.25v11.04l1.41.33v21.49h36.35V17.71l1.24-.28V6.39zM13.78 3.4c0-.91.74-1.57 1.57-1.57h8.97c.91 0 1.57.74 1.57 1.57v2.99H13.78zM1.99 8.05h35.52v8.13c-1.92.47-7.95 1.72-13.19 2.3v-2.13h-8.88v2.16c-5.53-.62-11.54-1.93-13.45-2.33zm20.58 15.19h-5.56v-5.31h5.56zm13.87 14.35H3.24V18.11c2.81.61 7.7 1.58 12.21 2.01v4.77h8.87v-4.84c4.39-.5 9.36-1.45 12.12-2.02z"/></symbol>
<symbol viewBox="0 0 40 41" id="icon-set7_stars-list" xmlns="http://www.w3.org/2000/svg"><path d="M12.96 5.51A.78.78 0 0 0 12.4 5l-3.33-.88-1.89-2.79c-.3-.44-1.06-.44-1.36 0L3.93 4.12.6 5a.78.78 0 0 0-.56.51.8.8 0 0 0 .14.74l2.16 2.6-.17 3.33a.8.8 0 0 0 .34.67.82.82 0 0 0 .76.1l3.23-1.18 3.23 1.18c.25.09.54.06.76-.1a.8.8 0 0 0 .34-.67l-.17-3.33 2.16-2.6a.8.8 0 0 0 .14-.74zM9.2 8.1a.83.83 0 0 0-.18.53l.12 2.43-2.35-.86a.75.75 0 0 0-.58 0l-2.35.86.12-2.43a.78.78 0 0 0-.18-.53L2.22 6.2l2.43-.64a.83.83 0 0 0 .47-.33L6.5 3.19l1.38 2.04c.11.16.28.28.47.33l2.43.64zM17 7V5h15v2zm0 4V9h23v2zm-4.04 8.51a.78.78 0 0 0-.56-.51l-3.33-.88-1.89-2.79c-.3-.44-1.06-.44-1.36 0l-1.89 2.79L.6 19a.78.78 0 0 0-.56.51.8.8 0 0 0 .14.74l2.16 2.6-.17 3.33a.8.8 0 0 0 .34.67c.22.15.51.19.76.1l3.23-1.18 3.23 1.18a.82.82 0 0 0 .76-.1.8.8 0 0 0 .34-.67l-.17-3.33 2.16-2.6a.8.8 0 0 0 .14-.74zM9.2 22.1a.83.83 0 0 0-.18.53l.12 2.43-2.35-.86a.75.75 0 0 0-.58 0l-2.35.86.12-2.43a.78.78 0 0 0-.18-.53l-1.58-1.9 2.43-.64a.83.83 0 0 0 .47-.33l1.38-2.04 1.38 2.04c.11.16.28.28.47.33l2.43.64zM17 20v-2h15v2zm0 4v-2h23v2zm-4.04 8.51a.78.78 0 0 0-.56-.51l-3.33-.88-1.89-2.79c-.3-.44-1.06-.44-1.36 0l-1.89 2.79L.6 32a.78.78 0 0 0-.56.51.8.8 0 0 0 .14.74l2.16 2.6-.17 3.33a.8.8 0 0 0 .34.67c.22.16.51.19.76.1l3.23-1.18 3.23 1.18a.82.82 0 0 0 .76-.1.8.8 0 0 0 .34-.67l-.17-3.33 2.16-2.6a.8.8 0 0 0 .14-.74zM9.2 35.1a.83.83 0 0 0-.18.53l.12 2.43-2.35-.86a.75.75 0 0 0-.58 0l-2.35.86.12-2.43a.78.78 0 0 0-.18-.53l-1.58-1.9 2.43-.64a.83.83 0 0 0 .47-.33l1.38-2.04 1.38 2.04c.11.16.28.28.47.33l2.43.64zM17 34v-2h15v2zm0 5v-2h23v2z"/></symbol><symbol viewBox="0 0 38.4 33.2" id="icon-set7_diagramma" xmlns="http://www.w3.org/2000/svg"><path stroke="none" d="M37.44 31.59H34.6V2.34a.76.76 0 0 0-.76-.76h-7.71a.76.76 0 0 0-.76.76v29.25h-1.74V13.47a.76.76 0 0 0-.76-.76h-7.71a.76.76 0 0 0-.76.76v18.12h-1.75v-6.18a.76.76 0 0 0-.75-.76H4.18a.76.76 0 0 0-.75.76v6.18H1.71V.85A.75.75 0 0 0 .96.1.76.76 0 0 0 .2.85v31.5c0 .41.34.75.76.75h36.48c.42 0 .76-.34.76-.75a.76.76 0 0 0-.76-.76zm-32.5 0v-5.43h6.2v5.43zm17.17 0h-6.2V14.22h6.2zm10.98 0h-6.2V3.09h6.2z"/><path stroke-miterlimit="50" stroke-width=".4" d="M37.44 31.59H34.6V2.34a.76.76 0 0 0-.76-.76h-7.71a.76.76 0 0 0-.76.76v29.25h-1.74V13.47a.76.76 0 0 0-.76-.76h-7.71a.76.76 0 0 0-.76.76v18.12h-1.75v-6.18a.76.76 0 0 0-.75-.76H4.18a.76.76 0 0 0-.75.76v6.18H1.71V.85A.75.75 0 0 0 .96.1.76.76 0 0 0 .2.85v31.5c0 .41.34.75.76.75h36.48c.42 0 .76-.34.76-.75a.76.76 0 0 0-.76-.76zm-32.5 0v-5.43h6.2v5.43zm17.17 0h-6.2V14.22h6.2zm10.98 0h-6.2V3.09h6.2z"/></symbol><symbol viewBox="0 0 99 99" id="icon-arrow-circle" xmlns="http://www.w3.org/2000/svg"><g transform="translate(1 1)" fill-rule="evenodd"><g><path stroke="none" d="M68.62 47.34c0-.94-.76-1.7-1.7-1.7H24.44a1.7 1.7 0 1 0 0 3.4h42.48c.94 0 1.7-.76 1.7-1.7z"/><path stroke="none" d="M55.03 65.15a1.7 1.7 0 0 0 1.2 2.9c.44 0 .88-.16 1.21-.5l19.05-19a1.7 1.7 0 0 0 0-2.41L57.44 27.13a1.7 1.7 0 0 0-2.41 2.4l17.84 17.81-17.84 17.8z"/></g><circle fill="none" stroke-width="2" cx="48.5" cy="48.5" r="48.5"/></g></symbol><symbol viewBox="0 0 70 70" id="icon-set10_video-play" xmlns="http://www.w3.org/2000/svg"><path d="M27.82 16.2a1.17 1.17 0 0 0-1.2-.07c-.38.21-.62.6-.62 1.04v35c0 .43.24.83.62 1.03a1.17 1.17 0 0 0 1.2-.07l25.67-17.5a1.17 1.17 0 0 0 0-1.93zm.51 3.17l22.43 15.3-22.43 15.29z"/><path d="M0 35c0 19.3 15.7 35 35 35s35-15.7 35-35S54.3 0 35 0 0 15.7 0 35zm2.33 0A32.71 32.71 0 0 1 35 2.33 32.71 32.71 0 0 1 67.67 35 32.71 32.71 0 0 1 35 67.67 32.71 32.71 0 0 1 2.33 35z"/></symbol><symbol viewBox="0 0 55 55" id="icon-set10_bell-b" xmlns="http://www.w3.org/2000/svg"><g fill-rule="evenodd"><circle cx="26.5" cy="26.5" r="26.5" fill="none" transform="translate(1 1)"/><path stroke="none" d="M39.32 29.87h-2.55v-4.5a9.1 9.1 0 0 0-8.66-8.95v-1.84a.58.58 0 0 0-.6-.57c-.32 0-.58.25-.58.57v1.83a9.1 9.1 0 0 0-8.8 8.96v2.93c0 .32.27.57.6.57.32 0 .59-.25.59-.57v-2.93a7.95 7.95 0 0 1 8.05-7.82h.17c4.44 0 8.05 3.5 8.05 7.82v4.5h-20c-.33 0-.59.26-.59.58v3.32c0 .32.26.58.6.58h23.72c.32 0 .59-.26.59-.58v-3.32a.58.58 0 0 0-.6-.58zm-.6 3.33H16.19v-2.18h22.55v2.18zm-9.14 1.6c-.32 0-.59.26-.59.58a1.5 1.5 0 0 1-1.51 1.47h-.05a1.5 1.5 0 0 1-1.51-1.47.58.58 0 0 0-.6-.58c-.32 0-.59.26-.59.58a2.66 2.66 0 0 0 2.7 2.62h.05c1.48 0 2.7-1.18 2.7-2.62a.58.58 0 0 0-.6-.58z"/></g></symbol><symbol viewBox="0 0 10 15" id="icon-set8_location-b" xmlns="http://www.w3.org/2000/svg"><path d="M8.54 1.46A4.82 4.82 0 0 0 5 0C3.62 0 2.44.49 1.46 1.46A4.82 4.82 0 0 0 0 5c0 .71.1 1.3.32 1.75L3.9 14.3c.1.21.25.38.45.5a1.25 1.25 0 0 0 1.78-.5l3.56-7.56A4.1 4.1 0 0 0 10 5c0-1.38-.49-2.56-1.46-3.54zm-1.77 5.3A2.4 2.4 0 0 1 5 7.5a2.4 2.4 0 0 1-1.77-.73A2.4 2.4 0 0 1 2.5 5c0-.69.24-1.28.73-1.77A2.4 2.4 0 0 1 5 2.5c.69 0 1.28.24 1.77.73.49.5.73 1.08.73 1.77a2.4 2.4 0 0 1-.73 1.77z" fill-rule="evenodd"/></symbol><symbol viewBox="0 0 56 89" id="icon-set8_location-c" xmlns="http://www.w3.org/2000/svg"><defs><path d="M24 0C10.76 0 0 10.82 0 24.13 0 37.45 24 76.6 24 76.6s24-39.14 24-52.46A24.08 24.08 0 0 0 24 0zm0 37.45c-7.5 0-13.54-6.08-13.54-13.61 0-7.54 6.05-13.62 13.54-13.62 7.5 0 13.54 6.08 13.54 13.62A13.6 13.6 0 0 1 24 37.44z" id="ca"/></defs><g transform="translate(4 4)" fill-rule="evenodd"><use xlink:href="#ca"/><path stroke="#FFF" stroke-width="4" d="M24-2C38.35-2 50 9.71 50 24.13c0 5.19-3.1 13.72-8.56 24.92a279.4 279.4 0 0 1-3.67 7.23A400.83 400.83 0 0 1 25.7 77.63L24 80.41l-1.7-2.78a116.67 116.67 0 0 1-1.05-1.72A397.44 397.44 0 0 1 6.56 49.05C1.1 37.85-2 29.32-2 24.13A26.08 26.08 0 0 1 24-2zm0 37.45a11.6 11.6 0 0 0 11.54-11.61c0-6.44-5.15-11.62-11.54-11.62a11.56 11.56 0 0 0-11.54 11.62c0 6.43 5.15 11.6 11.54 11.6z"/></g></symbol><symbol viewBox="0 0 14 10" id="icon-set8_mail-b" xmlns="http://www.w3.org/2000/svg"><g fill-rule="evenodd"><path d="M7 7L5.27 5.48.32 9.73C.5 9.9.74 10 1 10h11.98a1 1 0 0 0 .7-.27L8.72 5.48 7 7z"/><path d="M13.68.27A1 1 0 0 0 13 0H1.01a1 1 0 0 0-.7.27L7 6 13.68.27zM0 .88v8.3l4.83-4.1zm9.17 4.2L14 9.18V.89z"/></g></symbol><symbol viewBox="0 0 13 13" id="icon-set8_phone" xmlns="http://www.w3.org/2000/svg"><path d="M12.27 9.58a21.55 21.55 0 0 0-1.08-.6 19.59 19.59 0 0 1-1.06-.64.6.6 0 0 0-.26-.07c-.12 0-.28.09-.46.27a4.5 4.5 0 0 0-.5.57c-.16.2-.33.4-.5.57-.17.18-.31.26-.42.26a.63.63 0 0 1-.21-.04 2.15 2.15 0 0 1-.59-.32 9.7 9.7 0 0 1-2.17-1.6 9.7 9.7 0 0 1-1.71-2.35 3.33 3.33 0 0 1-.2-.4.62.62 0 0 1-.05-.22c0-.1.08-.25.26-.42.17-.17.37-.34.57-.5.2-.14.4-.31.57-.5.18-.18.27-.34.27-.46a.6.6 0 0 0-.07-.26 12.12 12.12 0 0 0-.36-.56 20.28 20.28 0 0 1-.6-1.08l-.28-.5C3.2.3 3.04.06 2.92.03A.52.52 0 0 0 2.74 0c-.16 0-.38.03-.65.1-.27.05-.48.12-.63.19-.3.13-.63.5-.98 1.12a3.58 3.58 0 0 0-.19 3.17 35.83 35.83 0 0 0 .36.97c.21.6.47 1.14.76 1.61.49.8 1.15 1.6 2 2.45.83.84 1.65 1.5 2.44 1.99a8.38 8.38 0 0 0 2.06.93 37.23 37.23 0 0 0 .95.32 4.02 4.02 0 0 0 1.02.15c.57 0 1.14-.16 1.72-.47.62-.35 1-.67 1.12-.98a3.64 3.64 0 0 0 .26-1.48c-.03-.1-.27-.27-.7-.49z" fill-rule="evenodd"/></symbol><symbol viewBox="0 0 48 35" id="icon-set8_question-answer" xmlns="http://www.w3.org/2000/svg"><path d="M44.84 10.61H28.2a14.7 14.7 0 0 0-4.23-6.88A14.1 14.1 0 0 0 12.74.1 14.53 14.53 0 0 0 .08 13.11c-.37 3.71.62 7.38 2.8 10.32a14.34 14.34 0 0 0 8.46 5.52l3.54 3.62a1.53 1.53 0 0 0 1.7.34c.58-.25.96-.82.96-1.46v-2.53c.58-.13 1.15-.3 1.7-.5v.1a3.19 3.19 0 0 0 3.16 3.21h5.3l2.82 2.88a1.3 1.3 0 0 0 1.44.29c.49-.21.8-.7.8-1.24v-1.93h12.08A3.19 3.19 0 0 0 48 28.52v-14.7a3.19 3.19 0 0 0-3.16-3.21zM16.65 27.54a.76.76 0 0 0-.62.75v3.16c0 .02 0 .03-.03.05-.03 0-.04 0-.05-.02l-3.71-3.77a.75.75 0 0 0-.38-.21c-3.1-.63-5.87-2.4-7.78-4.99A13.3 13.3 0 0 1 5.24 5.42a12.74 12.74 0 0 1 9.16-3.89 12.6 12.6 0 0 1 8.57 3.34 13.24 13.24 0 0 1 4.29 9.77c0 6.36-4.46 11.78-10.6 12.9zm29.85.98c0 .93-.75 1.68-1.66 1.68H32.02a.76.76 0 0 0-.76.77v2.23l-2.72-2.77a.74.74 0 0 0-.53-.23H22.4c-.92 0-1.66-.75-1.66-1.68v-.75a14.64 14.64 0 0 0 7.8-15.63h16.3c.92 0 1.66.76 1.66 1.68v14.7z"/><path d="M41.79 17.23a.68.68 0 0 0-1.02 0l-7.2 7.86-3.34-3.65a.68.68 0 0 0-1.02 0c-.28.31-.28.81 0 1.12l3.85 4.2c.14.16.33.24.51.24.19 0 .37-.08.51-.23l7.7-8.42c.3-.31.3-.81 0-1.12zM14.5 21a.5.5 0 0 0 0 1 .5.5 0 0 0 0-1zm3.17-11.48A4.2 4.2 0 0 0 14.5 8c-2.48 0-4.5 2.3-4.5 5.14 0 .44.32.8.71.8.4 0 .71-.36.71-.8 0-1.94 1.38-3.52 3.08-3.52.8 0 1.57.37 2.16 1.05.6.68.92 1.55.92 2.47 0 1.54-.9 2.92-2.2 3.36a2.5 2.5 0 0 0-1.59 2.43v.26c0 .45.32.81.71.81.4 0 .71-.36.71-.81v-.26c0-.4.24-.76.58-.88 1.9-.64 3.21-2.66 3.21-4.91 0-1.35-.47-2.63-1.33-3.62z"/></symbol><symbol viewBox="0 0 19 16" id="icon-set9_academic-cap-d" xmlns="http://www.w3.org/2000/svg"><g fill-rule="evenodd"><path d="M10.72 11.18c-.34.2-.77.32-1.22.32a2.4 2.4 0 0 1-1.22-.32l-5.52-3.3s-.5-.3-.5.38v3.3c0 1.73 3.24 3.6 7.24 3.6s7.24-1.87 7.24-3.6V8.07c0-.54-.36-.28-.36-.28l-5.66 3.4z"/><path d="M18.68 5.25c.42-.25.42-.67 0-.92l-8.4-4.1a1.66 1.66 0 0 0-1.55 0L.32 4.32c-.43.25-.43.67 0 .92l8.4 5.03c.43.26 1.13.26 1.55 0m8.06 2.44V7.15s0-.26-.15-.17c-.13.06-.45.24-.56.33-.13.1-.1.35-.1.35v5.05c0 .07-.06.1-.09.13a.96.96 0 0 0-.49.82c0 .53.44.96.99.96.54 0 .98-.43.98-.96 0-.35-.2-.66-.49-.83-.03-.01-.09-.05-.09-.12z"/></g></symbol><symbol viewBox="0 0 24 20" id="icon-set9_download-b" xmlns="http://www.w3.org/2000/svg"><g fill-rule="evenodd"><path d="M11.73 16.3l3.94-3.95-.8-.82-2.97 2.88V.61h-1.13v13.8L7.8 11.5l-.8.86 3.94 3.95zM0 18h23v1.11H0z"/><path d="M22 14v5h1.1v-5H22M0 18.7h1.11v-5H.01z"/></g></symbol><symbol viewBox="0 0 10 17" id="icon-set9_location-d" xmlns="http://www.w3.org/2000/svg"><path d="M8.54 1.48A4.8 4.8 0 0 0 5 0a4.8 4.8 0 0 0-3.54 1.48A4.89 4.89 0 0 0 0 5.05c0 .84.42 2.24 1.25 4.21A78.44 78.44 0 0 0 5 17c.13-.25.3-.58.54-1l1.2-2.37a88.56 88.56 0 0 0 1.5-3.2c.44-.98.84-1.99 1.2-3.03.38-1.04.56-1.82.56-2.35 0-1.4-.49-2.59-1.46-3.57zM6.07 6.1c-.3.3-.66.46-1.09.46-.42 0-.78-.15-1.08-.46-.3-.31-.46-.68-.46-1.11 0-.44.15-.8.46-1.1.3-.3.66-.45 1.08-.45.43 0 .79.15 1.1.45.3.3.45.66.45 1.1 0 .43-.16.8-.46 1.1z" fill-rule="evenodd"/></symbol><symbol viewBox="0 0 23 15" id="icon-set9_mail-c" xmlns="http://www.w3.org/2000/svg"><path d="M0 .04v14.94h22.97V.04H0zm11.49 9.23L2.06 1.15h18.85l-9.42 8.12zM7.73 7.5l-6.6 5.69V1.82l6.6 5.69zm.86.73l2.9 2.5 2.9-2.5 6.52 5.63H2.06l6.53-5.63zm6.65-.73l6.6-5.7v11.4l-6.6-5.7z" fill-rule="evenodd"/></symbol><symbol viewBox="0 0 7 27" id="icon-set9_more" xmlns="http://www.w3.org/2000/svg"><path d="M3.5 7a3.5 3.5 0 1 0 0-7 3.5 3.5 0 0 0 0 7zm0 13a3.5 3.5 0 1 0 0 7 3.5 3.5 0 0 0 0-7zm0-10a3.5 3.5 0 1 0 0 7 3.5 3.5 0 0 0 0-7z" fill-rule="evenodd"/></symbol><symbol viewBox="0 0 13 19" id="icon-set9_up-arrow" xmlns="http://www.w3.org/2000/svg"><path d="M12.7 6.5c.26.25.26.65 0 .9a.62.62 0 0 1-.88 0L7.27 2.77v15.3c0 .35-.28.63-.63.63a.64.64 0 0 1-.64-.64V2.77L1.46 7.4a.64.64 0 0 1-.9 0 .65.65 0 0 1 0-.9L6.2.75a.62.62 0 0 1 .89 0L12.7 6.5z" fill-rule="evenodd"/></symbol><symbol viewBox="0 0 36 48" id="icon-set10_book-b" xmlns="http://www.w3.org/2000/svg"><path d="M33.59 1.66H13.03V1.6c0-.89-.72-1.61-1.6-1.61H8.16a1.6 1.6 0 0 0-1.59 1.6v.06H2.41A2.43 2.43 0 0 0 0 4.1v41.46A2.43 2.43 0 0 0 2.41 48h31.18c1.33 0 2.41-1.1 2.41-2.44V4.1a2.43 2.43 0 0 0-2.41-2.44zM8.1 1.6c0-.03.03-.05.05-.05h3.29c.02 0 .05.02.05.05v5.55l-1.45-.49a.76.76 0 0 0-.49 0l-1.45.5V1.6zm26.36 43.95c0 .49-.39.88-.87.88H2.41a.88.88 0 0 1-.87-.88V4.1c0-.5.39-.89.87-.89h4.15v5.03c0 .25.12.49.32.63.2.15.46.19.7.11l2.21-.75 2.22.75a.76.76 0 0 0 .7-.1c.2-.15.32-.39.32-.64V3.21h20.56c.48 0 .87.4.87.89v41.46z"/><path d="M4.39 5.33c-.48 0-.88.35-.88.79v38.43c0 .43.4.78.88.78.49 0 .88-.35.88-.78V6.12c0-.44-.4-.79-.88-.79zm21.24 7.11H13.88c-1.36 0-2.47 1.05-2.47 2.33v1.58c0 1.28 1.11 2.32 2.47 2.32h11.75c1.36 0 2.47-1.04 2.47-2.32v-1.58c0-1.28-1.1-2.33-2.47-2.33zm.9 3.9c0 .47-.4.85-.9.85H13.88c-.5 0-.9-.38-.9-.84v-1.58c0-.47.4-.84.9-.84h11.75c.5 0 .9.37.9.84v1.58zm-.97 4.1H13.95c-.43 0-.78.4-.78.9 0 .48.35.88.78.88h11.61c.43 0 .78-.4.78-.89s-.35-.89-.78-.89zm0 3.56H13.95c-.43 0-.78.4-.78.89s.35.89.78.89h11.61c.43 0 .78-.4.78-.9 0-.48-.35-.88-.78-.88z"/></symbol><symbol viewBox="0 0 100 100" id="icon-set10_question" xmlns="http://www.w3.org/2000/svg"><style>.ast0{fill:#6994e6}</style><path class="ast0" d="M49.2 25c3.2 0 6.4.6 9.4 1.8 2.5 1 4.7 2.8 6.1 5.1 3.1 4.9 2.2 11.3-2.1 15.2-1.3 1.3-2.8 2.4-4.3 3.5-1.1.8-2.2 1.6-3.2 2.5-.7.6-1.3 1.4-1.6 2.3-.3.7-.5 1.3-.8 1.9-.5 1.4-1.9 2.3-3.4 2.3-1 .1-2-.1-2.8-.6-1.4-.9-2.2-2.5-2.1-4.1.1-2 .9-3.9 2.2-5.4 1.6-1.7 3.4-3.2 5.3-4.5 1.4-1 2.6-2.3 3.6-3.7 1.3-2.2.9-5.8-1.3-7.3-.8-.6-1.7-.9-2.7-1.1-1.5-.3-3-.2-4.5.2a6 6 0 0 0-3.5 3.3c-.6 1.1-1.1 2.3-1.8 3.3-1 1.6-3 2.3-4.8 1.8-.8-.1-1.6-.5-2.2-1.1-.8-.8-1.2-1.9-1.2-3 0-1.9.6-3.8 1.7-5.4 1.9-2.7 4.5-4.7 7.6-5.8 2-.7 4.2-1.2 6.4-1.2z"/><circle class="ast0" cx="48.7" cy="69.6" r="5.4"/><path class="ast0" d="M50 10c22.1 0 40 17.9 40 40S72.1 90 50 90 10 72.1 10 50s17.9-40 40-40m0-10C22.4 0 0 22.4 0 50s22.4 50 50 50 50-22.4 50-50S77.6 0 50 0z"/></symbol><symbol viewBox="0 0 24 24" id="icon-set10_disabled" xmlns="http://www.w3.org/2000/svg"><circle stroke="none" cx="11.5" cy="2.5" r="2.5"/><path fill="none" stroke-width="2" stroke-linecap="round" stroke-linejoin="round" stroke-miterlimit="10" d="M20 21l-3-6h-6"/><path stroke="none" d="M17 14l-4-.7v-5C13 7.1 11.9 6 10.7 6h-.3C9.1 6 8 7.1 8 8.3v5.9c0 1.5 1.3 2.8 2.8 2.8h1.5c3 0 4.9-.3 4.9-.3.7 0-.2-2.7-.2-2.7z"/><path stroke="none" d="M13.9 18A5 5 0 0 1 9 22a5 5 0 0 1-5-5 5 5 0 0 1 3-4.6v-2.1a7 7 0 1 0 8.9 7.7h-2z"/></symbol><symbol class="bicon bicon-hat" viewBox="0 0 50 50" id="icon-set11_academic-cap-e" xmlns="http://www.w3.org/2000/svg"><g transform="translate(1 1)" fill="none" fill-rule="evenodd"><circle stroke="#FF7BA2" stroke-width="2" fill="#FF7BA2" cx="24" cy="24" r="24"/><g fill="#FFF"><path d="M39.7 27.4a1.5 1.5 0 0 1-1.4-1.5c0-.8.6-1.4 1.4-1.4a1.5 1.5 0 0 1 0 3zm-15-2.4l-13.3-5 13.3-4L38 20l-13.3 5zm9.5 6a22.5 22.5 0 0 1-19.4 0v-8.5l9.7 3.6a.5.5 0 0 0 .4 0l9.3-3.4v8.4zm6-7.5v-3.4a.5.5 0 0 0-.3-.5l-15-4.7a.5.5 0 0 0-.3 0l-15 4.7a.5.5 0 0 0-.1 1l4.2 1.5v9.5h.1v.1l.2.1c1 .6 5 2.5 10.6 2.5 5 0 8.4-1.3 10.4-2.4l.1-.2.1-.1V22.3l4-1.4v2.6a2.6 2.6 0 0 0 .5 5 2.6 2.6 0 1 0 .6-5z"/><path d="M39.7 27a1 1 0 0 0 0-2 1 1 0 1 0 0 2zm0 .9a2 2 0 0 1 0-3.9 2 2 0 0 1 0 3.9zm-15-3.4l12-4.3-12-3.8-12 3.8 12 4.3zM10 20.1l14.7-4.6 14.7 4.6-14.7 5.4L10 20zm23.8 3.2L25 26.5a1 1 0 0 1-.6 0l-9.2-3.3v7.6c2.5 1.1 5.6 2 9.4 2 3.7 0 6.7-.8 9.2-2v-7.5zm.6 8.1a20.8 20.8 0 0 1-9.8 2.2c-4 0-7.4-.9-10-2.2h-.2v-9.5l.6.2 9.7 3.6 10-3.6v9.2l-.3.1zM40.7 20zm0 3.1a3 3 0 0 1-1 5.8 3 3 0 0 1-1-5.8v-1.6l-3 1.1v8.8a.5.5 0 0 1 0 .1.8.8 0 0 1-.1.3 1 1 0 0 1-.1.2.8.8 0 0 1-.2.2 21.7 21.7 0 0 1-10.7 2.5c-4.5 0-8.2-1-10.8-2.4a.5.5 0 0 1-.1-.1.8.8 0 0 1-.3-.3.8.8 0 0 1-.1-.4.5.5 0 0 1 0-.1v-9l-4-1.4a1 1 0 0 1 0-1.8l15.1-4.7h.6l15 4.7a1 1 0 0 1 .7.9v3zm-.9-3zm0 .2zm0-.2V20l-15-4.7L9.6 20a.1.1 0 0 0-.1.1.1.1 0 0 0 0 .1l4.6 1.6v9.7c2.5 1.3 6.1 2.3 10.4 2.3 4.1 0 7.5-.9 10.1-2.3h.1V22l4.8-1.8v3.6h-.3a2.1 2.1 0 0 0-1.7 2.1c0 1.2 1 2.2 2.1 2.2s2.1-1 2.1-2.2c0-1-.7-1.8-1.6-2h-.4v-3.7z" fill-rule="nonzero"/></g></g></symbol><symbol class="cicon cicon-list" viewBox="0 0 50 50" id="icon-set11_burger-b" xmlns="http://www.w3.org/2000/svg"><g transform="translate(1 1)" fill="none" fill-rule="evenodd"><circle stroke="#FA927B" stroke-width="2" fill="#FB937B" cx="24" cy="24" r="24"/><g fill="#FFF"><path d="M16.1 30c0 .5.3.8.8.8a.8.8 0 0 0 0-1.5.8.8 0 0 0-.8.8m0-6c0 .4.3.7.8.7a.8.8 0 0 0 0-1.5.8.8 0 0 0-.8.8m0-6c0 .4.3.7.8.7a.8.8 0 0 0 0-1.5.8.8 0 0 0-.8.8m2.3-.8h14.9a.7.7 0 0 1 0 1.5H18.4c-.3.6-.9 1-1.6 1a1.7 1.7 0 0 1-1.7-1.7 1.7 1.7 0 0 1 3.3-.8m0 6h14.9a.7.7 0 0 1 0 1.5H18.4c-.3.6-.9 1-1.6 1a1.7 1.7 0 0 1-1.7-1.7 1.7 1.7 0 0 1 3.3-.8m0 6h14.9a.7.7 0 0 1 0 1.5H18.4c-.3.6-.9 1-1.6 1a1.7 1.7 0 0 1-1.7-1.7 1.7 1.7 0 0 1 3.3-.8"/><path d="M15.9 30a1 1 0 0 1 1-1 1 1 0 0 1 0 2 1 1 0 0 1-1-1zm.5 0a.5.5 0 0 0 .5.6.5.5 0 0 0 0-1 .5.5 0 0 0-.5.5zm-.5-6a1 1 0 0 1 1-1 1 1 0 0 1 0 2 1 1 0 0 1-1-1zm.5 0a.5.5 0 0 0 .5.6.5.5 0 0 0 0-1 .5.5 0 0 0-.5.5zm-.5-6a1 1 0 0 1 1-1 1 1 0 0 1 0 2 1 1 0 0 1-1-1zm.5 0a.5.5 0 0 0 .5.6.5.5 0 0 0 0-1 .5.5 0 0 0-.5.5zm1.9-.4l-.1-.2a1.5 1.5 0 0 0-1.3-.8 1.5 1.5 0 0 0 0 3c.5 0 1-.4 1.3-.9v-.1h15a.5.5 0 0 0 0-1h-15zm.3-.5h14.7a1 1 0 0 1 0 2H18.6a2 2 0 0 1-3.7-1 2 2 0 0 1 3.7-1zm-.3 6.5l-.1-.2a1.5 1.5 0 0 0-1.3-.8 1.5 1.5 0 0 0 0 3c.5 0 1-.4 1.3-.9v-.1h15a.5.5 0 0 0 0-1h-15zm.3-.5h14.7a1 1 0 0 1 0 2H18.6a2 2 0 0 1-3.7-1 2 2 0 0 1 3.7-1zm-.3 6.5l-.1-.2a1.5 1.5 0 0 0-1.3-.8 1.5 1.5 0 0 0 0 3c.5 0 1-.4 1.3-.9v-.1h15a.5.5 0 0 0 0-1h-15zm15-.5a1 1 0 0 1 0 2H18.6a2 2 0 0 1-3.7-1 2 2 0 0 1 3.7-1h14.7z" fill-rule="nonzero"/></g></g></symbol><symbol class="dicon dicon-check" viewBox="0 0 50 50" id="icon-set11_check-b" xmlns="http://www.w3.org/2000/svg"><defs><path id="da" d="M0 0h20.6v18.3H0z"/></defs><g transform="translate(1 1)" fill="none" fill-rule="evenodd"><circle stroke="#FEC543" stroke-width="2" fill="#FDC444" cx="24" cy="24" r="24"/><g transform="translate(16 14.857)"><mask id="db" fill="#fff"><use xlink:href="#da"/></mask><path d="M0 2.4v14.8c0 .6.5 1 1 1h15.4c.6 0 1.1-.4 1.1-1V9.6c0-.6-.5-1.1-1-1.1-.7 0-1.2.5-1.2 1v6.6H2.2V3.5h11.1c.6 0 1.2-.5 1.2-1 0-.7-.6-1.2-1.2-1.2H1.1C.5 1.3 0 2 0 2.4M19.4 0a1.1 1.1 0 0 0-.7.3L8.7 11l-3-2.6c-.4-.3-1.1-.3-1.5.1-.4.5-.3 1.2.1 1.6L8 13.2c.4.4 1.2.4 1.5 0L20.3 1.9c.3-.4.4-.9.2-1.3a1.1 1.1 0 0 0-1-.6" fill="#FFF" mask="url(#db)"/></g></g></symbol><symbol class="eicon eicon-watch" viewBox="0 0 50 50" id="icon-set11_watch" xmlns="http://www.w3.org/2000/svg"><g transform="translate(1 1)" fill="none" fill-rule="evenodd"><circle stroke="#55B0A9" stroke-width="2" fill="#55B0A9" cx="24" cy="24" r="24"/><path d="M24 15.9a.9.9 0 0 0-.9.9V24a.9.9 0 0 0 .4.8l5.8 3.3a.9.9 0 1 0 .9-1.6l-5.3-3v-6.7a.9.9 0 0 0-.9-1m0-1.4a9.6 9.6 0 0 1 9.6 9.6 9.6 9.6 0 0 1-9.6 9.6 9.6 9.6 0 0 1-9.6-9.6 9.6 9.6 0 0 1 9.6-9.6m0-1.8a11.4 11.4 0 1 0 0 22.9 11.4 11.4 0 0 0 0-23" fill="#FFF"/></g></symbol><symbol id="icon-set5_vk-official" viewBox="0 0 283.5 283.5" xmlns="http://www.w3.org/2000/svg"><path class="ast0" d="M185.3 0h-87C18.8 0 0 18.8 0 98.2v87c0 79.4 18.8 98.2 98.2 98.2h87c79.4 0 98.2-18.8 98.2-98.2v-87C283.5 18.8 264.5 0 185.3 0zm43.6 202.3h-20.6c-7.8 0-10.2-6.2-24.2-20.4-12.2-11.8-17.6-13.4-20.6-13.4-4.2 0-5.4 1.2-5.4 7v18.6c0 5-1.6 8-14.8 8-21.8 0-46-13.2-63-37.8-25.6-36-32.6-63-32.6-68.6 0-3 1.2-5.8 7-5.8h20.6c5.2 0 7.2 2.4 9.2 8 10.2 29.4 27.2 55.2 34.2 55.2 2.6 0 3.8-1.2 3.8-7.8v-30.4c-.8-14-8.2-15.2-8.2-20.2 0-2.4 2-4.8 5.2-4.8h32.4c4.4 0 6 2.4 6 7.6v41c0 4.4 2 6 3.2 6 2.6 0 4.8-1.6 9.6-6.4 14.8-16.6 25.4-42.2 25.4-42.2 1.4-3 3.8-5.8 9-5.8h20.6c6.2 0 7.6 3.2 6.2 7.6-2.6 12-27.8 47.6-27.8 47.6-2.2 3.6-3 5.2 0 9.2 2.2 3 9.4 9.2 14.2 14.8 8.8 10 15.6 18.4 17.4 24.2 2 5.8-1 8.8-6.8 8.8z"/></symbol><symbol style="isolation:isolate" viewBox="0 0 55 55" id="icon-set10_hierarchy-in-circle" xmlns="http://www.w3.org/2000/svg"><defs><clipPath id="aa"><path d="M0 0h55v55H0z"/></clipPath></defs><g clip-path="url(#aa)" stroke-opacity="100"><circle cx="27.5" cy="27.5" r="26.5" fill="none"/><path d="M41.3 31.1v-7.3H28.1v-6.1a4.9 4.9 0 0 0 4.2-4.8c0-2.7-2.1-4.9-4.8-4.9a4.8 4.8 0 0 0-4.8 4.9c0 2.4 1.8 4.5 4.2 4.8v6.1H13.7v7.3A4.9 4.9 0 0 0 9.4 36c0 2.6 2.2 4.8 4.9 4.8 2.6 0 4.8-2.2 4.8-4.8 0-2.5-1.9-4.6-4.2-4.9v-6h12v6a4.9 4.9 0 0 0-4.2 4.9c0 2.6 2.1 4.8 4.8 4.8 2.7 0 4.8-2.2 4.8-4.8 0-2.5-1.8-4.6-4.2-4.9v-6h12v6A4.9 4.9 0 0 0 36 36c0 2.6 2.2 4.8 4.8 4.8 2.7 0 4.8-2.2 4.8-4.8 0-2.5-1.8-4.6-4.2-4.9zM24 13c0-2 1.6-3.7 3.6-3.7s3.6 1.7 3.6 3.7-1.6 3.6-3.6 3.6S24 15 24 13zm-9.6 26.7a3.6 3.6 0 0 0 0-7.3c-2 0-3.6 1.6-3.6 3.7 0 2 1.6 3.6 3.6 3.6zM31 36c0 2-1.6 3.6-3.6 3.6S23.9 38 23.9 36s1.6-3.7 3.6-3.7 3.6 1.6 3.6 3.7zm6 0c0 2 1.6 3.6 3.6 3.6s3.6-1.6 3.6-3.6-1.6-3.7-3.6-3.7S37 33.9 37 36z" fill-rule="evenodd" stroke-width=".75"/></g></symbol></svg>